<?xml version="1.0" encoding="UTF-8"?>
<svg
    xmlns="http://www.w3.org/2000/svg"
    width="1000"
    height="700"
    viewBox="0 0 1000 700"
>

    <rect
        x="0"
        y="0"
        width="1000"
        height="700"
        fill="white"
    />

    
        <text
            x="500.0"
            y="35"
            text-anchor="middle"
            font-family="Arial, sans-serif"
            font-size="20"
            fill="black"
        >TOP</text>
        

    <!-- LINEE NASCOSTE -->
    <g
        fill="none"
        stroke="black"
        stroke-width="1.2"
        stroke-dasharray="8 5"
        stroke-linecap="butt"
        stroke-linejoin="round"
    >
        <polyline points="70.000,608.000 70.000,92.000" />
<polyline points="70.000,608.000 930.000,608.000" />
<polyline points="328.000,608.000 337.629,608.000 347.137,608.000 356.404,608.000 365.314,608.000 373.755,608.000 381.620,608.000 388.811,608.000 395.238,608.000 400.818,608.000 405.483,608.000 409.174,608.000 411.844,608.000 413.459,608.000 414.000,608.000" />
<polyline points="414.000,608.000 411.844,608.000 405.483,608.000 395.238,608.000 381.620,608.000 365.314,608.000 347.137,608.000 328.000,608.000 308.863,608.000 290.686,608.000 274.380,608.000 260.762,608.000 250.517,608.000 244.156,608.000 242.000,608.000" />
<polyline points="242.000,608.000 242.541,608.000 244.156,608.000 246.826,608.000 250.517,608.000 255.182,608.000 260.762,608.000 267.189,608.000 274.380,608.000 282.245,608.000 290.686,608.000 299.596,608.000 308.863,608.000 318.371,608.000 328.000,608.000" />
<polyline points="70.000,92.000 930.000,92.000" />
<polyline points="328.000,92.000 337.629,92.000 347.137,92.000 356.404,92.000 365.314,92.000 373.755,92.000 381.620,92.000 388.811,92.000 395.238,92.000 400.818,92.000 405.483,92.000 409.174,92.000 411.844,92.000 413.459,92.000 414.000,92.000" />
<polyline points="414.000,92.000 411.844,92.000 405.483,92.000 395.238,92.000 381.620,92.000 365.314,92.000 347.137,92.000 328.000,92.000 308.863,92.000 290.686,92.000 274.380,92.000 260.762,92.000 250.517,92.000 244.156,92.000 242.000,92.000" />
<polyline points="242.000,92.000 242.541,92.000 244.156,92.000 246.826,92.000 250.517,92.000 255.182,92.000 260.762,92.000 267.189,92.000 274.380,92.000 282.245,92.000 290.686,92.000 299.596,92.000 308.863,92.000 318.371,92.000 328.000,92.000" />
<polyline points="930.000,608.000 930.000,92.000" />
<polyline points="414.000,608.000 414.000,92.000" />
<polyline points="242.000,608.000 242.000,92.000" />
    </g>

    <!-- LINEE VISIBILI -->
    <g
        fill="none"
        stroke="black"
        stroke-width="2"
        stroke-linecap="round"
        stroke-linejoin="round"
    >
        <polyline points="70.000,608.000 70.000,92.000" />
<polyline points="70.000,608.000 930.000,608.000" />
<polyline points="930.000,608.000 930.000,92.000" />
<polyline points="70.000,92.000 930.000,92.000" />
    </g>

</svg>
