0
SECTION
2
HEADER
9
$ACADVER
1
AC1015
9
$INSUNITS
70
4
9
$LTSCALE
40
1.000000
9
$CELTSCALE
40
1.000000
0
ENDSEC
0
SECTION
2
TABLES
0
TABLE
100
AcDbSymbolTable
2
LTYPE
70
5
0
LTYPE
100
AcDbSymbolTableRecord
100
AcDbLinetypeTableRecord
2
BYBLOCK
70
0
3
ByBlock
72
65
73
0
40
0.000000
0
LTYPE
100
AcDbSymbolTableRecord
100
AcDbLinetypeTableRecord
2
BYLAYER
70
0
3
ByLayer
72
65
73
0
40
0.000000
0
LTYPE
100
AcDbSymbolTableRecord
100
AcDbLinetypeTableRecord
2
CONTINUOUS
70
0
3
Solid line
72
65
73
0
40
0.000000
0
LTYPE
100
AcDbSymbolTableRecord
100
AcDbLinetypeTableRecord
2
CENTER
70
0
3
OrthoVideo CENTER
72
65
73
4
40
13.500000
49
8.000000
74
0
49
-2.000000
74
0
49
1.500000
74
0
49
-2.000000
74
0
0
LTYPE
100
AcDbSymbolTableRecord
100
AcDbLinetypeTableRecord
2
DASHED
70
0
3
OrthoVideo DASHED
72
65
73
2
40
5.500000
49
3.500000
74
0
49
-2.000000
74
0
0
ENDTAB
0
TABLE
100
AcDbSymbolTable
2
LAYER
70
9
0
LAYER
100
AcDbSymbolTableRecord
100
AcDbLayerTableRecord
2
VISIBLE
70
0
62
7
6
CONTINUOUS
370
35
0
LAYER
100
AcDbSymbolTableRecord
100
AcDbLayerTableRecord
2
HIDDEN
70
0
62
8
6
DASHED
370
18
0
LAYER
100
AcDbSymbolTableRecord
100
AcDbLayerTableRecord
2
CENTER
70
0
62
4
6
CENTER
370
18
0
LAYER
100
AcDbSymbolTableRecord
100
AcDbLayerTableRecord
2
SYMMETRY
70
0
62
4
6
CENTER
370
18
0
LAYER
100
AcDbSymbolTableRecord
100
AcDbLayerTableRecord
2
PITCH
70
0
62
4
6
CENTER
370
18
0
LAYER
100
AcDbSymbolTableRecord
100
AcDbLayerTableRecord
2
SECTION_CUT
70
0
62
1
6
CONTINUOUS
370
70
0
LAYER
100
AcDbSymbolTableRecord
100
AcDbLayerTableRecord
2
HATCH
70
0
62
8
6
CONTINUOUS
370
18
0
LAYER
100
AcDbSymbolTableRecord
100
AcDbLayerTableRecord
2
TANGENT
70
0
62
8
6
CONTINUOUS
370
18
0
LAYER
100
AcDbSymbolTableRecord
100
AcDbLayerTableRecord
2
LABEL
70
0
62
8
6
CONTINUOUS
370
18
0
ENDTAB
0
ENDSEC
0
SECTION
2
ENTITIES
0
LWPOLYLINE
100
AcDbEntity
8
CENTER
6
CENTER
370
18
100
AcDbPolyline
90
2
70
0
10
130.481701
20
150.685080
10
130.481701
20
160.985080
0
LWPOLYLINE
100
AcDbEntity
8
CENTER
6
CENTER
370
18
100
AcDbPolyline
90
2
70
0
10
138.614811
20
136.955080
10
138.614811
20
145.985080
0
LWPOLYLINE
100
AcDbEntity
8
CENTER
6
CENTER
370
18
100
AcDbPolyline
90
2
70
0
10
122.342670
20
136.955080
10
122.342670
20
145.985080
0
LWPOLYLINE
100
AcDbEntity
8
CENTER
6
CENTER
370
18
100
AcDbPolyline
90
2
70
0
10
118.650019
20
150.685080
10
118.650019
20
160.985080
0
LWPOLYLINE
100
AcDbEntity
8
CENTER
6
CENTER
370
18
100
AcDbPolyline
90
2
70
0
10
130.410000
20
135.674920
10
130.410000
20
161.325080
0
LWPOLYLINE
100
AcDbEntity
8
CENTER
6
CENTER
370
18
100
AcDbPolyline
90
2
70
0
10
142.169981
20
150.685080
10
142.169981
20
160.985080
0
LWPOLYLINE
100
AcDbEntity
8
CENTER
6
CENTER
370
18
100
AcDbPolyline
90
2
70
0
10
138.666798
20
136.955080
10
138.666798
20
145.985080
0
LWPOLYLINE
100
AcDbEntity
8
CENTER
6
CENTER
370
18
100
AcDbPolyline
90
2
70
0
10
122.394657
20
136.955080
10
122.394657
20
145.985080
0
LWPOLYLINE
100
AcDbEntity
8
CENTER
6
CENTER
370
18
100
AcDbPolyline
90
2
70
0
10
130.338299
20
150.685080
10
130.338299
20
160.985080
0
LWPOLYLINE
100
AcDbEntity
8
VISIBLE
6
CONTINUOUS
370
35
100
AcDbPolyline
90
15
70
0
10
121.189000
20
158.325080
10
121.246980
20
158.325080
10
121.420190
20
158.325080
10
121.706452
20
158.325080
10
122.102166
20
158.325080
10
122.602356
20
158.325080
10
123.200732
20
158.325080
10
123.889768
20
158.325080
10
124.660801
20
158.325080
10
125.504132
20
158.325080
10
126.409158
20
158.325080
10
127.364497
20
158.325080
10
128.358134
20
158.325080
10
129.377576
20
158.325080
10
130.410000
20
158.325080
0
LWPOLYLINE
100
AcDbEntity
8
VISIBLE
6
CONTINUOUS
370
35
100
AcDbPolyline
90
15
70
0
10
130.410000
20
158.325080
10
131.442424
20
158.325080
10
132.461866
20
158.325080
10
133.455503
20
158.325080
10
134.410842
20
158.325080
10
135.315868
20
158.325080
10
136.159199
20
158.325080
10
136.930232
20
158.325080
10
137.619268
20
158.325080
10
138.217644
20
158.325080
10
138.717834
20
158.325080
10
139.113548
20
158.325080
10
139.399810
20
158.325080
10
139.573020
20
158.325080
10
139.631000
20
158.325080
0
LWPOLYLINE
100
AcDbEntity
8
VISIBLE
6
CONTINUOUS
370
35
100
AcDbPolyline
90
15
70
0
10
140.410000
20
142.985080
10
140.406443
20
142.985080
10
140.395787
20
142.985080
10
140.378077
20
142.985080
10
140.353386
20
142.985080
10
140.321819
20
142.985080
10
140.283507
20
142.985080
10
140.238610
20
142.985080
10
140.187317
20
142.985080
10
140.129841
20
142.985080
10
140.066424
20
142.985080
10
139.997331
20
142.985080
10
139.922851
20
142.985080
10
139.843296
20
142.985080
10
139.758998
20
142.985080
0
LWPOLYLINE
100
AcDbEntity
8
VISIBLE
6
CONTINUOUS
370
35
100
AcDbPolyline
90
6
70
0
10
140.410000
20
142.985080
10
140.533607
20
142.965503
10
140.645114
20
142.908687
10
140.733607
20
142.820194
10
140.790423
20
142.708687
10
140.810000
20
142.585080
0
LWPOLYLINE
100
AcDbEntity
8
VISIBLE
6
CONTINUOUS
370
35
100
AcDbPolyline
90
15
70
0
10
138.710000
20
142.985080
10
138.900340
20
142.985080
10
139.088286
20
142.985080
10
139.271474
20
142.985080
10
139.447602
20
142.985080
10
139.614455
20
142.985080
10
139.769933
20
142.985080
10
139.912082
20
142.985080
10
140.039114
20
142.985080
10
140.149431
20
142.985080
10
140.241647
20
142.985080
10
140.314602
20
142.985080
10
140.367377
20
142.985080
10
140.399311
20
142.985080
10
140.410000
20
142.985080
0
LWPOLYLINE
100
AcDbEntity
8
VISIBLE
6
CONTINUOUS
370
35
100
AcDbPolyline
90
15
70
0
10
121.250470
20
142.985080
10
121.143914
20
142.985080
10
121.042695
20
142.985080
10
120.947371
20
142.985080
10
120.858469
20
142.985080
10
120.776479
20
142.985080
10
120.701855
20
142.985080
10
120.635008
20
142.985080
10
120.576309
20
142.985080
10
120.526080
20
142.985080
10
120.484601
20
142.985080
10
120.452098
20
142.985080
10
120.428754
20
142.985080
10
120.414695
20
142.985080
10
120.410000
20
142.985080
0
LWPOLYLINE
100
AcDbEntity
8
VISIBLE
6
CONTINUOUS
370
35
100
AcDbPolyline
90
2
70
0
10
122.110000
20
142.985080
10
138.710000
20
142.985080
0
LWPOLYLINE
100
AcDbEntity
8
VISIBLE
6
CONTINUOUS
370
35
100
AcDbPolyline
90
15
70
0
10
120.410000
20
142.985080
10
120.420689
20
142.985080
10
120.452623
20
142.985080
10
120.505398
20
142.985080
10
120.578353
20
142.985080
10
120.670569
20
142.985080
10
120.780886
20
142.985080
10
120.907918
20
142.985080
10
121.050067
20
142.985080
10
121.205545
20
142.985080
10
121.372398
20
142.985080
10
121.548526
20
142.985080
10
121.731714
20
142.985080
10
121.919660
20
142.985080
10
122.110000
20
142.985080
0
LWPOLYLINE
100
AcDbEntity
8
VISIBLE
6
CONTINUOUS
370
35
100
AcDbPolyline
90
6
70
0
10
120.010000
20
142.585080
10
120.029577
20
142.708687
10
120.086393
20
142.820194
10
120.174886
20
142.908687
10
120.286393
20
142.965503
10
120.410000
20
142.985080
0
LWPOLYLINE
100
AcDbEntity
8
VISIBLE
6
CONTINUOUS
370
35
100
AcDbPolyline
90
6
70
0
10
120.410000
20
139.955080
10
120.286393
20
139.974657
10
120.174886
20
140.031473
10
120.086393
20
140.119966
10
120.029577
20
140.231473
10
120.010000
20
140.355080
0
LWPOLYLINE
100
AcDbEntity
8
VISIBLE
6
CONTINUOUS
370
35
100
AcDbPolyline
90
15
70
0
10
122.110000
20
139.955080
10
121.919660
20
139.955080
10
121.731714
20
139.955080
10
121.548526
20
139.955080
10
121.372398
20
139.955080
10
121.205545
20
139.955080
10
121.050067
20
139.955080
10
120.907918
20
139.955080
10
120.780886
20
139.955080
10
120.670569
20
139.955080
10
120.578353
20
139.955080
10
120.505398
20
139.955080
10
120.452623
20
139.955080
10
120.420689
20
139.955080
10
120.410000
20
139.955080
0
LWPOLYLINE
100
AcDbEntity
8
VISIBLE
6
CONTINUOUS
370
35
100
AcDbPolyline
90
2
70
0
10
138.710000
20
139.955080
10
122.110000
20
139.955080
0
LWPOLYLINE
100
AcDbEntity
8
VISIBLE
6
CONTINUOUS
370
35
100
AcDbPolyline
90
6
70
0
10
140.810000
20
140.355080
10
140.790423
20
140.231473
10
140.733607
20
140.119966
10
140.645114
20
140.031473
10
140.533607
20
139.974657
10
140.410000
20
139.955080
0
LWPOLYLINE
100
AcDbEntity
8
VISIBLE
6
CONTINUOUS
370
35
100
AcDbPolyline
90
15
70
0
10
140.410000
20
139.955080
10
140.399311
20
139.955080
10
140.367377
20
139.955080
10
140.314602
20
139.955080
10
140.241647
20
139.955080
10
140.149431
20
139.955080
10
140.039114
20
139.955080
10
139.912082
20
139.955080
10
139.769933
20
139.955080
10
139.614455
20
139.955080
10
139.447602
20
139.955080
10
139.271474
20
139.955080
10
139.088286
20
139.955080
10
138.900340
20
139.955080
10
138.710000
20
139.955080
0
LWPOLYLINE
100
AcDbEntity
8
VISIBLE
6
CONTINUOUS
370
35
100
AcDbPolyline
90
3
70
0
10
137.096653
20
143.046897
10
137.009322
20
143.142043
10
136.957742
20
143.259221
0
LWPOLYLINE
100
AcDbEntity
8
VISIBLE
6
CONTINUOUS
370
35
100
AcDbPolyline
90
2
70
0
10
136.948386
20
143.300506
10
136.940899
20
143.385080
0
LWPOLYLINE
100
AcDbEntity
8
VISIBLE
6
CONTINUOUS
370
35
100
AcDbPolyline
90
6
70
0
10
137.527000
20
143.385080
10
137.546577
20
143.261473
10
137.603393
20
143.149966
10
137.691886
20
143.061473
10
137.803393
20
143.004657
10
137.927000
20
142.985080
0
LWPOLYLINE
100
AcDbEntity
8
VISIBLE
6
CONTINUOUS
370
35
100
AcDbPolyline
90
9
70
0
10
136.940899
20
143.385080
10
136.948387
20
143.300504
10
136.969960
20
143.221356
10
137.003378
20
143.151668
10
137.046226
20
143.093310
10
137.096654
20
143.046897
10
137.153110
20
143.012966
10
137.216154
20
142.991690
10
137.277654
20
142.985080
0
LWPOLYLINE
100
AcDbEntity
8
VISIBLE
6
CONTINUOUS
370
35
100
AcDbPolyline
90
9
70
0
10
131.684000
20
143.385080
10
131.692359
20
143.303153
10
131.717748
20
143.221356
10
131.751678
20
143.156917
10
131.800685
20
143.093310
10
131.852009
20
143.046893
10
131.906922
20
143.012966
10
131.972688
20
142.990079
10
132.020666
20
142.985080
0
LWPOLYLINE
100
AcDbEntity
8
VISIBLE
6
CONTINUOUS
370
35
100
AcDbPolyline
90
2
70
0
10
123.597250
20
142.990330
10
123.654422
20
143.007485
0
LWPOLYLINE
100
AcDbEntity
8
VISIBLE
6
CONTINUOUS
370
35
100
AcDbPolyline
90
2
70
0
10
123.701872
20
143.032091
10
123.725593
20
143.048604
0
LWPOLYLINE
100
AcDbEntity
8
VISIBLE
6
CONTINUOUS
370
35
100
AcDbPolyline
90
2
70
0
10
123.753455
20
143.072364
10
123.770995
20
143.090236
0
LWPOLYLINE
100
AcDbEntity
8
VISIBLE
6
CONTINUOUS
370
35
100
AcDbPolyline
90
2
70
0
10
123.773930
20
143.093484
10
123.775384
20
143.095123
0
LWPOLYLINE
100
AcDbEntity
8
VISIBLE
6
CONTINUOUS
370
35
100
AcDbPolyline
90
9
70
0
10
129.136000
20
143.385080
10
129.127171
20
143.300504
10
129.102252
20
143.221356
10
129.065010
20
143.151668
10
129.019315
20
143.093310
10
128.967974
20
143.046897
10
128.913078
20
143.012966
10
128.854403
20
142.991690
10
128.799334
20
142.985080
0
LWPOLYLINE
100
AcDbEntity
8
VISIBLE
6
CONTINUOUS
370
35
100
AcDbPolyline
90
6
70
0
10
122.893000
20
142.985080
10
123.016607
20
143.004657
10
123.128114
20
143.061473
10
123.216607
20
143.149966
10
123.273423
20
143.261473
10
123.293000
20
143.385080
0
LWPOLYLINE
100
AcDbEntity
8
VISIBLE
6
CONTINUOUS
370
35
100
AcDbPolyline
90
9
70
0
10
123.879101
20
143.385080
10
123.872095
20
143.303153
10
123.850040
20
143.221356
10
123.819731
20
143.156917
10
123.773774
20
143.093310
10
123.723332
20
143.046893
10
123.666890
20
143.012966
10
123.595931
20
142.990079
10
123.542346
20
142.985080
0
LWPOLYLINE
100
AcDbEntity
8
VISIBLE
6
CONTINUOUS
370
35
100
AcDbPolyline
90
15
70
0
10
130.410000
20
153.685080
10
128.609611
20
153.685080
10
126.831863
20
153.685080
10
125.099113
20
153.685080
10
123.433149
20
153.685080
10
121.854924
20
153.685080
10
120.384284
20
153.685080
10
119.039723
20
153.685080
10
117.838150
20
153.685080
10
116.794675
20
153.685080
10
115.922421
20
153.685080
10
115.232356
20
153.685080
10
114.733159
20
153.685080
10
114.431108
20
153.685080
10
114.330000
20
153.685080
0
LWPOLYLINE
100
AcDbEntity
8
VISIBLE
6
CONTINUOUS
370
35
100
AcDbPolyline
90
15
70
0
10
113.880000
20
154.135080
10
113.983937
20
154.135080
10
114.294442
20
154.135080
10
114.807609
20
154.135080
10
115.516985
20
154.135080
10
116.413649
20
154.135080
10
117.486326
20
154.135080
10
118.721525
20
154.135080
10
120.103714
20
154.135080
10
121.615510
20
154.135080
10
123.237902
20
154.135080
10
124.950487
20
154.135080
10
126.731729
20
154.135080
10
128.559227
20
154.135080
10
130.410000
20
154.135080
0
LWPOLYLINE
100
AcDbEntity
8
VISIBLE
6
CONTINUOUS
370
35
100
AcDbPolyline
90
15
70
0
10
114.330000
20
157.985080
10
114.431108
20
157.985080
10
114.733159
20
157.985080
10
115.232356
20
157.985080
10
115.922421
20
157.985080
10
116.794675
20
157.985080
10
117.838150
20
157.985080
10
119.039723
20
157.985080
10
120.384284
20
157.985080
10
121.854924
20
157.985080
10
123.433149
20
157.985080
10
125.099113
20
157.985080
10
126.831863
20
157.985080
10
128.609611
20
157.985080
10
130.410000
20
157.985080
0
LWPOLYLINE
100
AcDbEntity
8
VISIBLE
6
CONTINUOUS
370
35
100
AcDbPolyline
90
15
70
0
10
130.410000
20
157.535080
10
128.559227
20
157.535080
10
126.731729
20
157.535080
10
124.950487
20
157.535080
10
123.237902
20
157.535080
10
121.615510
20
157.535080
10
120.103714
20
157.535080
10
118.721525
20
157.535080
10
117.486326
20
157.535080
10
116.413649
20
157.535080
10
115.516985
20
157.535080
10
114.807609
20
157.535080
10
114.294442
20
157.535080
10
113.983937
20
157.535080
10
113.880000
20
157.535080
0
LWPOLYLINE
100
AcDbEntity
8
VISIBLE
6
CONTINUOUS
370
35
100
AcDbPolyline
90
15
70
0
10
130.410000
20
138.674920
10
129.475097
20
138.674920
10
128.551950
20
138.674920
10
127.652170
20
138.674920
10
126.787071
20
138.674920
10
125.967532
20
138.674920
10
125.203860
20
138.674920
10
124.505658
20
138.674920
10
123.881707
20
138.674920
10
123.339853
20
138.674920
10
122.886910
20
138.674920
10
122.528574
20
138.674920
10
122.269352
20
138.674920
10
122.112503
20
138.674920
10
122.060000
20
138.674920
0
LWPOLYLINE
100
AcDbEntity
8
VISIBLE
6
CONTINUOUS
370
35
100
AcDbPolyline
90
15
70
0
10
138.760000
20
138.674920
10
138.707497
20
138.674920
10
138.550648
20
138.674920
10
138.291426
20
138.674920
10
137.933090
20
138.674920
10
137.480147
20
138.674920
10
136.938293
20
138.674920
10
136.314342
20
138.674920
10
135.616140
20
138.674920
10
134.852468
20
138.674920
10
134.032929
20
138.674920
10
133.167830
20
138.674920
10
132.268050
20
138.674920
10
131.344903
20
138.674920
10
130.410000
20
138.674920
0
LWPOLYLINE
100
AcDbEntity
8
VISIBLE
6
CONTINUOUS
370
35
100
AcDbPolyline
90
2
70
0
10
120.010000
20
140.355080
10
120.010000
20
142.585080
0
LWPOLYLINE
100
AcDbEntity
8
VISIBLE
6
CONTINUOUS
370
35
100
AcDbPolyline
90
2
70
0
10
140.810000
20
140.355080
10
140.810000
20
142.585080
0
LWPOLYLINE
100
AcDbEntity
8
VISIBLE
6
CONTINUOUS
370
35
100
AcDbPolyline
90
15
70
0
10
121.250470
20
142.985080
10
121.250737
20
142.985080
10
121.251539
20
142.985080
10
121.252875
20
142.985080
10
121.254745
20
142.985080
10
121.257147
20
142.985080
10
121.260081
20
142.985080
10
121.263545
20
142.985080
10
121.267537
20
142.985080
10
121.272056
20
142.985080
10
121.277098
20
142.985080
10
121.282663
20
142.985080
10
121.288746
20
142.985080
10
121.295345
20
142.985080
10
121.302457
20
142.985080
0
LWPOLYLINE
100
AcDbEntity
8
VISIBLE
6
CONTINUOUS
370
35
100
AcDbPolyline
90
3
70
0
10
122.097348
20
153.685072
10
122.161736
20
153.683110
10
122.198479
20
153.680435
0
LWPOLYLINE
100
AcDbEntity
8
VISIBLE
6
CONTINUOUS
370
35
100
AcDbPolyline
90
2
70
0
10
122.201330
20
153.680180
10
122.398062
20
153.645656
0
LWPOLYLINE
100
AcDbEntity
8
VISIBLE
6
CONTINUOUS
370
35
100
AcDbPolyline
90
9
70
0
10
122.398976
20
153.645416
10
122.520101
20
153.606501
10
122.647168
20
153.549455
10
122.764082
20
153.479891
10
122.874484
20
153.395729
10
122.976424
20
153.297213
10
123.066745
20
153.186375
10
123.142787
20
153.066413
10
123.203756
20
152.939196
0
LWPOLYLINE
100
AcDbEntity
8
VISIBLE
6
CONTINUOUS
370
35
100
AcDbPolyline
90
3
70
0
10
123.205582
20
152.934704
10
123.270497
20
152.716030
10
123.293000
20
152.485080
0
LWPOLYLINE
100
AcDbEntity
8
VISIBLE
6
CONTINUOUS
370
35
100
AcDbPolyline
90
3
70
0
10
123.831344
20
152.469551
10
123.748674
20
152.712277
10
123.619231
20
152.952043
0
LWPOLYLINE
100
AcDbEntity
8
VISIBLE
6
CONTINUOUS
370
35
100
AcDbPolyline
90
2
70
0
10
123.456264
20
153.160667
10
123.255862
20
153.344134
0
LWPOLYLINE
100
AcDbEntity
8
VISIBLE
6
CONTINUOUS
370
35
100
AcDbPolyline
90
2
70
0
10
122.781541
20
153.598260
10
122.779063
20
153.599098
0
LWPOLYLINE
100
AcDbEntity
8
VISIBLE
6
CONTINUOUS
370
35
100
AcDbPolyline
90
2
70
0
10
123.293000
20
152.085080
10
123.293000
20
143.385080
0
LWPOLYLINE
100
AcDbEntity
8
VISIBLE
6
CONTINUOUS
370
35
100
AcDbPolyline
90
4
70
0
10
122.200942
20
153.680215
10
122.161736
20
153.683110
10
122.095354
20
153.685078
10
122.093000
20
153.685080
0
LWPOLYLINE
100
AcDbEntity
8
VISIBLE
6
CONTINUOUS
370
35
100
AcDbPolyline
90
2
70
0
10
122.200942
20
153.680215
10
122.254913
20
153.685080
0
LWPOLYLINE
100
AcDbEntity
8
VISIBLE
6
CONTINUOUS
370
35
100
AcDbPolyline
90
5
70
0
10
123.293000
20
152.485080
10
123.303071
20
152.482229
10
123.332948
20
152.479473
10
123.447472
20
152.474613
10
123.831348
20
152.469535
0
LWPOLYLINE
100
AcDbEntity
8
VISIBLE
6
CONTINUOUS
370
35
100
AcDbPolyline
90
11
70
0
10
122.254913
20
153.685080
10
122.490725
20
153.668040
10
122.629998
20
153.641623
10
122.781300
20
153.598342
10
123.026927
20
153.492076
10
123.251899
20
153.347184
10
123.364637
20
153.252272
10
123.462246
20
153.154151
10
123.615783
20
152.957277
10
123.747428
20
152.715069
10
123.831348
20
152.469535
0
LWPOLYLINE
100
AcDbEntity
8
VISIBLE
6
CONTINUOUS
370
35
100
AcDbPolyline
90
9
70
0
10
123.293000
20
152.485080
10
123.270206
20
152.717857
10
123.204238
20
152.938014
10
123.099419
20
153.138625
10
122.957086
20
153.317760
10
122.786854
20
153.464144
10
122.598799
20
153.573275
10
122.398454
20
153.645553
10
122.200942
20
153.680215
0
LWPOLYLINE
100
AcDbEntity
8
VISIBLE
6
CONTINUOUS
370
35
100
AcDbPolyline
90
3
70
0
10
123.831348
20
152.469535
10
123.867247
20
152.277568
10
123.879101
20
152.085080
0
LWPOLYLINE
100
AcDbEntity
8
VISIBLE
6
CONTINUOUS
370
35
100
AcDbPolyline
90
2
70
0
10
123.293000
20
152.085080
10
123.293000
20
152.485080
0
LWPOLYLINE
100
AcDbEntity
8
VISIBLE
6
CONTINUOUS
370
35
100
AcDbPolyline
90
2
70
0
10
123.879101
20
152.085080
10
123.879101
20
143.385080
0
LWPOLYLINE
100
AcDbEntity
8
VISIBLE
6
CONTINUOUS
370
35
100
AcDbPolyline
90
2
70
0
10
129.136000
20
153.685080
10
129.229291
20
153.680215
0
LWPOLYLINE
100
AcDbEntity
8
VISIBLE
6
CONTINUOUS
370
35
100
AcDbPolyline
90
4
70
0
10
129.136000
20
153.685080
10
129.138038
20
153.685078
10
129.195478
20
153.683110
10
129.229291
20
153.680215
0
LWPOLYLINE
100
AcDbEntity
8
VISIBLE
6
CONTINUOUS
370
35
100
AcDbPolyline
90
15
70
0
10
129.136000
20
152.469535
10
129.145726
20
152.469789
10
129.161898
20
152.470210
10
129.184339
20
152.470795
10
129.212801
20
152.471536
10
129.246972
20
152.472427
10
129.286477
20
152.473456
10
129.330882
20
152.474613
10
129.379699
20
152.475885
10
129.432392
20
152.477258
10
129.488383
20
152.478716
10
129.547056
20
152.480245
10
129.607767
20
152.481827
10
129.669850
20
152.483445
10
129.732622
20
152.485080
0
LWPOLYLINE
100
AcDbEntity
8
VISIBLE
6
CONTINUOUS
370
35
100
AcDbPolyline
90
9
70
0
10
129.229291
20
153.680215
10
129.349464
20
153.645553
10
129.441345
20
153.573275
10
129.519919
20
153.464153
10
129.588086
20
153.317760
10
129.644627
20
153.138637
10
129.687272
20
152.938014
10
129.716666
20
152.717814
10
129.732622
20
152.485080
0
LWPOLYLINE
100
AcDbEntity
8
VISIBLE
6
CONTINUOUS
370
35
100
AcDbPolyline
90
5
70
0
10
129.136000
20
152.469535
10
129.136000
20
153.347355
10
129.136000
20
153.598414
10
129.135936
20
153.668050
10
129.136000
20
153.685080
0
LWPOLYLINE
100
AcDbEntity
8
VISIBLE
6
CONTINUOUS
370
35
100
AcDbPolyline
90
2
70
0
10
129.732622
20
152.485080
10
129.735839
20
152.085080
0
LWPOLYLINE
100
AcDbEntity
8
VISIBLE
6
CONTINUOUS
370
35
100
AcDbPolyline
90
2
70
0
10
129.136000
20
152.085080
10
129.136000
20
152.469535
0
LWPOLYLINE
100
AcDbEntity
8
VISIBLE
6
CONTINUOUS
370
35
100
AcDbPolyline
90
2
70
0
10
129.136000
20
143.385080
10
129.136000
20
152.085080
0
LWPOLYLINE
100
AcDbEntity
8
VISIBLE
6
CONTINUOUS
370
35
100
AcDbPolyline
90
4
70
0
10
131.590709
20
153.680215
10
131.624522
20
153.683110
10
131.681962
20
153.685078
10
131.684000
20
153.685080
0
LWPOLYLINE
100
AcDbEntity
8
VISIBLE
6
CONTINUOUS
370
35
100
AcDbPolyline
90
2
70
0
10
131.590709
20
153.680215
10
131.684000
20
153.685080
0
LWPOLYLINE
100
AcDbEntity
8
VISIBLE
6
CONTINUOUS
370
35
100
AcDbPolyline
90
15
70
0
10
131.087378
20
152.485080
10
131.150150
20
152.483445
10
131.212233
20
152.481827
10
131.272944
20
152.480245
10
131.331617
20
152.478716
10
131.387608
20
152.477258
10
131.440301
20
152.475885
10
131.489118
20
152.474613
10
131.533523
20
152.473456
10
131.573028
20
152.472427
10
131.607199
20
152.471536
10
131.635661
20
152.470795
10
131.658102
20
152.470210
10
131.674274
20
152.469789
10
131.684000
20
152.469535
0
LWPOLYLINE
100
AcDbEntity
8
VISIBLE
6
CONTINUOUS
370
35
100
AcDbPolyline
90
5
70
0
10
131.684000
20
153.685080
10
131.684064
20
153.668040
10
131.684000
20
153.598342
10
131.684000
20
153.347184
10
131.684000
20
152.469535
0
LWPOLYLINE
100
AcDbEntity
8
VISIBLE
6
CONTINUOUS
370
35
100
AcDbPolyline
90
9
70
0
10
131.087378
20
152.485080
10
131.103333
20
152.717857
10
131.132728
20
152.938014
10
131.175369
20
153.138625
10
131.231914
20
153.317760
10
131.300076
20
153.464144
10
131.378655
20
153.573275
10
131.470536
20
153.645553
10
131.590709
20
153.680215
0
LWPOLYLINE
100
AcDbEntity
8
VISIBLE
6
CONTINUOUS
370
35
100
AcDbPolyline
90
2
70
0
10
131.684000
20
152.469535
10
131.684000
20
152.085080
0
LWPOLYLINE
100
AcDbEntity
8
VISIBLE
6
CONTINUOUS
370
35
100
AcDbPolyline
90
2
70
0
10
131.084161
20
152.085080
10
131.087378
20
152.485080
0
LWPOLYLINE
100
AcDbEntity
8
VISIBLE
6
CONTINUOUS
370
35
100
AcDbPolyline
90
2
70
0
10
131.684000
20
152.085080
10
131.684000
20
143.385080
0
LWPOLYLINE
100
AcDbEntity
8
VISIBLE
6
CONTINUOUS
370
35
100
AcDbPolyline
90
3
70
0
10
138.723649
20
153.685075
10
138.724646
20
153.685078
10
138.727000
20
153.685080
0
LWPOLYLINE
100
AcDbEntity
8
VISIBLE
6
CONTINUOUS
370
35
100
AcDbPolyline
90
2
70
0
10
137.793833
20
153.492481
10
137.793052
20
153.492065
0
LWPOLYLINE
100
AcDbEntity
8
VISIBLE
6
CONTINUOUS
370
35
100
AcDbPolyline
90
2
70
0
10
137.352892
20
153.148802
10
137.206167
20
152.960217
0
LWPOLYLINE
100
AcDbEntity
8
VISIBLE
6
CONTINUOUS
370
35
100
AcDbPolyline
90
2
70
0
10
137.203955
20
152.956880
10
137.201817
20
152.953639
0
LWPOLYLINE
100
AcDbEntity
8
VISIBLE
6
CONTINUOUS
370
35
100
AcDbPolyline
90
3
70
0
10
137.527000
20
152.485080
10
137.549627
20
152.717012
10
137.615131
20
152.936464
0
LWPOLYLINE
100
AcDbEntity
8
VISIBLE
6
CONTINUOUS
370
35
100
AcDbPolyline
90
5
70
0
10
137.616271
20
152.939261
10
137.690385
20
153.089583
10
137.785553
20
153.229175
10
137.899856
20
153.354464
10
138.027701
20
153.460263
0
LWPOLYLINE
100
AcDbEntity
8
VISIBLE
6
CONTINUOUS
370
35
100
AcDbPolyline
90
2
70
0
10
138.220497
20
153.572947
10
138.416171
20
153.644125
0
LWPOLYLINE
100
AcDbEntity
8
VISIBLE
6
CONTINUOUS
370
35
100
AcDbPolyline
90
2
70
0
10
137.527000
20
143.385080
10
137.527000
20
152.085080
0
LWPOLYLINE
100
AcDbEntity
8
VISIBLE
6
CONTINUOUS
370
35
100
AcDbPolyline
90
2
70
0
10
138.565087
20
153.685080
10
138.619058
20
153.680215
0
LWPOLYLINE
100
AcDbEntity
8
VISIBLE
6
CONTINUOUS
370
35
100
AcDbPolyline
90
4
70
0
10
138.727000
20
153.685080
10
138.724646
20
153.685078
10
138.658264
20
153.683110
10
138.619058
20
153.680215
0
LWPOLYLINE
100
AcDbEntity
8
VISIBLE
6
CONTINUOUS
370
35
100
AcDbPolyline
90
5
70
0
10
136.988652
20
152.469535
10
137.372528
20
152.474613
10
137.487052
20
152.479473
10
137.516929
20
152.482229
10
137.527000
20
152.485080
0
LWPOLYLINE
100
AcDbEntity
8
VISIBLE
6
CONTINUOUS
370
35
100
AcDbPolyline
90
9
70
0
10
138.619058
20
153.680215
10
138.421546
20
153.645553
10
138.221201
20
153.573275
10
138.033158
20
153.464153
10
137.862914
20
153.317760
10
137.720589
20
153.138637
10
137.615762
20
152.938014
10
137.549855
20
152.717814
10
137.527000
20
152.485080
0
LWPOLYLINE
100
AcDbEntity
8
VISIBLE
6
CONTINUOUS
370
35
100
AcDbPolyline
90
11
70
0
10
136.988652
20
152.469535
10
137.072530
20
152.715044
10
137.204304
20
152.957409
10
137.357886
20
153.154296
10
137.455523
20
153.252417
10
137.568324
20
153.347355
10
137.793862
20
153.492497
10
138.038913
20
153.598414
10
138.190102
20
153.641660
10
138.329346
20
153.668050
10
138.565087
20
153.685080
0
LWPOLYLINE
100
AcDbEntity
8
VISIBLE
6
CONTINUOUS
370
35
100
AcDbPolyline
90
2
70
0
10
137.527000
20
152.485080
10
137.527000
20
152.085080
0
LWPOLYLINE
100
AcDbEntity
8
VISIBLE
6
CONTINUOUS
370
35
100
AcDbPolyline
90
3
70
0
10
136.940899
20
152.085080
10
136.952753
20
152.277568
10
136.988652
20
152.469535
0
LWPOLYLINE
100
AcDbEntity
8
VISIBLE
6
CONTINUOUS
370
35
100
AcDbPolyline
90
2
70
0
10
136.940899
20
143.385080
10
136.940899
20
152.085080
0
LWPOLYLINE
100
AcDbEntity
8
VISIBLE
6
CONTINUOUS
370
35
100
AcDbPolyline
90
15
70
0
10
146.490000
20
153.685080
10
146.388892
20
153.685080
10
146.086841
20
153.685080
10
145.587644
20
153.685080
10
144.897579
20
153.685080
10
144.025325
20
153.685080
10
142.981850
20
153.685080
10
141.780277
20
153.685080
10
140.435716
20
153.685080
10
138.965076
20
153.685080
10
137.386851
20
153.685080
10
135.720887
20
153.685080
10
133.988137
20
153.685080
10
132.210389
20
153.685080
10
130.410000
20
153.685080
0
LWPOLYLINE
100
AcDbEntity
8
VISIBLE
6
CONTINUOUS
370
35
100
AcDbPolyline
90
15
70
0
10
130.410000
20
157.985080
10
132.210389
20
157.985080
10
133.988137
20
157.985080
10
135.720887
20
157.985080
10
137.386851
20
157.985080
10
138.965076
20
157.985080
10
140.435716
20
157.985080
10
141.780277
20
157.985080
10
142.981850
20
157.985080
10
144.025325
20
157.985080
10
144.897579
20
157.985080
10
145.587644
20
157.985080
10
146.086841
20
157.985080
10
146.388892
20
157.985080
10
146.490000
20
157.985080
0
LWPOLYLINE
100
AcDbEntity
8
VISIBLE
6
CONTINUOUS
370
35
100
AcDbPolyline
90
15
70
0
10
146.940000
20
157.535080
10
146.836063
20
157.535080
10
146.525558
20
157.535080
10
146.012391
20
157.535080
10
145.303015
20
157.535080
10
144.406351
20
157.535080
10
143.333674
20
157.535080
10
142.098475
20
157.535080
10
140.716286
20
157.535080
10
139.204490
20
157.535080
10
137.582098
20
157.535080
10
135.869513
20
157.535080
10
134.088271
20
157.535080
10
132.260773
20
157.535080
10
130.410000
20
157.535080
0
LWPOLYLINE
100
AcDbEntity
8
VISIBLE
6
CONTINUOUS
370
35
100
AcDbPolyline
90
15
70
0
10
130.410000
20
154.135080
10
132.260773
20
154.135080
10
134.088271
20
154.135080
10
135.869513
20
154.135080
10
137.582098
20
154.135080
10
139.204490
20
154.135080
10
140.716286
20
154.135080
10
142.098475
20
154.135080
10
143.333674
20
154.135080
10
144.406351
20
154.135080
10
145.303015
20
154.135080
10
146.012391
20
154.135080
10
146.525558
20
154.135080
10
146.836063
20
154.135080
10
146.940000
20
154.135080
0
LWPOLYLINE
100
AcDbEntity
8
VISIBLE
6
CONTINUOUS
370
35
100
AcDbPolyline
90
2
70
0
10
121.189000
20
158.325080
10
121.189000
20
157.985080
0
LWPOLYLINE
100
AcDbEntity
8
VISIBLE
6
CONTINUOUS
370
35
100
AcDbPolyline
90
2
70
0
10
114.330000
20
153.685080
10
113.880000
20
154.135080
0
LWPOLYLINE
100
AcDbEntity
8
VISIBLE
6
CONTINUOUS
370
35
100
AcDbPolyline
90
2
70
0
10
114.330000
20
157.985080
10
113.880000
20
157.535080
0
LWPOLYLINE
100
AcDbEntity
8
VISIBLE
6
CONTINUOUS
370
35
100
AcDbPolyline
90
2
70
0
10
122.060000
20
138.674920
10
122.060000
20
139.955080
0
LWPOLYLINE
100
AcDbEntity
8
VISIBLE
6
CONTINUOUS
370
35
100
AcDbPolyline
90
2
70
0
10
122.093000
20
153.685080
10
122.093224
20
153.685080
0
LWPOLYLINE
100
AcDbEntity
8
VISIBLE
6
CONTINUOUS
370
35
100
AcDbPolyline
90
2
70
0
10
122.093000
20
153.685080
10
122.200942
20
153.680215
0
LWPOLYLINE
100
AcDbEntity
8
VISIBLE
6
CONTINUOUS
370
35
100
AcDbPolyline
90
2
70
0
10
129.136000
20
153.685080
10
129.136014
20
153.685080
0
LWPOLYLINE
100
AcDbEntity
8
VISIBLE
6
CONTINUOUS
370
35
100
AcDbPolyline
90
2
70
0
10
138.619058
20
153.680215
10
138.727000
20
153.685080
0
LWPOLYLINE
100
AcDbEntity
8
VISIBLE
6
CONTINUOUS
370
35
100
AcDbPolyline
90
2
70
0
10
113.880000
20
157.535080
10
113.880000
20
154.135080
0
LWPOLYLINE
100
AcDbEntity
8
VISIBLE
6
CONTINUOUS
370
35
100
AcDbPolyline
90
2
70
0
10
146.940000
20
157.535080
10
146.940000
20
154.135080
0
LWPOLYLINE
100
AcDbEntity
8
VISIBLE
6
CONTINUOUS
370
35
100
AcDbPolyline
90
2
70
0
10
138.760000
20
138.674920
10
138.760000
20
139.955080
0
LWPOLYLINE
100
AcDbEntity
8
VISIBLE
6
CONTINUOUS
370
35
100
AcDbPolyline
90
2
70
0
10
146.490000
20
157.985080
10
146.940000
20
157.535080
0
LWPOLYLINE
100
AcDbEntity
8
VISIBLE
6
CONTINUOUS
370
35
100
AcDbPolyline
90
2
70
0
10
146.490000
20
153.685080
10
146.940000
20
154.135080
0
LWPOLYLINE
100
AcDbEntity
8
VISIBLE
6
CONTINUOUS
370
35
100
AcDbPolyline
90
2
70
0
10
139.631000
20
158.325080
10
139.631000
20
157.985080
0
LWPOLYLINE
100
AcDbEntity
8
CENTER
6
CENTER
370
18
100
AcDbPolyline
90
2
70
0
10
171.710019
20
150.685080
10
171.710019
20
160.985080
0
LWPOLYLINE
100
AcDbEntity
8
CENTER
6
CENTER
370
18
100
AcDbPolyline
90
2
70
0
10
175.402670
20
136.955080
10
175.402670
20
145.985080
0
LWPOLYLINE
100
AcDbEntity
8
CENTER
6
CENTER
370
18
100
AcDbPolyline
90
2
70
0
10
175.454657
20
136.955080
10
175.454657
20
145.985080
0
LWPOLYLINE
100
AcDbEntity
8
CENTER
6
CENTER
370
18
100
AcDbPolyline
90
2
70
0
10
183.398299
20
150.685080
10
183.398299
20
160.985080
0
LWPOLYLINE
100
AcDbEntity
8
CENTER
6
CENTER
370
18
100
AcDbPolyline
90
2
70
0
10
183.470000
20
135.674920
10
183.470000
20
161.325080
0
LWPOLYLINE
100
AcDbEntity
8
CENTER
6
CENTER
370
18
100
AcDbPolyline
90
2
70
0
10
183.541701
20
150.685080
10
183.541701
20
160.985080
0
LWPOLYLINE
100
AcDbEntity
8
CENTER
6
CENTER
370
18
100
AcDbPolyline
90
2
70
0
10
191.674811
20
136.955080
10
191.674811
20
145.985080
0
LWPOLYLINE
100
AcDbEntity
8
CENTER
6
CENTER
370
18
100
AcDbPolyline
90
2
70
0
10
191.726798
20
136.955080
10
191.726798
20
145.985080
0
LWPOLYLINE
100
AcDbEntity
8
CENTER
6
CENTER
370
18
100
AcDbPolyline
90
2
70
0
10
195.229981
20
150.685080
10
195.229981
20
160.985080
0
LWPOLYLINE
100
AcDbEntity
8
VISIBLE
6
CONTINUOUS
370
35
100
AcDbPolyline
90
2
70
0
10
192.691000
20
158.325080
10
192.691000
20
157.985080
0
LWPOLYLINE
100
AcDbEntity
8
VISIBLE
6
CONTINUOUS
370
35
100
AcDbPolyline
90
15
70
0
10
174.249000
20
158.325080
10
174.480190
20
158.325080
10
175.162166
20
158.325080
10
176.260732
20
158.325080
10
177.720801
20
158.325080
10
179.469158
20
158.325080
10
181.418134
20
158.325080
10
183.470000
20
158.325080
10
185.521866
20
158.325080
10
187.470842
20
158.325080
10
189.219199
20
158.325080
10
190.679268
20
158.325080
10
191.777834
20
158.325080
10
192.459810
20
158.325080
10
192.691000
20
158.325080
0
LWPOLYLINE
100
AcDbEntity
8
VISIBLE
6
CONTINUOUS
370
35
100
AcDbPolyline
90
2
70
0
10
174.249000
20
158.325080
10
174.249000
20
157.985080
0
LWPOLYLINE
100
AcDbEntity
8
VISIBLE
6
CONTINUOUS
370
35
100
AcDbPolyline
90
15
70
0
10
174.310470
20
142.985080
10
174.203914
20
142.985080
10
174.102695
20
142.985080
10
174.007371
20
142.985080
10
173.918469
20
142.985080
10
173.836479
20
142.985080
10
173.761855
20
142.985080
10
173.695008
20
142.985080
10
173.636309
20
142.985080
10
173.586080
20
142.985080
10
173.544601
20
142.985080
10
173.512098
20
142.985080
10
173.488754
20
142.985080
10
173.474695
20
142.985080
10
173.470000
20
142.985080
0
LWPOLYLINE
100
AcDbEntity
8
VISIBLE
6
CONTINUOUS
370
35
100
AcDbPolyline
90
15
70
0
10
193.470000
20
142.985080
10
193.466443
20
142.985080
10
193.455787
20
142.985080
10
193.438077
20
142.985080
10
193.413386
20
142.985080
10
193.381819
20
142.985080
10
193.343507
20
142.985080
10
193.298610
20
142.985080
10
193.247317
20
142.985080
10
193.189841
20
142.985080
10
193.126424
20
142.985080
10
193.057331
20
142.985080
10
192.982851
20
142.985080
10
192.903296
20
142.985080
10
192.818998
20
142.985080
0
LWPOLYLINE
100
AcDbEntity
8
VISIBLE
6
CONTINUOUS
370
35
100
AcDbPolyline
90
15
70
0
10
173.470000
20
142.985080
10
173.480689
20
142.985080
10
173.512623
20
142.985080
10
173.565398
20
142.985080
10
173.638353
20
142.985080
10
173.730569
20
142.985080
10
173.840886
20
142.985080
10
173.967918
20
142.985080
10
174.110067
20
142.985080
10
174.265545
20
142.985080
10
174.432398
20
142.985080
10
174.608526
20
142.985080
10
174.791714
20
142.985080
10
174.979660
20
142.985080
10
175.170000
20
142.985080
0
LWPOLYLINE
100
AcDbEntity
8
VISIBLE
6
CONTINUOUS
370
35
100
AcDbPolyline
90
6
70
0
10
173.070000
20
142.585080
10
173.089577
20
142.708687
10
173.146393
20
142.820194
10
173.234886
20
142.908687
10
173.346393
20
142.965503
10
173.470000
20
142.985080
0
LWPOLYLINE
100
AcDbEntity
8
VISIBLE
6
CONTINUOUS
370
35
100
AcDbPolyline
90
2
70
0
10
175.170000
20
142.985080
10
191.770000
20
142.985080
0
LWPOLYLINE
100
AcDbEntity
8
VISIBLE
6
CONTINUOUS
370
35
100
AcDbPolyline
90
6
70
0
10
193.470000
20
142.985080
10
193.593607
20
142.965503
10
193.705114
20
142.908687
10
193.793607
20
142.820194
10
193.850423
20
142.708687
10
193.870000
20
142.585080
0
LWPOLYLINE
100
AcDbEntity
8
VISIBLE
6
CONTINUOUS
370
35
100
AcDbPolyline
90
15
70
0
10
191.770000
20
142.985080
10
191.960340
20
142.985080
10
192.148286
20
142.985080
10
192.331474
20
142.985080
10
192.507602
20
142.985080
10
192.674455
20
142.985080
10
192.829933
20
142.985080
10
192.972082
20
142.985080
10
193.099114
20
142.985080
10
193.209431
20
142.985080
10
193.301647
20
142.985080
10
193.374602
20
142.985080
10
193.427377
20
142.985080
10
193.459311
20
142.985080
10
193.470000
20
142.985080
0
LWPOLYLINE
100
AcDbEntity
8
VISIBLE
6
CONTINUOUS
370
35
100
AcDbPolyline
90
6
70
0
10
173.070000
20
140.355080
10
173.089577
20
140.231473
10
173.146393
20
140.119966
10
173.234886
20
140.031473
10
173.346393
20
139.974657
10
173.470000
20
139.955080
0
LWPOLYLINE
100
AcDbEntity
8
VISIBLE
6
CONTINUOUS
370
35
100
AcDbPolyline
90
15
70
0
10
175.170000
20
139.955080
10
174.979660
20
139.955080
10
174.791714
20
139.955080
10
174.608526
20
139.955080
10
174.432398
20
139.955080
10
174.265545
20
139.955080
10
174.110067
20
139.955080
10
173.967918
20
139.955080
10
173.840886
20
139.955080
10
173.730569
20
139.955080
10
173.638353
20
139.955080
10
173.565398
20
139.955080
10
173.512623
20
139.955080
10
173.480689
20
139.955080
10
173.470000
20
139.955080
0
LWPOLYLINE
100
AcDbEntity
8
VISIBLE
6
CONTINUOUS
370
35
100
AcDbPolyline
90
2
70
0
10
191.770000
20
139.955080
10
175.170000
20
139.955080
0
LWPOLYLINE
100
AcDbEntity
8
VISIBLE
6
CONTINUOUS
370
35
100
AcDbPolyline
90
6
70
0
10
193.470000
20
139.955080
10
193.593607
20
139.974657
10
193.705114
20
140.031473
10
193.793607
20
140.119966
10
193.850423
20
140.231473
10
193.870000
20
140.355080
0
LWPOLYLINE
100
AcDbEntity
8
VISIBLE
6
CONTINUOUS
370
35
100
AcDbPolyline
90
15
70
0
10
193.470000
20
139.955080
10
193.459311
20
139.955080
10
193.427377
20
139.955080
10
193.374602
20
139.955080
10
193.301647
20
139.955080
10
193.209431
20
139.955080
10
193.099114
20
139.955080
10
192.972082
20
139.955080
10
192.829933
20
139.955080
10
192.674455
20
139.955080
10
192.507602
20
139.955080
10
192.331474
20
139.955080
10
192.148286
20
139.955080
10
191.960340
20
139.955080
10
191.770000
20
139.955080
0
LWPOLYLINE
100
AcDbEntity
8
VISIBLE
6
CONTINUOUS
370
35
100
AcDbPolyline
90
2
70
0
10
176.909937
20
143.221081
10
176.921749
20
143.257382
0
LWPOLYLINE
100
AcDbEntity
8
VISIBLE
6
CONTINUOUS
370
35
100
AcDbPolyline
90
2
70
0
10
190.029624
20
143.222260
10
190.030072
20
143.221057
0
LWPOLYLINE
100
AcDbEntity
8
VISIBLE
6
CONTINUOUS
370
35
100
AcDbPolyline
90
3
70
0
10
190.214253
20
143.012436
10
190.284533
20
142.989992
10
190.337654
20
142.985080
0
LWPOLYLINE
100
AcDbEntity
8
VISIBLE
6
CONTINUOUS
370
35
100
AcDbPolyline
90
6
70
0
10
175.953000
20
142.985080
10
176.076607
20
143.004657
10
176.188114
20
143.061473
10
176.276607
20
143.149966
10
176.333423
20
143.261473
10
176.353000
20
143.385080
0
LWPOLYLINE
100
AcDbEntity
8
VISIBLE
6
CONTINUOUS
370
35
100
AcDbPolyline
90
9
70
0
10
176.602346
20
142.985080
10
176.663851
20
142.991669
10
176.726903
20
143.012972
10
176.783356
20
143.046904
10
176.833781
20
143.093317
10
176.881106
20
143.159392
10
176.910042
20
143.221361
10
176.931614
20
143.300507
10
176.939101
20
143.385080
0
LWPOLYLINE
100
AcDbEntity
8
VISIBLE
6
CONTINUOUS
370
35
100
AcDbPolyline
90
9
70
0
10
181.859334
20
142.985080
10
181.907314
20
142.990079
10
181.973090
20
143.012972
10
182.028001
20
143.046901
10
182.079322
20
143.093317
10
182.128321
20
143.156916
10
182.162254
20
143.221361
10
182.187644
20
143.303118
10
182.196000
20
143.385080
0
LWPOLYLINE
100
AcDbEntity
8
VISIBLE
6
CONTINUOUS
370
35
100
AcDbPolyline
90
6
70
0
10
190.587000
20
143.385080
10
190.606577
20
143.261473
10
190.663393
20
143.149966
10
190.751886
20
143.061473
10
190.863393
20
143.004657
10
190.987000
20
142.985080
0
LWPOLYLINE
100
AcDbEntity
8
VISIBLE
6
CONTINUOUS
370
35
100
AcDbPolyline
90
9
70
0
10
190.000899
20
143.385080
10
190.008387
20
143.300504
10
190.029960
20
143.221356
10
190.063378
20
143.151668
10
190.106226
20
143.093310
10
190.156654
20
143.046897
10
190.213110
20
143.012966
10
190.276154
20
142.991690
10
190.337654
20
142.985080
0
LWPOLYLINE
100
AcDbEntity
8
VISIBLE
6
CONTINUOUS
370
35
100
AcDbPolyline
90
9
70
0
10
184.744000
20
143.385080
10
184.752359
20
143.303153
10
184.777748
20
143.221356
10
184.811678
20
143.156917
10
184.860685
20
143.093310
10
184.912009
20
143.046893
10
184.966922
20
143.012966
10
185.032688
20
142.990079
10
185.080666
20
142.985080
0
LWPOLYLINE
100
AcDbEntity
8
VISIBLE
6
CONTINUOUS
370
35
100
AcDbPolyline
90
2
70
0
10
167.390000
20
153.685080
10
166.940000
20
154.135080
0
LWPOLYLINE
100
AcDbEntity
8
VISIBLE
6
CONTINUOUS
370
35
100
AcDbPolyline
90
15
70
0
10
199.550000
20
153.685080
10
199.146841
20
153.685080
10
197.957579
20
153.685080
10
196.041850
20
153.685080
10
193.495716
20
153.685080
10
190.446851
20
153.685080
10
187.048137
20
153.685080
10
183.470000
20
153.685080
10
179.891863
20
153.685080
10
176.493149
20
153.685080
10
173.444284
20
153.685080
10
170.898150
20
153.685080
10
168.982421
20
153.685080
10
167.793159
20
153.685080
10
167.390000
20
153.685080
0
LWPOLYLINE
100
AcDbEntity
8
VISIBLE
6
CONTINUOUS
370
35
100
AcDbPolyline
90
2
70
0
10
199.550000
20
153.685080
10
200.000000
20
154.135080
0
LWPOLYLINE
100
AcDbEntity
8
VISIBLE
6
CONTINUOUS
370
35
100
AcDbPolyline
90
15
70
0
10
166.940000
20
154.135080
10
167.354442
20
154.135080
10
168.576985
20
154.135080
10
170.546326
20
154.135080
10
173.163714
20
154.135080
10
176.297902
20
154.135080
10
179.791729
20
154.135080
10
183.470000
20
154.135080
10
187.148271
20
154.135080
10
190.642098
20
154.135080
10
193.776286
20
154.135080
10
196.393674
20
154.135080
10
198.363015
20
154.135080
10
199.585558
20
154.135080
10
200.000000
20
154.135080
0
LWPOLYLINE
100
AcDbEntity
8
VISIBLE
6
CONTINUOUS
370
35
100
AcDbPolyline
90
2
70
0
10
199.550000
20
157.985080
10
200.000000
20
157.535080
0
LWPOLYLINE
100
AcDbEntity
8
VISIBLE
6
CONTINUOUS
370
35
100
AcDbPolyline
90
15
70
0
10
167.390000
20
157.985080
10
167.793159
20
157.985080
10
168.982421
20
157.985080
10
170.898150
20
157.985080
10
173.444284
20
157.985080
10
176.493149
20
157.985080
10
179.891863
20
157.985080
10
183.470000
20
157.985080
10
187.048137
20
157.985080
10
190.446851
20
157.985080
10
193.495716
20
157.985080
10
196.041850
20
157.985080
10
197.957579
20
157.985080
10
199.146841
20
157.985080
10
199.550000
20
157.985080
0
LWPOLYLINE
100
AcDbEntity
8
VISIBLE
6
CONTINUOUS
370
35
100
AcDbPolyline
90
2
70
0
10
167.390000
20
157.985080
10
166.940000
20
157.535080
0
LWPOLYLINE
100
AcDbEntity
8
VISIBLE
6
CONTINUOUS
370
35
100
AcDbPolyline
90
15
70
0
10
200.000000
20
157.535080
10
199.585558
20
157.535080
10
198.363015
20
157.535080
10
196.393674
20
157.535080
10
193.776286
20
157.535080
10
190.642098
20
157.535080
10
187.148271
20
157.535080
10
183.470000
20
157.535080
10
179.791729
20
157.535080
10
176.297902
20
157.535080
10
173.163714
20
157.535080
10
170.546326
20
157.535080
10
168.576985
20
157.535080
10
167.354442
20
157.535080
10
166.940000
20
157.535080
0
LWPOLYLINE
100
AcDbEntity
8
VISIBLE
6
CONTINUOUS
370
35
100
AcDbPolyline
90
2
70
0
10
175.120000
20
138.674920
10
175.120000
20
139.955080
0
LWPOLYLINE
100
AcDbEntity
8
VISIBLE
6
CONTINUOUS
370
35
100
AcDbPolyline
90
15
70
0
10
191.820000
20
138.674920
10
191.610648
20
138.674920
10
190.993090
20
138.674920
10
189.998293
20
138.674920
10
188.676140
20
138.674920
10
187.092929
20
138.674920
10
185.328050
20
138.674920
10
183.470000
20
138.674920
10
181.611950
20
138.674920
10
179.847071
20
138.674920
10
178.263860
20
138.674920
10
176.941707
20
138.674920
10
175.946910
20
138.674920
10
175.329352
20
138.674920
10
175.120000
20
138.674920
0
LWPOLYLINE
100
AcDbEntity
8
VISIBLE
6
CONTINUOUS
370
35
100
AcDbPolyline
90
2
70
0
10
191.820000
20
138.674920
10
191.820000
20
139.955080
0
LWPOLYLINE
100
AcDbEntity
8
VISIBLE
6
CONTINUOUS
370
35
100
AcDbPolyline
90
2
70
0
10
193.870000
20
140.355080
10
193.870000
20
142.585080
0
LWPOLYLINE
100
AcDbEntity
8
VISIBLE
6
CONTINUOUS
370
35
100
AcDbPolyline
90
2
70
0
10
173.070000
20
140.355080
10
173.070000
20
142.585080
0
LWPOLYLINE
100
AcDbEntity
8
VISIBLE
6
CONTINUOUS
370
35
100
AcDbPolyline
90
2
70
0
10
182.196000
20
153.685080
10
182.289291
20
153.680215
0
LWPOLYLINE
100
AcDbEntity
8
VISIBLE
6
CONTINUOUS
370
35
100
AcDbPolyline
90
4
70
0
10
182.196000
20
153.685080
10
182.198038
20
153.685078
10
182.255478
20
153.683110
10
182.289291
20
153.680215
0
LWPOLYLINE
100
AcDbEntity
8
VISIBLE
6
CONTINUOUS
370
35
100
AcDbPolyline
90
15
70
0
10
182.196000
20
152.469535
10
182.205726
20
152.469789
10
182.221898
20
152.470210
10
182.244339
20
152.470795
10
182.272801
20
152.471536
10
182.306972
20
152.472427
10
182.346477
20
152.473456
10
182.390882
20
152.474613
10
182.439699
20
152.475885
10
182.492392
20
152.477258
10
182.548383
20
152.478716
10
182.607056
20
152.480245
10
182.667767
20
152.481827
10
182.729850
20
152.483445
10
182.792622
20
152.485080
0
LWPOLYLINE
100
AcDbEntity
8
VISIBLE
6
CONTINUOUS
370
35
100
AcDbPolyline
90
9
70
0
10
182.289291
20
153.680215
10
182.409464
20
153.645553
10
182.501345
20
153.573275
10
182.579919
20
153.464153
10
182.648086
20
153.317760
10
182.704627
20
153.138637
10
182.747272
20
152.938014
10
182.776666
20
152.717814
10
182.792622
20
152.485080
0
LWPOLYLINE
100
AcDbEntity
8
VISIBLE
6
CONTINUOUS
370
35
100
AcDbPolyline
90
5
70
0
10
182.196000
20
152.469535
10
182.196000
20
153.347355
10
182.196000
20
153.598414
10
182.195936
20
153.668050
10
182.196000
20
153.685080
0
LWPOLYLINE
100
AcDbEntity
8
VISIBLE
6
CONTINUOUS
370
35
100
AcDbPolyline
90
2
70
0
10
182.792622
20
152.485080
10
182.795839
20
152.085080
0
LWPOLYLINE
100
AcDbEntity
8
VISIBLE
6
CONTINUOUS
370
35
100
AcDbPolyline
90
2
70
0
10
182.196000
20
152.085080
10
182.196000
20
152.469535
0
LWPOLYLINE
100
AcDbEntity
8
VISIBLE
6
CONTINUOUS
370
35
100
AcDbPolyline
90
2
70
0
10
182.196000
20
143.385080
10
182.196000
20
152.085080
0
LWPOLYLINE
100
AcDbEntity
8
VISIBLE
6
CONTINUOUS
370
35
100
AcDbPolyline
90
4
70
0
10
184.650709
20
153.680215
10
184.684522
20
153.683110
10
184.741962
20
153.685078
10
184.744000
20
153.685080
0
LWPOLYLINE
100
AcDbEntity
8
VISIBLE
6
CONTINUOUS
370
35
100
AcDbPolyline
90
2
70
0
10
184.650709
20
153.680215
10
184.744000
20
153.685080
0
LWPOLYLINE
100
AcDbEntity
8
VISIBLE
6
CONTINUOUS
370
35
100
AcDbPolyline
90
15
70
0
10
184.147378
20
152.485080
10
184.210150
20
152.483445
10
184.272233
20
152.481827
10
184.332944
20
152.480245
10
184.391617
20
152.478716
10
184.447608
20
152.477258
10
184.500301
20
152.475885
10
184.549118
20
152.474613
10
184.593523
20
152.473456
10
184.633028
20
152.472427
10
184.667199
20
152.471536
10
184.695661
20
152.470795
10
184.718102
20
152.470210
10
184.734274
20
152.469789
10
184.744000
20
152.469535
0
LWPOLYLINE
100
AcDbEntity
8
VISIBLE
6
CONTINUOUS
370
35
100
AcDbPolyline
90
5
70
0
10
184.744000
20
153.685080
10
184.744064
20
153.668040
10
184.744000
20
153.598342
10
184.744000
20
153.347184
10
184.744000
20
152.469535
0
LWPOLYLINE
100
AcDbEntity
8
VISIBLE
6
CONTINUOUS
370
35
100
AcDbPolyline
90
9
70
0
10
184.147378
20
152.485080
10
184.163333
20
152.717857
10
184.192728
20
152.938014
10
184.235369
20
153.138625
10
184.291914
20
153.317760
10
184.360076
20
153.464144
10
184.438655
20
153.573275
10
184.530536
20
153.645553
10
184.650709
20
153.680215
0
LWPOLYLINE
100
AcDbEntity
8
VISIBLE
6
CONTINUOUS
370
35
100
AcDbPolyline
90
2
70
0
10
184.744000
20
152.469535
10
184.744000
20
152.085080
0
LWPOLYLINE
100
AcDbEntity
8
VISIBLE
6
CONTINUOUS
370
35
100
AcDbPolyline
90
2
70
0
10
184.144161
20
152.085080
10
184.147378
20
152.485080
0
LWPOLYLINE
100
AcDbEntity
8
VISIBLE
6
CONTINUOUS
370
35
100
AcDbPolyline
90
2
70
0
10
184.744000
20
152.085080
10
184.744000
20
143.385080
0
LWPOLYLINE
100
AcDbEntity
8
VISIBLE
6
CONTINUOUS
370
35
100
AcDbPolyline
90
2
70
0
10
191.625087
20
153.685080
10
191.679058
20
153.680215
0
LWPOLYLINE
100
AcDbEntity
8
VISIBLE
6
CONTINUOUS
370
35
100
AcDbPolyline
90
4
70
0
10
191.787000
20
153.685080
10
191.784646
20
153.685078
10
191.718264
20
153.683110
10
191.679058
20
153.680215
0
LWPOLYLINE
100
AcDbEntity
8
VISIBLE
6
CONTINUOUS
370
35
100
AcDbPolyline
90
5
70
0
10
190.048652
20
152.469535
10
190.432528
20
152.474613
10
190.547052
20
152.479473
10
190.576929
20
152.482229
10
190.587000
20
152.485080
0
LWPOLYLINE
100
AcDbEntity
8
VISIBLE
6
CONTINUOUS
370
35
100
AcDbPolyline
90
9
70
0
10
191.679058
20
153.680215
10
191.481546
20
153.645553
10
191.281201
20
153.573275
10
191.093158
20
153.464153
10
190.922914
20
153.317760
10
190.780589
20
153.138637
10
190.675762
20
152.938014
10
190.609855
20
152.717814
10
190.587000
20
152.485080
0
LWPOLYLINE
100
AcDbEntity
8
VISIBLE
6
CONTINUOUS
370
35
100
AcDbPolyline
90
11
70
0
10
190.048652
20
152.469535
10
190.132530
20
152.715044
10
190.264304
20
152.957409
10
190.417886
20
153.154296
10
190.515523
20
153.252417
10
190.628324
20
153.347355
10
190.853862
20
153.492497
10
191.098913
20
153.598414
10
191.250102
20
153.641660
10
191.389346
20
153.668050
10
191.625087
20
153.685080
0
LWPOLYLINE
100
AcDbEntity
8
VISIBLE
6
CONTINUOUS
370
35
100
AcDbPolyline
90
2
70
0
10
190.587000
20
152.485080
10
190.587000
20
152.085080
0
LWPOLYLINE
100
AcDbEntity
8
VISIBLE
6
CONTINUOUS
370
35
100
AcDbPolyline
90
3
70
0
10
190.000899
20
152.085080
10
190.012753
20
152.277568
10
190.048652
20
152.469535
0
LWPOLYLINE
100
AcDbEntity
8
VISIBLE
6
CONTINUOUS
370
35
100
AcDbPolyline
90
2
70
0
10
190.000899
20
143.385080
10
190.000899
20
152.085080
0
LWPOLYLINE
100
AcDbEntity
8
VISIBLE
6
CONTINUOUS
370
35
100
AcDbPolyline
90
2
70
0
10
190.587000
20
152.085080
10
190.587000
20
143.385080
0
LWPOLYLINE
100
AcDbEntity
8
VISIBLE
6
CONTINUOUS
370
35
100
AcDbPolyline
90
3
70
0
10
191.682714
20
153.680540
10
191.718264
20
153.683110
10
191.761128
20
153.684801
0
LWPOLYLINE
100
AcDbEntity
8
VISIBLE
6
CONTINUOUS
370
35
100
AcDbPolyline
90
3
70
0
10
191.784646
20
153.685078
10
191.784646
20
153.685078
10
191.787000
20
153.685080
0
LWPOLYLINE
100
AcDbEntity
8
VISIBLE
6
CONTINUOUS
370
35
100
AcDbPolyline
90
2
70
0
10
190.853833
20
153.492481
10
190.853052
20
153.492065
0
LWPOLYLINE
100
AcDbEntity
8
VISIBLE
6
CONTINUOUS
370
35
100
AcDbPolyline
90
2
70
0
10
190.412892
20
153.148802
10
190.266167
20
152.960217
0
LWPOLYLINE
100
AcDbEntity
8
VISIBLE
6
CONTINUOUS
370
35
100
AcDbPolyline
90
2
70
0
10
190.263955
20
152.956880
10
190.261817
20
152.953639
0
LWPOLYLINE
100
AcDbEntity
8
VISIBLE
6
CONTINUOUS
370
35
100
AcDbPolyline
90
3
70
0
10
190.587000
20
152.485080
10
190.609627
20
152.717012
10
190.675131
20
152.936464
0
LWPOLYLINE
100
AcDbEntity
8
VISIBLE
6
CONTINUOUS
370
35
100
AcDbPolyline
90
5
70
0
10
190.676271
20
152.939261
10
190.750385
20
153.089583
10
190.845553
20
153.229175
10
190.959856
20
153.354464
10
191.087701
20
153.460263
0
LWPOLYLINE
100
AcDbEntity
8
VISIBLE
6
CONTINUOUS
370
35
100
AcDbPolyline
90
2
70
0
10
191.280497
20
153.572947
10
191.476171
20
153.644125
0
LWPOLYLINE
100
AcDbEntity
8
VISIBLE
6
CONTINUOUS
370
35
100
AcDbPolyline
90
4
70
0
10
175.260942
20
153.680215
10
175.221736
20
153.683110
10
175.155354
20
153.685078
10
175.153000
20
153.685080
0
LWPOLYLINE
100
AcDbEntity
8
VISIBLE
6
CONTINUOUS
370
35
100
AcDbPolyline
90
2
70
0
10
175.260942
20
153.680215
10
175.314913
20
153.685080
0
LWPOLYLINE
100
AcDbEntity
8
VISIBLE
6
CONTINUOUS
370
35
100
AcDbPolyline
90
5
70
0
10
176.353000
20
152.485080
10
176.363071
20
152.482229
10
176.392948
20
152.479473
10
176.507472
20
152.474613
10
176.891348
20
152.469535
0
LWPOLYLINE
100
AcDbEntity
8
VISIBLE
6
CONTINUOUS
370
35
100
AcDbPolyline
90
11
70
0
10
175.314913
20
153.685080
10
175.550725
20
153.668040
10
175.689998
20
153.641623
10
175.841300
20
153.598342
10
176.086927
20
153.492076
10
176.311899
20
153.347184
10
176.424637
20
153.252272
10
176.522246
20
153.154151
10
176.675783
20
152.957277
10
176.807428
20
152.715069
10
176.891348
20
152.469535
0
LWPOLYLINE
100
AcDbEntity
8
VISIBLE
6
CONTINUOUS
370
35
100
AcDbPolyline
90
9
70
0
10
176.353000
20
152.485080
10
176.330206
20
152.717857
10
176.264238
20
152.938014
10
176.159419
20
153.138625
10
176.017086
20
153.317760
10
175.846854
20
153.464144
10
175.658799
20
153.573275
10
175.458454
20
153.645553
10
175.260942
20
153.680215
0
LWPOLYLINE
100
AcDbEntity
8
VISIBLE
6
CONTINUOUS
370
35
100
AcDbPolyline
90
3
70
0
10
176.891348
20
152.469535
10
176.927247
20
152.277568
10
176.939101
20
152.085080
0
LWPOLYLINE
100
AcDbEntity
8
VISIBLE
6
CONTINUOUS
370
35
100
AcDbPolyline
90
2
70
0
10
176.353000
20
152.085080
10
176.353000
20
152.485080
0
LWPOLYLINE
100
AcDbEntity
8
VISIBLE
6
CONTINUOUS
370
35
100
AcDbPolyline
90
2
70
0
10
176.353000
20
143.385080
10
176.353000
20
152.085080
0
LWPOLYLINE
100
AcDbEntity
8
VISIBLE
6
CONTINUOUS
370
35
100
AcDbPolyline
90
2
70
0
10
176.939101
20
152.085080
10
176.939101
20
143.385080
0
LWPOLYLINE
100
AcDbEntity
8
VISIBLE
6
CONTINUOUS
370
35
100
AcDbPolyline
90
3
70
0
10
175.157348
20
153.685072
10
175.221736
20
153.683110
10
175.258479
20
153.680435
0
LWPOLYLINE
100
AcDbEntity
8
VISIBLE
6
CONTINUOUS
370
35
100
AcDbPolyline
90
2
70
0
10
175.260942
20
153.680215
10
175.458062
20
153.645656
0
LWPOLYLINE
100
AcDbEntity
8
VISIBLE
6
CONTINUOUS
370
35
100
AcDbPolyline
90
9
70
0
10
175.458976
20
153.645416
10
175.580101
20
153.606501
10
175.707168
20
153.549455
10
175.824082
20
153.479891
10
175.934484
20
153.395729
10
176.036424
20
153.297213
10
176.126745
20
153.186375
10
176.202787
20
153.066413
10
176.263756
20
152.939196
0
LWPOLYLINE
100
AcDbEntity
8
VISIBLE
6
CONTINUOUS
370
35
100
AcDbPolyline
90
3
70
0
10
176.265582
20
152.934704
10
176.330497
20
152.716030
10
176.353000
20
152.485080
0
LWPOLYLINE
100
AcDbEntity
8
VISIBLE
6
CONTINUOUS
370
35
100
AcDbPolyline
90
3
70
0
10
176.891345
20
152.469547
10
176.808675
20
152.712275
10
176.679231
20
152.952043
0
LWPOLYLINE
100
AcDbEntity
8
VISIBLE
6
CONTINUOUS
370
35
100
AcDbPolyline
90
2
70
0
10
176.516264
20
153.160667
10
176.315862
20
153.344134
0
LWPOLYLINE
100
AcDbEntity
8
VISIBLE
6
CONTINUOUS
370
35
100
AcDbPolyline
90
2
70
0
10
175.841541
20
153.598260
10
175.839063
20
153.599098
0
LWPOLYLINE
100
AcDbEntity
8
VISIBLE
6
CONTINUOUS
370
35
100
AcDbPolyline
90
2
70
0
10
200.000000
20
157.535080
10
200.000000
20
154.135080
0
LWPOLYLINE
100
AcDbEntity
8
VISIBLE
6
CONTINUOUS
370
35
100
AcDbPolyline
90
2
70
0
10
166.940000
20
157.535080
10
166.940000
20
154.135080
0
LWPOLYLINE
100
AcDbEntity
8
VISIBLE
6
CONTINUOUS
370
35
100
AcDbPolyline
90
2
70
0
10
182.196000
20
153.685080
10
182.196014
20
153.685080
0
LWPOLYLINE
100
AcDbEntity
8
VISIBLE
6
CONTINUOUS
370
35
100
AcDbPolyline
90
2
70
0
10
191.679058
20
153.680215
10
191.787000
20
153.685080
0
LWPOLYLINE
100
AcDbEntity
8
VISIBLE
6
CONTINUOUS
370
35
100
AcDbPolyline
90
2
70
0
10
175.153000
20
153.685080
10
175.153224
20
153.685080
0
LWPOLYLINE
100
AcDbEntity
8
VISIBLE
6
CONTINUOUS
370
35
100
AcDbPolyline
90
2
70
0
10
175.153000
20
153.685080
10
175.260942
20
153.680215
0
LWPOLYLINE
100
AcDbEntity
8
CENTER
6
CENTER
370
18
100
AcDbPolyline
90
2
70
0
10
236.458299
20
150.685080
10
236.458299
20
160.985080
0
LWPOLYLINE
100
AcDbEntity
8
CENTER
6
CENTER
370
18
100
AcDbPolyline
90
2
70
0
10
228.325189
20
136.955080
10
228.325189
20
145.985080
0
LWPOLYLINE
100
AcDbEntity
8
CENTER
6
CENTER
370
18
100
AcDbPolyline
90
2
70
0
10
244.597330
20
136.955080
10
244.597330
20
145.985080
0
LWPOLYLINE
100
AcDbEntity
8
CENTER
6
CENTER
370
18
100
AcDbPolyline
90
2
70
0
10
248.289981
20
150.685080
10
248.289981
20
160.985080
0
LWPOLYLINE
100
AcDbEntity
8
CENTER
6
CENTER
370
18
100
AcDbPolyline
90
2
70
0
10
236.530000
20
135.674920
10
236.530000
20
161.325080
0
LWPOLYLINE
100
AcDbEntity
8
CENTER
6
CENTER
370
18
100
AcDbPolyline
90
2
70
0
10
224.770019
20
150.685080
10
224.770019
20
160.985080
0
LWPOLYLINE
100
AcDbEntity
8
CENTER
6
CENTER
370
18
100
AcDbPolyline
90
2
70
0
10
228.273202
20
136.955080
10
228.273202
20
145.985080
0
LWPOLYLINE
100
AcDbEntity
8
CENTER
6
CENTER
370
18
100
AcDbPolyline
90
2
70
0
10
244.545343
20
136.955080
10
244.545343
20
145.985080
0
LWPOLYLINE
100
AcDbEntity
8
CENTER
6
CENTER
370
18
100
AcDbPolyline
90
2
70
0
10
236.601701
20
150.685080
10
236.601701
20
160.985080
0
LWPOLYLINE
100
AcDbEntity
8
VISIBLE
6
CONTINUOUS
370
35
100
AcDbPolyline
90
15
70
0
10
236.530000
20
158.325080
10
237.562424
20
158.325080
10
238.581866
20
158.325080
10
239.575503
20
158.325080
10
240.530842
20
158.325080
10
241.435868
20
158.325080
10
242.279199
20
158.325080
10
243.050232
20
158.325080
10
243.739268
20
158.325080
10
244.337644
20
158.325080
10
244.837834
20
158.325080
10
245.233548
20
158.325080
10
245.519810
20
158.325080
10
245.693020
20
158.325080
10
245.751000
20
158.325080
0
LWPOLYLINE
100
AcDbEntity
8
VISIBLE
6
CONTINUOUS
370
35
100
AcDbPolyline
90
15
70
0
10
227.309000
20
158.325080
10
227.366980
20
158.325080
10
227.540190
20
158.325080
10
227.826452
20
158.325080
10
228.222166
20
158.325080
10
228.722356
20
158.325080
10
229.320732
20
158.325080
10
230.009768
20
158.325080
10
230.780801
20
158.325080
10
231.624132
20
158.325080
10
232.529158
20
158.325080
10
233.484497
20
158.325080
10
234.478134
20
158.325080
10
235.497576
20
158.325080
10
236.530000
20
158.325080
0
LWPOLYLINE
100
AcDbEntity
8
VISIBLE
6
CONTINUOUS
370
35
100
AcDbPolyline
90
15
70
0
10
226.530000
20
142.985080
10
226.540689
20
142.985080
10
226.572623
20
142.985080
10
226.625398
20
142.985080
10
226.698353
20
142.985080
10
226.790569
20
142.985080
10
226.900886
20
142.985080
10
227.027918
20
142.985080
10
227.170067
20
142.985080
10
227.325545
20
142.985080
10
227.492398
20
142.985080
10
227.668526
20
142.985080
10
227.851714
20
142.985080
10
228.039660
20
142.985080
10
228.230000
20
142.985080
0
LWPOLYLINE
100
AcDbEntity
8
VISIBLE
6
CONTINUOUS
370
35
100
AcDbPolyline
90
6
70
0
10
226.530000
20
142.985080
10
226.406393
20
142.965503
10
226.294886
20
142.908687
10
226.206393
20
142.820194
10
226.149577
20
142.708687
10
226.130000
20
142.585080
0
LWPOLYLINE
100
AcDbEntity
8
VISIBLE
6
CONTINUOUS
370
35
100
AcDbPolyline
90
2
70
0
10
228.230000
20
142.985080
10
244.830000
20
142.985080
0
LWPOLYLINE
100
AcDbEntity
8
VISIBLE
6
CONTINUOUS
370
35
100
AcDbPolyline
90
15
70
0
10
227.181002
20
142.985080
10
227.096704
20
142.985080
10
227.017149
20
142.985080
10
226.942669
20
142.985080
10
226.873576
20
142.985080
10
226.810159
20
142.985080
10
226.752683
20
142.985080
10
226.701390
20
142.985080
10
226.656493
20
142.985080
10
226.618181
20
142.985080
10
226.586614
20
142.985080
10
226.561923
20
142.985080
10
226.544213
20
142.985080
10
226.533557
20
142.985080
10
226.530000
20
142.985080
0
LWPOLYLINE
100
AcDbEntity
8
VISIBLE
6
CONTINUOUS
370
35
100
AcDbPolyline
90
6
70
0
10
246.930000
20
142.585080
10
246.910423
20
142.708687
10
246.853607
20
142.820194
10
246.765114
20
142.908687
10
246.653607
20
142.965503
10
246.530000
20
142.985080
0
LWPOLYLINE
100
AcDbEntity
8
VISIBLE
6
CONTINUOUS
370
35
100
AcDbPolyline
90
15
70
0
10
244.830000
20
142.985080
10
245.020340
20
142.985080
10
245.208286
20
142.985080
10
245.391474
20
142.985080
10
245.567602
20
142.985080
10
245.734455
20
142.985080
10
245.889933
20
142.985080
10
246.032082
20
142.985080
10
246.159114
20
142.985080
10
246.269431
20
142.985080
10
246.361647
20
142.985080
10
246.434602
20
142.985080
10
246.487377
20
142.985080
10
246.519311
20
142.985080
10
246.530000
20
142.985080
0
LWPOLYLINE
100
AcDbEntity
8
VISIBLE
6
CONTINUOUS
370
35
100
AcDbPolyline
90
15
70
0
10
246.530000
20
142.985080
10
246.525305
20
142.985080
10
246.511246
20
142.985080
10
246.487902
20
142.985080
10
246.455399
20
142.985080
10
246.413920
20
142.985080
10
246.363691
20
142.985080
10
246.304992
20
142.985080
10
246.238145
20
142.985080
10
246.163521
20
142.985080
10
246.081531
20
142.985080
10
245.992629
20
142.985080
10
245.897305
20
142.985080
10
245.796086
20
142.985080
10
245.689530
20
142.985080
0
LWPOLYLINE
100
AcDbEntity
8
VISIBLE
6
CONTINUOUS
370
35
100
AcDbPolyline
90
6
70
0
10
246.530000
20
139.955080
10
246.653607
20
139.974657
10
246.765114
20
140.031473
10
246.853607
20
140.119966
10
246.910423
20
140.231473
10
246.930000
20
140.355080
0
LWPOLYLINE
100
AcDbEntity
8
VISIBLE
6
CONTINUOUS
370
35
100
AcDbPolyline
90
15
70
0
10
246.530000
20
139.955080
10
246.519311
20
139.955080
10
246.487377
20
139.955080
10
246.434602
20
139.955080
10
246.361647
20
139.955080
10
246.269431
20
139.955080
10
246.159114
20
139.955080
10
246.032082
20
139.955080
10
245.889933
20
139.955080
10
245.734455
20
139.955080
10
245.567602
20
139.955080
10
245.391474
20
139.955080
10
245.208286
20
139.955080
10
245.020340
20
139.955080
10
244.830000
20
139.955080
0
LWPOLYLINE
100
AcDbEntity
8
VISIBLE
6
CONTINUOUS
370
35
100
AcDbPolyline
90
2
70
0
10
244.830000
20
139.955080
10
228.230000
20
139.955080
0
LWPOLYLINE
100
AcDbEntity
8
VISIBLE
6
CONTINUOUS
370
35
100
AcDbPolyline
90
6
70
0
10
226.130000
20
140.355080
10
226.149577
20
140.231473
10
226.206393
20
140.119966
10
226.294886
20
140.031473
10
226.406393
20
139.974657
10
226.530000
20
139.955080
0
LWPOLYLINE
100
AcDbEntity
8
VISIBLE
6
CONTINUOUS
370
35
100
AcDbPolyline
90
15
70
0
10
228.230000
20
139.955080
10
228.039660
20
139.955080
10
227.851714
20
139.955080
10
227.668526
20
139.955080
10
227.492398
20
139.955080
10
227.325545
20
139.955080
10
227.170067
20
139.955080
10
227.027918
20
139.955080
10
226.900886
20
139.955080
10
226.790569
20
139.955080
10
226.698353
20
139.955080
10
226.625398
20
139.955080
10
226.572623
20
139.955080
10
226.540689
20
139.955080
10
226.530000
20
139.955080
0
LWPOLYLINE
100
AcDbEntity
8
VISIBLE
6
CONTINUOUS
370
35
100
AcDbPolyline
90
6
70
0
10
229.413000
20
143.385080
10
229.393423
20
143.261473
10
229.336607
20
143.149966
10
229.248114
20
143.061473
10
229.136607
20
143.004657
10
229.013000
20
142.985080
0
LWPOLYLINE
100
AcDbEntity
8
VISIBLE
6
CONTINUOUS
370
35
100
AcDbPolyline
90
9
70
0
10
229.662346
20
142.985080
10
229.723851
20
142.991669
10
229.786903
20
143.012972
10
229.843356
20
143.046904
10
229.893781
20
143.093317
10
229.941106
20
143.159392
10
229.970042
20
143.221361
10
229.991614
20
143.300507
10
229.999101
20
143.385080
0
LWPOLYLINE
100
AcDbEntity
8
VISIBLE
6
CONTINUOUS
370
35
100
AcDbPolyline
90
9
70
0
10
234.919334
20
142.985080
10
234.967314
20
142.990079
10
235.033090
20
143.012972
10
235.088001
20
143.046901
10
235.139322
20
143.093317
10
235.188321
20
143.156916
10
235.222254
20
143.221361
10
235.247644
20
143.303118
10
235.256000
20
143.385080
0
LWPOLYLINE
100
AcDbEntity
8
VISIBLE
6
CONTINUOUS
370
35
100
AcDbPolyline
90
2
70
0
10
229.990102
20
143.292476
10
229.982491
20
143.260070
0
LWPOLYLINE
100
AcDbEntity
8
VISIBLE
6
CONTINUOUS
370
35
100
AcDbPolyline
90
2
70
0
10
229.969541
20
143.220024
10
229.933873
20
143.147154
0
LWPOLYLINE
100
AcDbEntity
8
VISIBLE
6
CONTINUOUS
370
35
100
AcDbPolyline
90
2
70
0
10
229.786701
20
143.012878
10
229.783678
20
143.011491
0
LWPOLYLINE
100
AcDbEntity
8
VISIBLE
6
CONTINUOUS
370
35
100
AcDbPolyline
90
9
70
0
10
238.140666
20
142.985080
10
238.085644
20
142.991669
10
238.026910
20
143.012972
10
237.972016
20
143.046904
10
237.920678
20
143.093317
10
237.870041
20
143.159392
10
237.837746
20
143.221361
10
237.812828
20
143.300507
10
237.804000
20
143.385080
0
LWPOLYLINE
100
AcDbEntity
8
VISIBLE
6
CONTINUOUS
370
35
100
AcDbPolyline
90
9
70
0
10
243.397654
20
142.985080
10
243.344066
20
142.990079
10
243.273097
20
143.012972
10
243.216658
20
143.046901
10
243.166219
20
143.093317
10
243.120269
20
143.156916
10
243.089958
20
143.221361
10
243.067946
20
143.303118
10
243.060899
20
143.385080
0
LWPOLYLINE
100
AcDbEntity
8
VISIBLE
6
CONTINUOUS
370
35
100
AcDbPolyline
90
6
70
0
10
244.047000
20
142.985080
10
243.923393
20
143.004657
10
243.811886
20
143.061473
10
243.723393
20
143.149966
10
243.666577
20
143.261473
10
243.647000
20
143.385080
0
LWPOLYLINE
100
AcDbEntity
8
VISIBLE
6
CONTINUOUS
370
35
100
AcDbPolyline
90
2
70
0
10
243.089856
20
143.221636
10
243.120218
20
143.157005
0
LWPOLYLINE
100
AcDbEntity
8
VISIBLE
6
CONTINUOUS
370
35
100
AcDbPolyline
90
2
70
0
10
243.164616
20
143.095123
10
243.166058
20
143.093498
0
LWPOLYLINE
100
AcDbEntity
8
VISIBLE
6
CONTINUOUS
370
35
100
AcDbPolyline
90
2
70
0
10
243.188821
20
143.070222
10
243.217528
20
143.046250
0
LWPOLYLINE
100
AcDbEntity
8
VISIBLE
6
CONTINUOUS
370
35
100
AcDbPolyline
90
2
70
0
10
243.273416
20
143.012824
10
243.285578
20
143.007485
0
LWPOLYLINE
100
AcDbEntity
8
VISIBLE
6
CONTINUOUS
370
35
100
AcDbPolyline
90
15
70
0
10
252.610000
20
153.685080
10
252.508892
20
153.685080
10
252.206841
20
153.685080
10
251.707644
20
153.685080
10
251.017579
20
153.685080
10
250.145325
20
153.685080
10
249.101850
20
153.685080
10
247.900277
20
153.685080
10
246.555716
20
153.685080
10
245.085076
20
153.685080
10
243.506851
20
153.685080
10
241.840887
20
153.685080
10
240.108137
20
153.685080
10
238.330389
20
153.685080
10
236.530000
20
153.685080
0
LWPOLYLINE
100
AcDbEntity
8
VISIBLE
6
CONTINUOUS
370
35
100
AcDbPolyline
90
15
70
0
10
236.530000
20
154.135080
10
238.380773
20
154.135080
10
240.208271
20
154.135080
10
241.989513
20
154.135080
10
243.702098
20
154.135080
10
245.324490
20
154.135080
10
246.836286
20
154.135080
10
248.218475
20
154.135080
10
249.453674
20
154.135080
10
250.526351
20
154.135080
10
251.423015
20
154.135080
10
252.132391
20
154.135080
10
252.645558
20
154.135080
10
252.956063
20
154.135080
10
253.060000
20
154.135080
0
LWPOLYLINE
100
AcDbEntity
8
VISIBLE
6
CONTINUOUS
370
35
100
AcDbPolyline
90
15
70
0
10
236.530000
20
157.985080
10
238.330389
20
157.985080
10
240.108137
20
157.985080
10
241.840887
20
157.985080
10
243.506851
20
157.985080
10
245.085076
20
157.985080
10
246.555716
20
157.985080
10
247.900277
20
157.985080
10
249.101850
20
157.985080
10
250.145325
20
157.985080
10
251.017579
20
157.985080
10
251.707644
20
157.985080
10
252.206841
20
157.985080
10
252.508892
20
157.985080
10
252.610000
20
157.985080
0
LWPOLYLINE
100
AcDbEntity
8
VISIBLE
6
CONTINUOUS
370
35
100
AcDbPolyline
90
15
70
0
10
253.060000
20
157.535080
10
252.956063
20
157.535080
10
252.645558
20
157.535080
10
252.132391
20
157.535080
10
251.423015
20
157.535080
10
250.526351
20
157.535080
10
249.453674
20
157.535080
10
248.218475
20
157.535080
10
246.836286
20
157.535080
10
245.324490
20
157.535080
10
243.702098
20
157.535080
10
241.989513
20
157.535080
10
240.208271
20
157.535080
10
238.380773
20
157.535080
10
236.530000
20
157.535080
0
LWPOLYLINE
100
AcDbEntity
8
VISIBLE
6
CONTINUOUS
370
35
100
AcDbPolyline
90
15
70
0
10
244.880000
20
138.674920
10
244.827497
20
138.674920
10
244.670648
20
138.674920
10
244.411426
20
138.674920
10
244.053090
20
138.674920
10
243.600147
20
138.674920
10
243.058293
20
138.674920
10
242.434342
20
138.674920
10
241.736140
20
138.674920
10
240.972468
20
138.674920
10
240.152929
20
138.674920
10
239.287830
20
138.674920
10
238.388050
20
138.674920
10
237.464903
20
138.674920
10
236.530000
20
138.674920
0
LWPOLYLINE
100
AcDbEntity
8
VISIBLE
6
CONTINUOUS
370
35
100
AcDbPolyline
90
15
70
0
10
236.530000
20
138.674920
10
235.595097
20
138.674920
10
234.671950
20
138.674920
10
233.772170
20
138.674920
10
232.907071
20
138.674920
10
232.087532
20
138.674920
10
231.323860
20
138.674920
10
230.625658
20
138.674920
10
230.001707
20
138.674920
10
229.459853
20
138.674920
10
229.006910
20
138.674920
10
228.648574
20
138.674920
10
228.389352
20
138.674920
10
228.232503
20
138.674920
10
228.180000
20
138.674920
0
LWPOLYLINE
100
AcDbEntity
8
VISIBLE
6
CONTINUOUS
370
35
100
AcDbPolyline
90
2
70
0
10
246.930000
20
140.355080
10
246.930000
20
142.585080
0
LWPOLYLINE
100
AcDbEntity
8
VISIBLE
6
CONTINUOUS
370
35
100
AcDbPolyline
90
2
70
0
10
226.130000
20
140.355080
10
226.130000
20
142.585080
0
LWPOLYLINE
100
AcDbEntity
8
VISIBLE
6
CONTINUOUS
370
35
100
AcDbPolyline
90
15
70
0
10
244.830000
20
142.985080
10
244.932116
20
142.985080
10
245.031094
20
142.985080
10
245.126004
20
142.985080
10
245.215958
20
142.985080
10
245.300112
20
142.985080
10
245.377676
20
142.985080
10
245.447925
20
142.985080
10
245.510199
20
142.985080
10
245.563913
20
142.985080
10
245.608566
20
142.985080
10
245.643737
20
142.985080
10
245.669098
20
142.985080
10
245.684410
20
142.985080
10
245.689530
20
142.985080
0
LWPOLYLINE
100
AcDbEntity
8
VISIBLE
6
CONTINUOUS
370
35
100
AcDbPolyline
90
2
70
0
10
244.685087
20
153.685080
10
244.739058
20
153.680215
0
LWPOLYLINE
100
AcDbEntity
8
VISIBLE
6
CONTINUOUS
370
35
100
AcDbPolyline
90
4
70
0
10
244.847000
20
153.685080
10
244.844646
20
153.685078
10
244.778264
20
153.683110
10
244.739058
20
153.680215
0
LWPOLYLINE
100
AcDbEntity
8
VISIBLE
6
CONTINUOUS
370
35
100
AcDbPolyline
90
5
70
0
10
243.108652
20
152.469535
10
243.492528
20
152.474613
10
243.607052
20
152.479473
10
243.636929
20
152.482229
10
243.647000
20
152.485080
0
LWPOLYLINE
100
AcDbEntity
8
VISIBLE
6
CONTINUOUS
370
35
100
AcDbPolyline
90
9
70
0
10
244.739058
20
153.680215
10
244.541546
20
153.645553
10
244.341201
20
153.573275
10
244.153158
20
153.464153
10
243.982914
20
153.317760
10
243.840589
20
153.138637
10
243.735762
20
152.938014
10
243.669855
20
152.717814
10
243.647000
20
152.485080
0
LWPOLYLINE
100
AcDbEntity
8
VISIBLE
6
CONTINUOUS
370
35
100
AcDbPolyline
90
11
70
0
10
243.108652
20
152.469535
10
243.192530
20
152.715044
10
243.324304
20
152.957409
10
243.477886
20
153.154296
10
243.575523
20
153.252417
10
243.688324
20
153.347355
10
243.913862
20
153.492497
10
244.158913
20
153.598414
10
244.310102
20
153.641660
10
244.449346
20
153.668050
10
244.685087
20
153.685080
0
LWPOLYLINE
100
AcDbEntity
8
VISIBLE
6
CONTINUOUS
370
35
100
AcDbPolyline
90
2
70
0
10
243.647000
20
152.485080
10
243.647000
20
152.085080
0
LWPOLYLINE
100
AcDbEntity
8
VISIBLE
6
CONTINUOUS
370
35
100
AcDbPolyline
90
3
70
0
10
243.060899
20
152.085080
10
243.072753
20
152.277568
10
243.108652
20
152.469535
0
LWPOLYLINE
100
AcDbEntity
8
VISIBLE
6
CONTINUOUS
370
35
100
AcDbPolyline
90
2
70
0
10
243.060899
20
143.385080
10
243.060899
20
152.085080
0
LWPOLYLINE
100
AcDbEntity
8
VISIBLE
6
CONTINUOUS
370
35
100
AcDbPolyline
90
2
70
0
10
243.647000
20
152.085080
10
243.647000
20
143.385080
0
LWPOLYLINE
100
AcDbEntity
8
VISIBLE
6
CONTINUOUS
370
35
100
AcDbPolyline
90
3
70
0
10
244.742714
20
153.680540
10
244.778264
20
153.683110
10
244.821128
20
153.684801
0
LWPOLYLINE
100
AcDbEntity
8
VISIBLE
6
CONTINUOUS
370
35
100
AcDbPolyline
90
2
70
0
10
243.913833
20
153.492481
10
243.913052
20
153.492065
0
LWPOLYLINE
100
AcDbEntity
8
VISIBLE
6
CONTINUOUS
370
35
100
AcDbPolyline
90
2
70
0
10
243.472892
20
153.148802
10
243.326167
20
152.960217
0
LWPOLYLINE
100
AcDbEntity
8
VISIBLE
6
CONTINUOUS
370
35
100
AcDbPolyline
90
2
70
0
10
243.323955
20
152.956880
10
243.321817
20
152.953639
0
LWPOLYLINE
100
AcDbEntity
8
VISIBLE
6
CONTINUOUS
370
35
100
AcDbPolyline
90
3
70
0
10
243.647000
20
152.485080
10
243.669627
20
152.717012
10
243.735131
20
152.936464
0
LWPOLYLINE
100
AcDbEntity
8
VISIBLE
6
CONTINUOUS
370
35
100
AcDbPolyline
90
5
70
0
10
243.736271
20
152.939261
10
243.810385
20
153.089583
10
243.905553
20
153.229175
10
244.019856
20
153.354464
10
244.147701
20
153.460263
0
LWPOLYLINE
100
AcDbEntity
8
VISIBLE
6
CONTINUOUS
370
35
100
AcDbPolyline
90
2
70
0
10
244.340497
20
153.572947
10
244.536171
20
153.644125
0
LWPOLYLINE
100
AcDbEntity
8
VISIBLE
6
CONTINUOUS
370
35
100
AcDbPolyline
90
4
70
0
10
237.710709
20
153.680215
10
237.744522
20
153.683110
10
237.801962
20
153.685078
10
237.804000
20
153.685080
0
LWPOLYLINE
100
AcDbEntity
8
VISIBLE
6
CONTINUOUS
370
35
100
AcDbPolyline
90
2
70
0
10
237.710709
20
153.680215
10
237.804000
20
153.685080
0
LWPOLYLINE
100
AcDbEntity
8
VISIBLE
6
CONTINUOUS
370
35
100
AcDbPolyline
90
15
70
0
10
237.207378
20
152.485080
10
237.270150
20
152.483445
10
237.332233
20
152.481827
10
237.392944
20
152.480245
10
237.451617
20
152.478716
10
237.507608
20
152.477258
10
237.560301
20
152.475885
10
237.609118
20
152.474613
10
237.653523
20
152.473456
10
237.693028
20
152.472427
10
237.727199
20
152.471536
10
237.755661
20
152.470795
10
237.778102
20
152.470210
10
237.794274
20
152.469789
10
237.804000
20
152.469535
0
LWPOLYLINE
100
AcDbEntity
8
VISIBLE
6
CONTINUOUS
370
35
100
AcDbPolyline
90
5
70
0
10
237.804000
20
153.685080
10
237.804064
20
153.668040
10
237.804000
20
153.598342
10
237.804000
20
153.347184
10
237.804000
20
152.469535
0
LWPOLYLINE
100
AcDbEntity
8
VISIBLE
6
CONTINUOUS
370
35
100
AcDbPolyline
90
9
70
0
10
237.207378
20
152.485080
10
237.223333
20
152.717857
10
237.252728
20
152.938014
10
237.295369
20
153.138625
10
237.351914
20
153.317760
10
237.420076
20
153.464144
10
237.498655
20
153.573275
10
237.590536
20
153.645553
10
237.710709
20
153.680215
0
LWPOLYLINE
100
AcDbEntity
8
VISIBLE
6
CONTINUOUS
370
35
100
AcDbPolyline
90
2
70
0
10
237.804000
20
152.469535
10
237.804000
20
152.085080
0
LWPOLYLINE
100
AcDbEntity
8
VISIBLE
6
CONTINUOUS
370
35
100
AcDbPolyline
90
2
70
0
10
237.204161
20
152.085080
10
237.207378
20
152.485080
0
LWPOLYLINE
100
AcDbEntity
8
VISIBLE
6
CONTINUOUS
370
35
100
AcDbPolyline
90
2
70
0
10
237.804000
20
152.085080
10
237.804000
20
143.385080
0
LWPOLYLINE
100
AcDbEntity
8
VISIBLE
6
CONTINUOUS
370
35
100
AcDbPolyline
90
2
70
0
10
235.256000
20
153.685080
10
235.349291
20
153.680215
0
LWPOLYLINE
100
AcDbEntity
8
VISIBLE
6
CONTINUOUS
370
35
100
AcDbPolyline
90
4
70
0
10
235.256000
20
153.685080
10
235.258038
20
153.685078
10
235.315478
20
153.683110
10
235.349291
20
153.680215
0
LWPOLYLINE
100
AcDbEntity
8
VISIBLE
6
CONTINUOUS
370
35
100
AcDbPolyline
90
15
70
0
10
235.256000
20
152.469535
10
235.265726
20
152.469789
10
235.281898
20
152.470210
10
235.304339
20
152.470795
10
235.332801
20
152.471536
10
235.366972
20
152.472427
10
235.406477
20
152.473456
10
235.450882
20
152.474613
10
235.499699
20
152.475885
10
235.552392
20
152.477258
10
235.608383
20
152.478716
10
235.667056
20
152.480245
10
235.727767
20
152.481827
10
235.789850
20
152.483445
10
235.852622
20
152.485080
0
LWPOLYLINE
100
AcDbEntity
8
VISIBLE
6
CONTINUOUS
370
35
100
AcDbPolyline
90
9
70
0
10
235.349291
20
153.680215
10
235.469464
20
153.645553
10
235.561345
20
153.573275
10
235.639919
20
153.464153
10
235.708086
20
153.317760
10
235.764627
20
153.138637
10
235.807272
20
152.938014
10
235.836666
20
152.717814
10
235.852622
20
152.485080
0
LWPOLYLINE
100
AcDbEntity
8
VISIBLE
6
CONTINUOUS
370
35
100
AcDbPolyline
90
5
70
0
10
235.256000
20
152.469535
10
235.256000
20
153.347355
10
235.256000
20
153.598414
10
235.255936
20
153.668050
10
235.256000
20
153.685080
0
LWPOLYLINE
100
AcDbEntity
8
VISIBLE
6
CONTINUOUS
370
35
100
AcDbPolyline
90
2
70
0
10
235.852622
20
152.485080
10
235.855839
20
152.085080
0
LWPOLYLINE
100
AcDbEntity
8
VISIBLE
6
CONTINUOUS
370
35
100
AcDbPolyline
90
2
70
0
10
235.256000
20
152.085080
10
235.256000
20
152.469535
0
LWPOLYLINE
100
AcDbEntity
8
VISIBLE
6
CONTINUOUS
370
35
100
AcDbPolyline
90
2
70
0
10
235.256000
20
143.385080
10
235.256000
20
152.085080
0
LWPOLYLINE
100
AcDbEntity
8
VISIBLE
6
CONTINUOUS
370
35
100
AcDbPolyline
90
4
70
0
10
228.320942
20
153.680215
10
228.281736
20
153.683110
10
228.215354
20
153.685078
10
228.213000
20
153.685080
0
LWPOLYLINE
100
AcDbEntity
8
VISIBLE
6
CONTINUOUS
370
35
100
AcDbPolyline
90
2
70
0
10
228.320942
20
153.680215
10
228.374913
20
153.685080
0
LWPOLYLINE
100
AcDbEntity
8
VISIBLE
6
CONTINUOUS
370
35
100
AcDbPolyline
90
5
70
0
10
229.413000
20
152.485080
10
229.423071
20
152.482229
10
229.452948
20
152.479473
10
229.567472
20
152.474613
10
229.951348
20
152.469535
0
LWPOLYLINE
100
AcDbEntity
8
VISIBLE
6
CONTINUOUS
370
35
100
AcDbPolyline
90
11
70
0
10
228.374913
20
153.685080
10
228.610725
20
153.668040
10
228.749998
20
153.641623
10
228.901300
20
153.598342
10
229.146927
20
153.492076
10
229.371899
20
153.347184
10
229.484637
20
153.252272
10
229.582246
20
153.154151
10
229.735783
20
152.957277
10
229.867428
20
152.715069
10
229.951348
20
152.469535
0
LWPOLYLINE
100
AcDbEntity
8
VISIBLE
6
CONTINUOUS
370
35
100
AcDbPolyline
90
9
70
0
10
229.413000
20
152.485080
10
229.390206
20
152.717857
10
229.324238
20
152.938014
10
229.219419
20
153.138625
10
229.077086
20
153.317760
10
228.906854
20
153.464144
10
228.718799
20
153.573275
10
228.518454
20
153.645553
10
228.320942
20
153.680215
0
LWPOLYLINE
100
AcDbEntity
8
VISIBLE
6
CONTINUOUS
370
35
100
AcDbPolyline
90
3
70
0
10
229.951348
20
152.469535
10
229.987247
20
152.277568
10
229.999101
20
152.085080
0
LWPOLYLINE
100
AcDbEntity
8
VISIBLE
6
CONTINUOUS
370
35
100
AcDbPolyline
90
2
70
0
10
229.413000
20
152.085080
10
229.413000
20
152.485080
0
LWPOLYLINE
100
AcDbEntity
8
VISIBLE
6
CONTINUOUS
370
35
100
AcDbPolyline
90
2
70
0
10
229.413000
20
143.385080
10
229.413000
20
152.085080
0
LWPOLYLINE
100
AcDbEntity
8
VISIBLE
6
CONTINUOUS
370
35
100
AcDbPolyline
90
2
70
0
10
229.999101
20
152.085080
10
229.999101
20
143.385080
0
LWPOLYLINE
100
AcDbEntity
8
VISIBLE
6
CONTINUOUS
370
35
100
AcDbPolyline
90
3
70
0
10
228.217348
20
153.685072
10
228.281736
20
153.683110
10
228.318479
20
153.680435
0
LWPOLYLINE
100
AcDbEntity
8
VISIBLE
6
CONTINUOUS
370
35
100
AcDbPolyline
90
9
70
0
10
228.518976
20
153.645416
10
228.640101
20
153.606501
10
228.767168
20
153.549455
10
228.884082
20
153.479891
10
228.994484
20
153.395729
10
229.096424
20
153.297213
10
229.186745
20
153.186375
10
229.262787
20
153.066413
10
229.323756
20
152.939196
0
LWPOLYLINE
100
AcDbEntity
8
VISIBLE
6
CONTINUOUS
370
35
100
AcDbPolyline
90
3
70
0
10
229.325582
20
152.934704
10
229.390497
20
152.716030
10
229.413000
20
152.485080
0
LWPOLYLINE
100
AcDbEntity
8
VISIBLE
6
CONTINUOUS
370
35
100
AcDbPolyline
90
3
70
0
10
229.951348
20
152.469535
10
229.868678
20
152.712269
10
229.739231
20
152.952043
0
LWPOLYLINE
100
AcDbEntity
8
VISIBLE
6
CONTINUOUS
370
35
100
AcDbPolyline
90
2
70
0
10
229.576264
20
153.160667
10
229.375862
20
153.344134
0
LWPOLYLINE
100
AcDbEntity
8
VISIBLE
6
CONTINUOUS
370
35
100
AcDbPolyline
90
2
70
0
10
228.901541
20
153.598260
10
228.899063
20
153.599098
0
LWPOLYLINE
100
AcDbEntity
8
VISIBLE
6
CONTINUOUS
370
35
100
AcDbPolyline
90
15
70
0
10
236.530000
20
153.685080
10
234.729611
20
153.685080
10
232.951863
20
153.685080
10
231.219113
20
153.685080
10
229.553149
20
153.685080
10
227.974924
20
153.685080
10
226.504284
20
153.685080
10
225.159723
20
153.685080
10
223.958150
20
153.685080
10
222.914675
20
153.685080
10
222.042421
20
153.685080
10
221.352356
20
153.685080
10
220.853159
20
153.685080
10
220.551108
20
153.685080
10
220.450000
20
153.685080
0
LWPOLYLINE
100
AcDbEntity
8
VISIBLE
6
CONTINUOUS
370
35
100
AcDbPolyline
90
15
70
0
10
220.450000
20
157.985080
10
220.551108
20
157.985080
10
220.853159
20
157.985080
10
221.352356
20
157.985080
10
222.042421
20
157.985080
10
222.914675
20
157.985080
10
223.958150
20
157.985080
10
225.159723
20
157.985080
10
226.504284
20
157.985080
10
227.974924
20
157.985080
10
229.553149
20
157.985080
10
231.219113
20
157.985080
10
232.951863
20
157.985080
10
234.729611
20
157.985080
10
236.530000
20
157.985080
0
LWPOLYLINE
100
AcDbEntity
8
VISIBLE
6
CONTINUOUS
370
35
100
AcDbPolyline
90
15
70
0
10
236.530000
20
157.535080
10
234.679227
20
157.535080
10
232.851729
20
157.535080
10
231.070487
20
157.535080
10
229.357902
20
157.535080
10
227.735510
20
157.535080
10
226.223714
20
157.535080
10
224.841525
20
157.535080
10
223.606326
20
157.535080
10
222.533649
20
157.535080
10
221.636985
20
157.535080
10
220.927609
20
157.535080
10
220.414442
20
157.535080
10
220.103937
20
157.535080
10
220.000000
20
157.535080
0
LWPOLYLINE
100
AcDbEntity
8
VISIBLE
6
CONTINUOUS
370
35
100
AcDbPolyline
90
15
70
0
10
220.000000
20
154.135080
10
220.103937
20
154.135080
10
220.414442
20
154.135080
10
220.927609
20
154.135080
10
221.636985
20
154.135080
10
222.533649
20
154.135080
10
223.606326
20
154.135080
10
224.841525
20
154.135080
10
226.223714
20
154.135080
10
227.735510
20
154.135080
10
229.357902
20
154.135080
10
231.070487
20
154.135080
10
232.851729
20
154.135080
10
234.679227
20
154.135080
10
236.530000
20
154.135080
0
LWPOLYLINE
100
AcDbEntity
8
VISIBLE
6
CONTINUOUS
370
35
100
AcDbPolyline
90
2
70
0
10
245.751000
20
158.325080
10
245.751000
20
157.985080
0
LWPOLYLINE
100
AcDbEntity
8
VISIBLE
6
CONTINUOUS
370
35
100
AcDbPolyline
90
2
70
0
10
252.610000
20
153.685080
10
253.060000
20
154.135080
0
LWPOLYLINE
100
AcDbEntity
8
VISIBLE
6
CONTINUOUS
370
35
100
AcDbPolyline
90
2
70
0
10
252.610000
20
157.985080
10
253.060000
20
157.535080
0
LWPOLYLINE
100
AcDbEntity
8
VISIBLE
6
CONTINUOUS
370
35
100
AcDbPolyline
90
2
70
0
10
244.880000
20
138.674920
10
244.880000
20
139.955080
0
LWPOLYLINE
100
AcDbEntity
8
VISIBLE
6
CONTINUOUS
370
35
100
AcDbPolyline
90
2
70
0
10
244.739058
20
153.680215
10
244.847000
20
153.685080
0
LWPOLYLINE
100
AcDbEntity
8
VISIBLE
6
CONTINUOUS
370
35
100
AcDbPolyline
90
2
70
0
10
235.256000
20
153.685080
10
235.256014
20
153.685080
0
LWPOLYLINE
100
AcDbEntity
8
VISIBLE
6
CONTINUOUS
370
35
100
AcDbPolyline
90
2
70
0
10
228.213000
20
153.685080
10
228.213224
20
153.685080
0
LWPOLYLINE
100
AcDbEntity
8
VISIBLE
6
CONTINUOUS
370
35
100
AcDbPolyline
90
2
70
0
10
228.213000
20
153.685080
10
228.320942
20
153.680215
0
LWPOLYLINE
100
AcDbEntity
8
VISIBLE
6
CONTINUOUS
370
35
100
AcDbPolyline
90
2
70
0
10
253.060000
20
157.535080
10
253.060000
20
154.135080
0
LWPOLYLINE
100
AcDbEntity
8
VISIBLE
6
CONTINUOUS
370
35
100
AcDbPolyline
90
2
70
0
10
220.000000
20
157.535080
10
220.000000
20
154.135080
0
LWPOLYLINE
100
AcDbEntity
8
VISIBLE
6
CONTINUOUS
370
35
100
AcDbPolyline
90
2
70
0
10
228.180000
20
138.674920
10
228.180000
20
139.955080
0
LWPOLYLINE
100
AcDbEntity
8
VISIBLE
6
CONTINUOUS
370
35
100
AcDbPolyline
90
2
70
0
10
220.450000
20
157.985080
10
220.000000
20
157.535080
0
LWPOLYLINE
100
AcDbEntity
8
VISIBLE
6
CONTINUOUS
370
35
100
AcDbPolyline
90
2
70
0
10
220.450000
20
153.685080
10
220.000000
20
154.135080
0
LWPOLYLINE
100
AcDbEntity
8
VISIBLE
6
CONTINUOUS
370
35
100
AcDbPolyline
90
2
70
0
10
227.309000
20
158.325080
10
227.309000
20
157.985080
0
LWPOLYLINE
100
AcDbEntity
8
CENTER
6
CENTER
370
18
100
AcDbPolyline
90
2
70
0
10
301.349981
20
150.685080
10
301.349981
20
160.985080
0
LWPOLYLINE
100
AcDbEntity
8
CENTER
6
CENTER
370
18
100
AcDbPolyline
90
2
70
0
10
297.657330
20
136.955080
10
297.657330
20
145.985080
0
LWPOLYLINE
100
AcDbEntity
8
CENTER
6
CENTER
370
18
100
AcDbPolyline
90
2
70
0
10
297.605343
20
136.955080
10
297.605343
20
145.985080
0
LWPOLYLINE
100
AcDbEntity
8
CENTER
6
CENTER
370
18
100
AcDbPolyline
90
2
70
0
10
289.661701
20
150.685080
10
289.661701
20
160.985080
0
LWPOLYLINE
100
AcDbEntity
8
CENTER
6
CENTER
370
18
100
AcDbPolyline
90
2
70
0
10
289.590000
20
135.674920
10
289.590000
20
161.325080
0
LWPOLYLINE
100
AcDbEntity
8
CENTER
6
CENTER
370
18
100
AcDbPolyline
90
2
70
0
10
289.518299
20
150.685080
10
289.518299
20
160.985080
0
LWPOLYLINE
100
AcDbEntity
8
CENTER
6
CENTER
370
18
100
AcDbPolyline
90
2
70
0
10
281.385189
20
136.955080
10
281.385189
20
145.985080
0
LWPOLYLINE
100
AcDbEntity
8
CENTER
6
CENTER
370
18
100
AcDbPolyline
90
2
70
0
10
281.333202
20
136.955080
10
281.333202
20
145.985080
0
LWPOLYLINE
100
AcDbEntity
8
CENTER
6
CENTER
370
18
100
AcDbPolyline
90
2
70
0
10
277.830019
20
150.685080
10
277.830019
20
160.985080
0
LWPOLYLINE
100
AcDbEntity
8
VISIBLE
6
CONTINUOUS
370
35
100
AcDbPolyline
90
2
70
0
10
280.369000
20
158.325080
10
280.369000
20
157.985080
0
LWPOLYLINE
100
AcDbEntity
8
VISIBLE
6
CONTINUOUS
370
35
100
AcDbPolyline
90
2
70
0
10
298.811000
20
158.325080
10
298.811000
20
157.985080
0
LWPOLYLINE
100
AcDbEntity
8
VISIBLE
6
CONTINUOUS
370
35
100
AcDbPolyline
90
15
70
0
10
280.369000
20
158.325080
10
280.600190
20
158.325080
10
281.282166
20
158.325080
10
282.380732
20
158.325080
10
283.840801
20
158.325080
10
285.589158
20
158.325080
10
287.538134
20
158.325080
10
289.590000
20
158.325080
10
291.641866
20
158.325080
10
293.590842
20
158.325080
10
295.339199
20
158.325080
10
296.799268
20
158.325080
10
297.897834
20
158.325080
10
298.579810
20
158.325080
10
298.811000
20
158.325080
0
LWPOLYLINE
100
AcDbEntity
8
VISIBLE
6
CONTINUOUS
370
35
100
AcDbPolyline
90
15
70
0
10
280.241002
20
142.985080
10
280.241269
20
142.985080
10
280.242071
20
142.985080
10
280.243407
20
142.985080
10
280.245277
20
142.985080
10
280.247679
20
142.985080
10
280.250613
20
142.985080
10
280.254077
20
142.985080
10
280.258069
20
142.985080
10
280.262587
20
142.985080
10
280.267630
20
142.985080
10
280.273194
20
142.985080
10
280.279278
20
142.985080
10
280.285877
20
142.985080
10
280.292989
20
142.985080
0
LWPOLYLINE
100
AcDbEntity
8
VISIBLE
6
CONTINUOUS
370
35
100
AcDbPolyline
90
6
70
0
10
299.990000
20
142.585080
10
299.970423
20
142.708687
10
299.913607
20
142.820194
10
299.825114
20
142.908687
10
299.713607
20
142.965503
10
299.590000
20
142.985080
0
LWPOLYLINE
100
AcDbEntity
8
VISIBLE
6
CONTINUOUS
370
35
100
AcDbPolyline
90
15
70
0
10
297.890000
20
142.985080
10
298.080340
20
142.985080
10
298.268286
20
142.985080
10
298.451474
20
142.985080
10
298.627602
20
142.985080
10
298.794455
20
142.985080
10
298.949933
20
142.985080
10
299.092082
20
142.985080
10
299.219114
20
142.985080
10
299.329431
20
142.985080
10
299.421647
20
142.985080
10
299.494602
20
142.985080
10
299.547377
20
142.985080
10
299.579311
20
142.985080
10
299.590000
20
142.985080
0
LWPOLYLINE
100
AcDbEntity
8
VISIBLE
6
CONTINUOUS
370
35
100
AcDbPolyline
90
2
70
0
10
281.290000
20
142.985080
10
297.890000
20
142.985080
0
LWPOLYLINE
100
AcDbEntity
8
VISIBLE
6
CONTINUOUS
370
35
100
AcDbPolyline
90
6
70
0
10
279.590000
20
142.985080
10
279.466393
20
142.965503
10
279.354886
20
142.908687
10
279.266393
20
142.820194
10
279.209577
20
142.708687
10
279.190000
20
142.585080
0
LWPOLYLINE
100
AcDbEntity
8
VISIBLE
6
CONTINUOUS
370
35
100
AcDbPolyline
90
15
70
0
10
279.590000
20
142.985080
10
279.600689
20
142.985080
10
279.632623
20
142.985080
10
279.685398
20
142.985080
10
279.758353
20
142.985080
10
279.850569
20
142.985080
10
279.960886
20
142.985080
10
280.087918
20
142.985080
10
280.230067
20
142.985080
10
280.385545
20
142.985080
10
280.552398
20
142.985080
10
280.728526
20
142.985080
10
280.911714
20
142.985080
10
281.099660
20
142.985080
10
281.290000
20
142.985080
0
LWPOLYLINE
100
AcDbEntity
8
VISIBLE
6
CONTINUOUS
370
35
100
AcDbPolyline
90
15
70
0
10
299.590000
20
142.985080
10
299.585305
20
142.985080
10
299.571246
20
142.985080
10
299.547902
20
142.985080
10
299.515399
20
142.985080
10
299.473920
20
142.985080
10
299.423691
20
142.985080
10
299.364992
20
142.985080
10
299.298145
20
142.985080
10
299.223521
20
142.985080
10
299.141531
20
142.985080
10
299.052629
20
142.985080
10
298.957305
20
142.985080
10
298.856086
20
142.985080
10
298.749530
20
142.985080
0
LWPOLYLINE
100
AcDbEntity
8
VISIBLE
6
CONTINUOUS
370
35
100
AcDbPolyline
90
15
70
0
10
280.241002
20
142.985080
10
280.156704
20
142.985080
10
280.077149
20
142.985080
10
280.002669
20
142.985080
10
279.933576
20
142.985080
10
279.870159
20
142.985080
10
279.812683
20
142.985080
10
279.761390
20
142.985080
10
279.716493
20
142.985080
10
279.678181
20
142.985080
10
279.646614
20
142.985080
10
279.621923
20
142.985080
10
279.604213
20
142.985080
10
279.593557
20
142.985080
10
279.590000
20
142.985080
0
LWPOLYLINE
100
AcDbEntity
8
VISIBLE
6
CONTINUOUS
370
35
100
AcDbPolyline
90
15
70
0
10
299.590000
20
139.955080
10
299.579311
20
139.955080
10
299.547377
20
139.955080
10
299.494602
20
139.955080
10
299.421647
20
139.955080
10
299.329431
20
139.955080
10
299.219114
20
139.955080
10
299.092082
20
139.955080
10
298.949933
20
139.955080
10
298.794455
20
139.955080
10
298.627602
20
139.955080
10
298.451474
20
139.955080
10
298.268286
20
139.955080
10
298.080340
20
139.955080
10
297.890000
20
139.955080
0
LWPOLYLINE
100
AcDbEntity
8
VISIBLE
6
CONTINUOUS
370
35
100
AcDbPolyline
90
6
70
0
10
299.990000
20
140.355080
10
299.970423
20
140.231473
10
299.913607
20
140.119966
10
299.825114
20
140.031473
10
299.713607
20
139.974657
10
299.590000
20
139.955080
0
LWPOLYLINE
100
AcDbEntity
8
VISIBLE
6
CONTINUOUS
370
35
100
AcDbPolyline
90
2
70
0
10
297.890000
20
139.955080
10
281.290000
20
139.955080
0
LWPOLYLINE
100
AcDbEntity
8
VISIBLE
6
CONTINUOUS
370
35
100
AcDbPolyline
90
6
70
0
10
279.590000
20
139.955080
10
279.466393
20
139.974657
10
279.354886
20
140.031473
10
279.266393
20
140.119966
10
279.209577
20
140.231473
10
279.190000
20
140.355080
0
LWPOLYLINE
100
AcDbEntity
8
VISIBLE
6
CONTINUOUS
370
35
100
AcDbPolyline
90
15
70
0
10
281.290000
20
139.955080
10
281.099660
20
139.955080
10
280.911714
20
139.955080
10
280.728526
20
139.955080
10
280.552398
20
139.955080
10
280.385545
20
139.955080
10
280.230067
20
139.955080
10
280.087918
20
139.955080
10
279.960886
20
139.955080
10
279.850569
20
139.955080
10
279.758353
20
139.955080
10
279.685398
20
139.955080
10
279.632623
20
139.955080
10
279.600689
20
139.955080
10
279.590000
20
139.955080
0
LWPOLYLINE
100
AcDbEntity
8
VISIBLE
6
CONTINUOUS
370
35
100
AcDbPolyline
90
9
70
0
10
291.200666
20
142.985080
10
291.145644
20
142.991669
10
291.086910
20
143.012972
10
291.032016
20
143.046904
10
290.980678
20
143.093317
10
290.930041
20
143.159392
10
290.897746
20
143.221361
10
290.872828
20
143.300507
10
290.864000
20
143.385080
0
LWPOLYLINE
100
AcDbEntity
8
VISIBLE
6
CONTINUOUS
370
35
100
AcDbPolyline
90
9
70
0
10
296.457654
20
142.985080
10
296.404066
20
142.990079
10
296.333097
20
143.012972
10
296.276658
20
143.046901
10
296.226219
20
143.093317
10
296.180269
20
143.156916
10
296.149958
20
143.221361
10
296.127946
20
143.303118
10
296.120899
20
143.385080
0
LWPOLYLINE
100
AcDbEntity
8
VISIBLE
6
CONTINUOUS
370
35
100
AcDbPolyline
90
9
70
0
10
288.316000
20
143.385080
10
288.307171
20
143.300504
10
288.282252
20
143.221356
10
288.245010
20
143.151668
10
288.199315
20
143.093310
10
288.147974
20
143.046897
10
288.093078
20
143.012966
10
288.034403
20
142.991690
10
287.979334
20
142.985080
0
LWPOLYLINE
100
AcDbEntity
8
VISIBLE
6
CONTINUOUS
370
35
100
AcDbPolyline
90
6
70
0
10
297.107000
20
142.985080
10
296.983393
20
143.004657
10
296.871886
20
143.061473
10
296.783393
20
143.149966
10
296.726577
20
143.261473
10
296.707000
20
143.385080
0
LWPOLYLINE
100
AcDbEntity
8
VISIBLE
6
CONTINUOUS
370
35
100
AcDbPolyline
90
9
70
0
10
283.059101
20
143.385080
10
283.052095
20
143.303153
10
283.030040
20
143.221356
10
282.999731
20
143.156917
10
282.953774
20
143.093310
10
282.903332
20
143.046893
10
282.846890
20
143.012966
10
282.775931
20
142.990079
10
282.722346
20
142.985080
0
LWPOLYLINE
100
AcDbEntity
8
VISIBLE
6
CONTINUOUS
370
35
100
AcDbPolyline
90
6
70
0
10
282.473000
20
143.385080
10
282.453423
20
143.261473
10
282.396607
20
143.149966
10
282.308114
20
143.061473
10
282.196607
20
143.004657
10
282.073000
20
142.985080
0
LWPOLYLINE
100
AcDbEntity
8
VISIBLE
6
CONTINUOUS
370
35
100
AcDbPolyline
90
2
70
0
10
296.457654
20
142.985080
10
296.417489
20
142.987874
0
LWPOLYLINE
100
AcDbEntity
8
VISIBLE
6
CONTINUOUS
370
35
100
AcDbPolyline
90
2
70
0
10
296.346022
20
143.007302
10
296.333196
20
143.012926
0
LWPOLYLINE
100
AcDbEntity
8
VISIBLE
6
CONTINUOUS
370
35
100
AcDbPolyline
90
2
70
0
10
296.331921
20
143.013524
10
296.314944
20
143.022171
0
LWPOLYLINE
100
AcDbEntity
8
VISIBLE
6
CONTINUOUS
370
35
100
AcDbPolyline
90
2
70
0
10
296.149676
20
143.222121
10
296.149360
20
143.222974
0
LWPOLYLINE
100
AcDbEntity
8
VISIBLE
6
CONTINUOUS
370
35
100
AcDbPolyline
90
2
70
0
10
296.138251
20
143.257382
10
296.120899
20
143.385080
0
LWPOLYLINE
100
AcDbEntity
8
VISIBLE
6
CONTINUOUS
370
35
100
AcDbPolyline
90
2
70
0
10
283.029969
20
143.221165
10
283.029869
20
143.220897
0
LWPOLYLINE
100
AcDbEntity
8
VISIBLE
6
CONTINUOUS
370
35
100
AcDbPolyline
90
3
70
0
10
282.857747
20
143.018293
10
282.789372
20
142.992942
10
282.722346
20
142.985080
0
LWPOLYLINE
100
AcDbEntity
8
VISIBLE
6
CONTINUOUS
370
35
100
AcDbPolyline
90
2
70
0
10
305.670000
20
153.685080
10
306.120000
20
154.135080
0
LWPOLYLINE
100
AcDbEntity
8
VISIBLE
6
CONTINUOUS
370
35
100
AcDbPolyline
90
2
70
0
10
273.510000
20
153.685080
10
273.060000
20
154.135080
0
LWPOLYLINE
100
AcDbEntity
8
VISIBLE
6
CONTINUOUS
370
35
100
AcDbPolyline
90
2
70
0
10
273.510000
20
157.985080
10
273.060000
20
157.535080
0
LWPOLYLINE
100
AcDbEntity
8
VISIBLE
6
CONTINUOUS
370
35
100
AcDbPolyline
90
2
70
0
10
305.670000
20
157.985080
10
306.120000
20
157.535080
0
LWPOLYLINE
100
AcDbEntity
8
VISIBLE
6
CONTINUOUS
370
35
100
AcDbPolyline
90
2
70
0
10
297.940000
20
138.674920
10
297.940000
20
139.955080
0
LWPOLYLINE
100
AcDbEntity
8
VISIBLE
6
CONTINUOUS
370
35
100
AcDbPolyline
90
2
70
0
10
281.240000
20
138.674920
10
281.240000
20
139.955080
0
LWPOLYLINE
100
AcDbEntity
8
VISIBLE
6
CONTINUOUS
370
35
100
AcDbPolyline
90
15
70
0
10
297.940000
20
138.674920
10
297.730648
20
138.674920
10
297.113090
20
138.674920
10
296.118293
20
138.674920
10
294.796140
20
138.674920
10
293.212929
20
138.674920
10
291.448050
20
138.674920
10
289.590000
20
138.674920
10
287.731950
20
138.674920
10
285.967071
20
138.674920
10
284.383860
20
138.674920
10
283.061707
20
138.674920
10
282.066910
20
138.674920
10
281.449352
20
138.674920
10
281.240000
20
138.674920
0
LWPOLYLINE
100
AcDbEntity
8
VISIBLE
6
CONTINUOUS
370
35
100
AcDbPolyline
90
2
70
0
10
279.190000
20
140.355080
10
279.190000
20
142.585080
0
LWPOLYLINE
100
AcDbEntity
8
VISIBLE
6
CONTINUOUS
370
35
100
AcDbPolyline
90
2
70
0
10
299.990000
20
140.355080
10
299.990000
20
142.585080
0
LWPOLYLINE
100
AcDbEntity
8
VISIBLE
6
CONTINUOUS
370
35
100
AcDbPolyline
90
3
70
0
10
281.277348
20
153.685072
10
281.341736
20
153.683110
10
281.378479
20
153.680435
0
LWPOLYLINE
100
AcDbEntity
8
VISIBLE
6
CONTINUOUS
370
35
100
AcDbPolyline
90
2
70
0
10
281.380942
20
153.680215
10
281.578062
20
153.645656
0
LWPOLYLINE
100
AcDbEntity
8
VISIBLE
6
CONTINUOUS
370
35
100
AcDbPolyline
90
9
70
0
10
281.578976
20
153.645416
10
281.700101
20
153.606501
10
281.827168
20
153.549455
10
281.944082
20
153.479891
10
282.054484
20
153.395729
10
282.156424
20
153.297213
10
282.246745
20
153.186375
10
282.322787
20
153.066413
10
282.383756
20
152.939196
0
LWPOLYLINE
100
AcDbEntity
8
VISIBLE
6
CONTINUOUS
370
35
100
AcDbPolyline
90
3
70
0
10
282.385582
20
152.934704
10
282.450497
20
152.716030
10
282.473000
20
152.485080
0
LWPOLYLINE
100
AcDbEntity
8
VISIBLE
6
CONTINUOUS
370
35
100
AcDbPolyline
90
3
70
0
10
283.011346
20
152.469545
10
282.928675
20
152.712274
10
282.799231
20
152.952043
0
LWPOLYLINE
100
AcDbEntity
8
VISIBLE
6
CONTINUOUS
370
35
100
AcDbPolyline
90
2
70
0
10
282.636264
20
153.160667
10
282.435862
20
153.344134
0
LWPOLYLINE
100
AcDbEntity
8
VISIBLE
6
CONTINUOUS
370
35
100
AcDbPolyline
90
2
70
0
10
281.961541
20
153.598260
10
281.959063
20
153.599098
0
LWPOLYLINE
100
AcDbEntity
8
VISIBLE
6
CONTINUOUS
370
35
100
AcDbPolyline
90
2
70
0
10
282.473000
20
152.085080
10
282.473000
20
143.385080
0
LWPOLYLINE
100
AcDbEntity
8
VISIBLE
6
CONTINUOUS
370
35
100
AcDbPolyline
90
4
70
0
10
281.380942
20
153.680215
10
281.341736
20
153.683110
10
281.275354
20
153.685078
10
281.273000
20
153.685080
0
LWPOLYLINE
100
AcDbEntity
8
VISIBLE
6
CONTINUOUS
370
35
100
AcDbPolyline
90
2
70
0
10
281.380942
20
153.680215
10
281.434913
20
153.685080
0
LWPOLYLINE
100
AcDbEntity
8
VISIBLE
6
CONTINUOUS
370
35
100
AcDbPolyline
90
5
70
0
10
282.473000
20
152.485080
10
282.483071
20
152.482229
10
282.512948
20
152.479473
10
282.627472
20
152.474613
10
283.011348
20
152.469535
0
LWPOLYLINE
100
AcDbEntity
8
VISIBLE
6
CONTINUOUS
370
35
100
AcDbPolyline
90
11
70
0
10
281.434913
20
153.685080
10
281.670725
20
153.668040
10
281.809998
20
153.641623
10
281.961300
20
153.598342
10
282.206927
20
153.492076
10
282.431899
20
153.347184
10
282.544637
20
153.252272
10
282.642246
20
153.154151
10
282.795783
20
152.957277
10
282.927428
20
152.715069
10
283.011348
20
152.469535
0
LWPOLYLINE
100
AcDbEntity
8
VISIBLE
6
CONTINUOUS
370
35
100
AcDbPolyline
90
9
70
0
10
282.473000
20
152.485080
10
282.450206
20
152.717857
10
282.384238
20
152.938014
10
282.279419
20
153.138625
10
282.137086
20
153.317760
10
281.966854
20
153.464144
10
281.778799
20
153.573275
10
281.578454
20
153.645553
10
281.380942
20
153.680215
0
LWPOLYLINE
100
AcDbEntity
8
VISIBLE
6
CONTINUOUS
370
35
100
AcDbPolyline
90
3
70
0
10
283.011348
20
152.469535
10
283.047247
20
152.277568
10
283.059101
20
152.085080
0
LWPOLYLINE
100
AcDbEntity
8
VISIBLE
6
CONTINUOUS
370
35
100
AcDbPolyline
90
2
70
0
10
282.473000
20
152.085080
10
282.473000
20
152.485080
0
LWPOLYLINE
100
AcDbEntity
8
VISIBLE
6
CONTINUOUS
370
35
100
AcDbPolyline
90
2
70
0
10
283.059101
20
152.085080
10
283.059101
20
143.385080
0
LWPOLYLINE
100
AcDbEntity
8
VISIBLE
6
CONTINUOUS
370
35
100
AcDbPolyline
90
3
70
0
10
297.903649
20
153.685075
10
297.904646
20
153.685078
10
297.907000
20
153.685080
0
LWPOLYLINE
100
AcDbEntity
8
VISIBLE
6
CONTINUOUS
370
35
100
AcDbPolyline
90
2
70
0
10
296.973833
20
153.492481
10
296.973052
20
153.492065
0
LWPOLYLINE
100
AcDbEntity
8
VISIBLE
6
CONTINUOUS
370
35
100
AcDbPolyline
90
2
70
0
10
296.532892
20
153.148802
10
296.386167
20
152.960217
0
LWPOLYLINE
100
AcDbEntity
8
VISIBLE
6
CONTINUOUS
370
35
100
AcDbPolyline
90
2
70
0
10
296.383955
20
152.956880
10
296.381817
20
152.953639
0
LWPOLYLINE
100
AcDbEntity
8
VISIBLE
6
CONTINUOUS
370
35
100
AcDbPolyline
90
3
70
0
10
296.707000
20
152.485080
10
296.729627
20
152.717012
10
296.795131
20
152.936464
0
LWPOLYLINE
100
AcDbEntity
8
VISIBLE
6
CONTINUOUS
370
35
100
AcDbPolyline
90
5
70
0
10
296.796271
20
152.939261
10
296.870385
20
153.089583
10
296.965553
20
153.229175
10
297.079856
20
153.354464
10
297.207701
20
153.460263
0
LWPOLYLINE
100
AcDbEntity
8
VISIBLE
6
CONTINUOUS
370
35
100
AcDbPolyline
90
2
70
0
10
297.400497
20
153.572947
10
297.596171
20
153.644125
0
LWPOLYLINE
100
AcDbEntity
8
VISIBLE
6
CONTINUOUS
370
35
100
AcDbPolyline
90
2
70
0
10
297.745087
20
153.685080
10
297.799058
20
153.680215
0
LWPOLYLINE
100
AcDbEntity
8
VISIBLE
6
CONTINUOUS
370
35
100
AcDbPolyline
90
4
70
0
10
297.907000
20
153.685080
10
297.904646
20
153.685078
10
297.838264
20
153.683110
10
297.799058
20
153.680215
0
LWPOLYLINE
100
AcDbEntity
8
VISIBLE
6
CONTINUOUS
370
35
100
AcDbPolyline
90
5
70
0
10
296.168652
20
152.469535
10
296.552528
20
152.474613
10
296.667052
20
152.479473
10
296.696929
20
152.482229
10
296.707000
20
152.485080
0
LWPOLYLINE
100
AcDbEntity
8
VISIBLE
6
CONTINUOUS
370
35
100
AcDbPolyline
90
9
70
0
10
297.799058
20
153.680215
10
297.601546
20
153.645553
10
297.401201
20
153.573275
10
297.213158
20
153.464153
10
297.042914
20
153.317760
10
296.900589
20
153.138637
10
296.795762
20
152.938014
10
296.729855
20
152.717814
10
296.707000
20
152.485080
0
LWPOLYLINE
100
AcDbEntity
8
VISIBLE
6
CONTINUOUS
370
35
100
AcDbPolyline
90
11
70
0
10
296.168652
20
152.469535
10
296.252530
20
152.715044
10
296.384304
20
152.957409
10
296.537886
20
153.154296
10
296.635523
20
153.252417
10
296.748324
20
153.347355
10
296.973862
20
153.492497
10
297.218913
20
153.598414
10
297.370102
20
153.641660
10
297.509346
20
153.668050
10
297.745087
20
153.685080
0
LWPOLYLINE
100
AcDbEntity
8
VISIBLE
6
CONTINUOUS
370
35
100
AcDbPolyline
90
2
70
0
10
296.707000
20
152.485080
10
296.707000
20
152.085080
0
LWPOLYLINE
100
AcDbEntity
8
VISIBLE
6
CONTINUOUS
370
35
100
AcDbPolyline
90
3
70
0
10
296.120899
20
152.085080
10
296.132753
20
152.277568
10
296.168652
20
152.469535
0
LWPOLYLINE
100
AcDbEntity
8
VISIBLE
6
CONTINUOUS
370
35
100
AcDbPolyline
90
2
70
0
10
296.120899
20
143.385080
10
296.120899
20
152.085080
0
LWPOLYLINE
100
AcDbEntity
8
VISIBLE
6
CONTINUOUS
370
35
100
AcDbPolyline
90
2
70
0
10
296.707000
20
152.085080
10
296.707000
20
143.385080
0
LWPOLYLINE
100
AcDbEntity
8
VISIBLE
6
CONTINUOUS
370
35
100
AcDbPolyline
90
4
70
0
10
290.770709
20
153.680215
10
290.804522
20
153.683110
10
290.861962
20
153.685078
10
290.864000
20
153.685080
0
LWPOLYLINE
100
AcDbEntity
8
VISIBLE
6
CONTINUOUS
370
35
100
AcDbPolyline
90
2
70
0
10
290.770709
20
153.680215
10
290.864000
20
153.685080
0
LWPOLYLINE
100
AcDbEntity
8
VISIBLE
6
CONTINUOUS
370
35
100
AcDbPolyline
90
15
70
0
10
290.267378
20
152.485080
10
290.330150
20
152.483445
10
290.392233
20
152.481827
10
290.452944
20
152.480245
10
290.511617
20
152.478716
10
290.567608
20
152.477258
10
290.620301
20
152.475885
10
290.669118
20
152.474613
10
290.713523
20
152.473456
10
290.753028
20
152.472427
10
290.787199
20
152.471536
10
290.815661
20
152.470795
10
290.838102
20
152.470210
10
290.854274
20
152.469789
10
290.864000
20
152.469535
0
LWPOLYLINE
100
AcDbEntity
8
VISIBLE
6
CONTINUOUS
370
35
100
AcDbPolyline
90
5
70
0
10
290.864000
20
153.685080
10
290.864064
20
153.668040
10
290.864000
20
153.598342
10
290.864000
20
153.347184
10
290.864000
20
152.469535
0
LWPOLYLINE
100
AcDbEntity
8
VISIBLE
6
CONTINUOUS
370
35
100
AcDbPolyline
90
9
70
0
10
290.267378
20
152.485080
10
290.283333
20
152.717857
10
290.312728
20
152.938014
10
290.355369
20
153.138625
10
290.411914
20
153.317760
10
290.480076
20
153.464144
10
290.558655
20
153.573275
10
290.650536
20
153.645553
10
290.770709
20
153.680215
0
LWPOLYLINE
100
AcDbEntity
8
VISIBLE
6
CONTINUOUS
370
35
100
AcDbPolyline
90
2
70
0
10
290.864000
20
152.469535
10
290.864000
20
152.085080
0
LWPOLYLINE
100
AcDbEntity
8
VISIBLE
6
CONTINUOUS
370
35
100
AcDbPolyline
90
2
70
0
10
290.264161
20
152.085080
10
290.267378
20
152.485080
0
LWPOLYLINE
100
AcDbEntity
8
VISIBLE
6
CONTINUOUS
370
35
100
AcDbPolyline
90
2
70
0
10
290.864000
20
152.085080
10
290.864000
20
143.385080
0
LWPOLYLINE
100
AcDbEntity
8
VISIBLE
6
CONTINUOUS
370
35
100
AcDbPolyline
90
2
70
0
10
288.316000
20
153.685080
10
288.409291
20
153.680215
0
LWPOLYLINE
100
AcDbEntity
8
VISIBLE
6
CONTINUOUS
370
35
100
AcDbPolyline
90
4
70
0
10
288.316000
20
153.685080
10
288.318038
20
153.685078
10
288.375478
20
153.683110
10
288.409291
20
153.680215
0
LWPOLYLINE
100
AcDbEntity
8
VISIBLE
6
CONTINUOUS
370
35
100
AcDbPolyline
90
15
70
0
10
288.316000
20
152.469535
10
288.325726
20
152.469789
10
288.341898
20
152.470210
10
288.364339
20
152.470795
10
288.392801
20
152.471536
10
288.426972
20
152.472427
10
288.466477
20
152.473456
10
288.510882
20
152.474613
10
288.559699
20
152.475885
10
288.612392
20
152.477258
10
288.668383
20
152.478716
10
288.727056
20
152.480245
10
288.787767
20
152.481827
10
288.849850
20
152.483445
10
288.912622
20
152.485080
0
LWPOLYLINE
100
AcDbEntity
8
VISIBLE
6
CONTINUOUS
370
35
100
AcDbPolyline
90
9
70
0
10
288.409291
20
153.680215
10
288.529464
20
153.645553
10
288.621345
20
153.573275
10
288.699919
20
153.464153
10
288.768086
20
153.317760
10
288.824627
20
153.138637
10
288.867272
20
152.938014
10
288.896666
20
152.717814
10
288.912622
20
152.485080
0
LWPOLYLINE
100
AcDbEntity
8
VISIBLE
6
CONTINUOUS
370
35
100
AcDbPolyline
90
5
70
0
10
288.316000
20
152.469535
10
288.316000
20
153.347355
10
288.316000
20
153.598414
10
288.315936
20
153.668050
10
288.316000
20
153.685080
0
LWPOLYLINE
100
AcDbEntity
8
VISIBLE
6
CONTINUOUS
370
35
100
AcDbPolyline
90
2
70
0
10
288.912622
20
152.485080
10
288.915839
20
152.085080
0
LWPOLYLINE
100
AcDbEntity
8
VISIBLE
6
CONTINUOUS
370
35
100
AcDbPolyline
90
2
70
0
10
288.316000
20
152.085080
10
288.316000
20
152.469535
0
LWPOLYLINE
100
AcDbEntity
8
VISIBLE
6
CONTINUOUS
370
35
100
AcDbPolyline
90
2
70
0
10
288.316000
20
143.385080
10
288.316000
20
152.085080
0
LWPOLYLINE
100
AcDbEntity
8
VISIBLE
6
CONTINUOUS
370
35
100
AcDbPolyline
90
2
70
0
10
273.060000
20
157.535080
10
273.060000
20
154.135080
0
LWPOLYLINE
100
AcDbEntity
8
VISIBLE
6
CONTINUOUS
370
35
100
AcDbPolyline
90
2
70
0
10
306.120000
20
157.535080
10
306.120000
20
154.135080
0
LWPOLYLINE
100
AcDbEntity
8
VISIBLE
6
CONTINUOUS
370
35
100
AcDbPolyline
90
15
70
0
10
305.670000
20
153.685080
10
305.266841
20
153.685080
10
304.077579
20
153.685080
10
302.161850
20
153.685080
10
299.615716
20
153.685080
10
296.566851
20
153.685080
10
293.168137
20
153.685080
10
289.590000
20
153.685080
10
286.011863
20
153.685080
10
282.613149
20
153.685080
10
279.564284
20
153.685080
10
277.018150
20
153.685080
10
275.102421
20
153.685080
10
273.913159
20
153.685080
10
273.510000
20
153.685080
0
LWPOLYLINE
100
AcDbEntity
8
VISIBLE
6
CONTINUOUS
370
35
100
AcDbPolyline
90
15
70
0
10
273.510000
20
157.985080
10
273.913159
20
157.985080
10
275.102421
20
157.985080
10
277.018150
20
157.985080
10
279.564284
20
157.985080
10
282.613149
20
157.985080
10
286.011863
20
157.985080
10
289.590000
20
157.985080
10
293.168137
20
157.985080
10
296.566851
20
157.985080
10
299.615716
20
157.985080
10
302.161850
20
157.985080
10
304.077579
20
157.985080
10
305.266841
20
157.985080
10
305.670000
20
157.985080
0
LWPOLYLINE
100
AcDbEntity
8
VISIBLE
6
CONTINUOUS
370
35
100
AcDbPolyline
90
15
70
0
10
306.120000
20
157.535080
10
305.705558
20
157.535080
10
304.483015
20
157.535080
10
302.513674
20
157.535080
10
299.896286
20
157.535080
10
296.762098
20
157.535080
10
293.268271
20
157.535080
10
289.590000
20
157.535080
10
285.911729
20
157.535080
10
282.417902
20
157.535080
10
279.283714
20
157.535080
10
276.666326
20
157.535080
10
274.696985
20
157.535080
10
273.474442
20
157.535080
10
273.060000
20
157.535080
0
LWPOLYLINE
100
AcDbEntity
8
VISIBLE
6
CONTINUOUS
370
35
100
AcDbPolyline
90
15
70
0
10
273.060000
20
154.135080
10
273.474442
20
154.135080
10
274.696985
20
154.135080
10
276.666326
20
154.135080
10
279.283714
20
154.135080
10
282.417902
20
154.135080
10
285.911729
20
154.135080
10
289.590000
20
154.135080
10
293.268271
20
154.135080
10
296.762098
20
154.135080
10
299.896286
20
154.135080
10
302.513674
20
154.135080
10
304.483015
20
154.135080
10
305.705558
20
154.135080
10
306.120000
20
154.135080
0
LWPOLYLINE
100
AcDbEntity
8
VISIBLE
6
CONTINUOUS
370
35
100
AcDbPolyline
90
2
70
0
10
281.273000
20
153.685080
10
281.273224
20
153.685080
0
LWPOLYLINE
100
AcDbEntity
8
VISIBLE
6
CONTINUOUS
370
35
100
AcDbPolyline
90
2
70
0
10
281.273000
20
153.685080
10
281.380942
20
153.680215
0
LWPOLYLINE
100
AcDbEntity
8
VISIBLE
6
CONTINUOUS
370
35
100
AcDbPolyline
90
2
70
0
10
297.799058
20
153.680215
10
297.907000
20
153.685080
0
LWPOLYLINE
100
AcDbEntity
8
VISIBLE
6
CONTINUOUS
370
35
100
AcDbPolyline
90
2
70
0
10
288.316000
20
153.685080
10
288.316014
20
153.685080
0
LWPOLYLINE
100
AcDbEntity
8
CENTER
6
CENTER
370
18
100
AcDbPolyline
90
2
70
0
10
166.805019
20
194.777521
10
176.615019
20
194.777521
0
LWPOLYLINE
100
AcDbEntity
8
CENTER
6
CENTER
370
18
100
AcDbPolyline
90
2
70
0
10
171.710019
20
189.872521
10
171.710019
20
199.682521
0
LWPOLYLINE
100
AcDbEntity
8
CENTER
6
CENTER
370
18
100
AcDbPolyline
90
2
70
0
10
171.310470
20
186.644411
10
179.494870
20
186.644411
0
LWPOLYLINE
100
AcDbEntity
8
CENTER
6
CENTER
370
18
100
AcDbPolyline
90
2
70
0
10
175.402670
20
182.552211
10
175.402670
20
190.736611
0
LWPOLYLINE
100
AcDbEntity
8
CENTER
6
CENTER
370
18
100
AcDbPolyline
90
2
70
0
10
171.362457
20
202.916552
10
179.546857
20
202.916552
0
LWPOLYLINE
100
AcDbEntity
8
CENTER
6
CENTER
370
18
100
AcDbPolyline
90
2
70
0
10
175.454657
20
198.824352
10
175.454657
20
207.008752
0
LWPOLYLINE
100
AcDbEntity
8
CENTER
6
CENTER
370
18
100
AcDbPolyline
90
2
70
0
10
178.493299
20
206.609203
10
188.303299
20
206.609203
0
LWPOLYLINE
100
AcDbEntity
8
CENTER
6
CENTER
370
18
100
AcDbPolyline
90
2
70
0
10
183.398299
20
201.704203
10
183.398299
20
211.514203
0
LWPOLYLINE
100
AcDbEntity
8
CENTER
6
CENTER
370
18
100
AcDbPolyline
90
2
70
0
10
163.940000
20
194.849222
10
203.000000
20
194.849222
0
LWPOLYLINE
100
AcDbEntity
8
CENTER
6
CENTER
370
18
100
AcDbPolyline
90
2
70
0
10
183.470000
20
175.319222
10
183.470000
20
214.379222
0
LWPOLYLINE
100
AcDbEntity
8
CENTER
6
CENTER
370
18
100
AcDbPolyline
90
2
70
0
10
178.636701
20
183.089241
10
188.446701
20
183.089241
0
LWPOLYLINE
100
AcDbEntity
8
CENTER
6
CENTER
370
18
100
AcDbPolyline
90
2
70
0
10
183.541701
20
178.184241
10
183.541701
20
187.994241
0
LWPOLYLINE
100
AcDbEntity
8
CENTER
6
CENTER
370
18
100
AcDbPolyline
90
2
70
0
10
187.582611
20
186.592424
10
195.767011
20
186.592424
0
LWPOLYLINE
100
AcDbEntity
8
CENTER
6
CENTER
370
18
100
AcDbPolyline
90
2
70
0
10
191.674811
20
182.500224
10
191.674811
20
190.684624
0
LWPOLYLINE
100
AcDbEntity
8
CENTER
6
CENTER
370
18
100
AcDbPolyline
90
2
70
0
10
187.634598
20
202.864565
10
195.818998
20
202.864565
0
LWPOLYLINE
100
AcDbEntity
8
CENTER
6
CENTER
370
18
100
AcDbPolyline
90
2
70
0
10
191.726798
20
198.772365
10
191.726798
20
206.956765
0
LWPOLYLINE
100
AcDbEntity
8
CENTER
6
CENTER
370
18
100
AcDbPolyline
90
2
70
0
10
190.324981
20
194.920923
10
200.134981
20
194.920923
0
LWPOLYLINE
100
AcDbEntity
8
CENTER
6
CENTER
370
18
100
AcDbPolyline
90
2
70
0
10
195.229981
20
190.015923
10
195.229981
20
199.825923
0
LWPOLYLINE
100
AcDbEntity
8
VISIBLE
6
CONTINUOUS
370
35
100
AcDbPolyline
90
16
70
0
10
192.818998
20
202.864565
10
192.795131
20
202.637483
10
192.724573
20
202.420327
10
192.610407
20
202.222586
10
192.457623
20
202.052902
10
192.272898
20
201.918692
10
192.064307
20
201.825821
10
191.840964
20
201.778348
10
191.612632
20
201.778348
10
191.389290
20
201.825821
10
191.180698
20
201.918692
10
190.995974
20
202.052902
10
190.843190
20
202.222586
10
190.729024
20
202.420327
10
190.658466
20
202.637483
10
190.634598
20
202.864565
0
LWPOLYLINE
100
AcDbEntity
8
VISIBLE
6
CONTINUOUS
370
35
100
AcDbPolyline
90
16
70
0
10
176.546857
20
202.916552
10
176.522990
20
202.689471
10
176.452432
20
202.472314
10
176.338266
20
202.274573
10
176.185482
20
202.104889
10
176.000757
20
201.970679
10
175.792166
20
201.877808
10
175.568823
20
201.830335
10
175.340491
20
201.830335
10
175.117149
20
201.877808
10
174.908557
20
201.970679
10
174.723833
20
202.104889
10
174.571049
20
202.274573
10
174.456883
20
202.472314
10
174.386325
20
202.689471
10
174.362457
20
202.916552
0
LWPOLYLINE
100
AcDbEntity
8
VISIBLE
6
CONTINUOUS
370
35
100
AcDbPolyline
90
16
70
0
10
176.494870
20
186.644411
10
176.471003
20
186.417330
10
176.400444
20
186.200173
10
176.286278
20
186.002432
10
176.133494
20
185.832748
10
175.948770
20
185.698538
10
175.740178
20
185.605667
10
175.516836
20
185.558194
10
175.288504
20
185.558194
10
175.065161
20
185.605667
10
174.856570
20
185.698538
10
174.671845
20
185.832748
10
174.519061
20
186.002432
10
174.404895
20
186.200173
10
174.334337
20
186.417330
10
174.310470
20
186.644411
0
LWPOLYLINE
100
AcDbEntity
8
VISIBLE
6
CONTINUOUS
370
35
100
AcDbPolyline
90
16
70
0
10
192.767011
20
186.592424
10
192.743144
20
186.365342
10
192.672585
20
186.148186
10
192.558419
20
185.950444
10
192.405635
20
185.780761
10
192.220911
20
185.646551
10
192.012319
20
185.553680
10
191.788977
20
185.506207
10
191.560645
20
185.506207
10
191.337302
20
185.553680
10
191.128711
20
185.646551
10
190.943986
20
185.780761
10
190.791202
20
185.950444
10
190.677036
20
186.148186
10
190.606478
20
186.365342
10
190.582611
20
186.592424
0
LWPOLYLINE
100
AcDbEntity
8
VISIBLE
6
CONTINUOUS
370
35
100
AcDbPolyline
90
12
70
0
10
173.070000
20
186.549222
10
173.091375
20
186.250361
10
173.155065
20
185.957584
10
173.259773
20
185.676850
10
173.403368
20
185.413876
10
173.582926
20
185.174014
10
173.794792
20
184.962148
10
174.034654
20
184.782590
10
174.297628
20
184.638995
10
174.578362
20
184.534287
10
174.871139
20
184.470597
10
175.170000
20
184.449222
0
LWPOLYLINE
100
AcDbEntity
8
VISIBLE
6
CONTINUOUS
370
35
100
AcDbPolyline
90
12
70
0
10
191.770000
20
184.449222
10
192.068861
20
184.470597
10
192.361638
20
184.534287
10
192.642372
20
184.638995
10
192.905346
20
184.782590
10
193.145208
20
184.962148
10
193.357074
20
185.174014
10
193.536632
20
185.413876
10
193.680227
20
185.676850
10
193.784935
20
185.957584
10
193.848625
20
186.250361
10
193.870000
20
186.549222
0
LWPOLYLINE
100
AcDbEntity
8
VISIBLE
6
CONTINUOUS
370
35
100
AcDbPolyline
90
12
70
0
10
175.170000
20
205.249222
10
174.871139
20
205.227847
10
174.578362
20
205.164157
10
174.297628
20
205.059449
10
174.034654
20
204.915854
10
173.794792
20
204.736296
10
173.582926
20
204.524429
10
173.403368
20
204.284568
10
173.259773
20
204.021593
10
173.155065
20
203.740860
10
173.091375
20
203.448083
10
173.070000
20
203.149222
0
LWPOLYLINE
100
AcDbEntity
8
VISIBLE
6
CONTINUOUS
370
35
100
AcDbPolyline
90
12
70
0
10
193.870000
20
203.149222
10
193.848625
20
203.448083
10
193.784935
20
203.740860
10
193.680227
20
204.021593
10
193.536632
20
204.284568
10
193.357074
20
204.524429
10
193.145208
20
204.736296
10
192.905346
20
204.915854
10
192.642372
20
205.059449
10
192.361638
20
205.164157
10
192.068861
20
205.227847
10
191.770000
20
205.249222
0
LWPOLYLINE
100
AcDbEntity
8
VISIBLE
6
CONTINUOUS
370
35
100
AcDbPolyline
90
2
70
0
10
173.070000
20
186.549222
10
173.070000
20
203.149222
0
LWPOLYLINE
100
AcDbEntity
8
VISIBLE
6
CONTINUOUS
370
35
100
AcDbPolyline
90
2
70
0
10
175.170000
20
205.249222
10
191.770000
20
205.249222
0
LWPOLYLINE
100
AcDbEntity
8
VISIBLE
6
CONTINUOUS
370
35
100
AcDbPolyline
90
2
70
0
10
191.770000
20
184.449222
10
175.170000
20
184.449222
0
LWPOLYLINE
100
AcDbEntity
8
VISIBLE
6
CONTINUOUS
370
35
100
AcDbPolyline
90
2
70
0
10
193.870000
20
203.149222
10
193.870000
20
186.549222
0
LWPOLYLINE
100
AcDbEntity
8
VISIBLE
6
CONTINUOUS
370
35
100
AcDbPolyline
90
59
70
0
10
199.550000
20
194.849222
10
199.526417
20
195.719776
10
199.455738
20
196.587776
10
199.338170
20
197.450676
10
199.174059
20
198.305947
10
198.963884
20
199.151078
10
198.708263
20
199.983591
10
198.407946
20
200.801043
10
198.063813
20
201.601039
10
197.676874
20
202.381230
10
197.248263
20
203.139328
10
196.779239
20
203.873110
10
196.271176
20
204.580423
10
195.725566
20
205.259193
10
195.144008
20
205.907429
10
194.528207
20
206.523229
10
193.879971
20
207.104788
10
193.201201
20
207.650398
10
192.493888
20
208.158461
10
191.760106
20
208.627485
10
191.002008
20
209.056096
10
190.221817
20
209.443035
10
189.421822
20
209.787168
10
188.604369
20
210.087485
10
187.771856
20
210.343106
10
186.926725
20
210.553280
10
186.071455
20
210.717392
10
185.208554
20
210.834960
10
184.340554
20
210.905639
10
183.470000
20
210.929222
10
182.599446
20
210.905639
10
181.731446
20
210.834960
10
180.868545
20
210.717392
10
180.013275
20
210.553280
10
179.168144
20
210.343106
10
178.335631
20
210.087485
10
177.518178
20
209.787168
10
176.718183
20
209.443035
10
175.937992
20
209.056096
10
175.179894
20
208.627485
10
174.446112
20
208.158461
10
173.738799
20
207.650398
10
173.060029
20
207.104788
10
172.411793
20
206.523229
10
171.795992
20
205.907429
10
171.214434
20
205.259193
10
170.668824
20
204.580423
10
170.160761
20
203.873110
10
169.691737
20
203.139328
10
169.263126
20
202.381230
10
168.876187
20
201.601039
10
168.532054
20
200.801043
10
168.231737
20
199.983591
10
167.976116
20
199.151078
10
167.765941
20
198.305947
10
167.601830
20
197.450676
10
167.484262
20
196.587776
10
167.413583
20
195.719776
10
167.390000
20
194.849222
0
LWPOLYLINE
100
AcDbEntity
8
VISIBLE
6
CONTINUOUS
370
35
100
AcDbPolyline
90
60
70
0
10
166.940000
20
194.849222
10
166.963428
20
195.728985
10
167.033646
20
196.606253
10
167.150454
20
197.478542
10
167.313522
20
198.343377
10
167.522387
20
199.198307
10
167.776458
20
200.040910
10
168.075013
20
200.868796
10
168.417207
20
201.679619
10
168.802070
20
202.471081
10
169.228511
20
203.240938
10
169.695321
20
203.987007
10
170.201177
20
204.707174
10
170.744644
20
205.399398
10
171.324183
20
206.061717
10
171.938151
20
206.692252
10
172.584807
20
207.289217
10
173.262318
20
207.850919
10
173.968764
20
208.375767
10
174.702142
20
208.862272
10
175.460374
20
209.309056
10
176.241310
20
209.714851
10
177.042736
20
210.078509
10
177.862382
20
210.398997
10
178.697922
20
210.675408
10
179.546990
20
210.906958
10
180.407177
20
211.092991
10
181.276047
20
211.232978
10
182.151136
20
211.326524
10
183.029963
20
211.373364
10
183.910037
20
211.373364
10
184.788864
20
211.326524
10
185.663953
20
211.232978
10
186.532823
20
211.092991
10
187.393010
20
210.906958
10
188.242078
20
210.675408
10
189.077618
20
210.398997
10
189.897264
20
210.078509
10
190.698690
20
209.714851
10
191.479626
20
209.309056
10
192.237858
20
208.862272
10
192.971236
20
208.375767
10
193.677682
20
207.850919
10
194.355193
20
207.289217
10
195.001849
20
206.692252
10
195.615817
20
206.061717
10
196.195356
20
205.399398
10
196.738823
20
204.707174
10
197.244679
20
203.987007
10
197.711489
20
203.240938
10
198.137930
20
202.471081
10
198.522793
20
201.679619
10
198.864987
20
200.868796
10
199.163542
20
200.040910
10
199.417613
20
199.198307
10
199.626478
20
198.343377
10
199.789546
20
197.478542
10
199.906354
20
196.606253
10
199.976572
20
195.728985
10
200.000000
20
194.849222
0
LWPOLYLINE
100
AcDbEntity
8
VISIBLE
6
CONTINUOUS
370
35
100
AcDbPolyline
90
34
70
0
10
188.570236
20
194.849222
10
188.547142
20
195.334030
10
188.478068
20
195.814448
10
188.363641
20
196.286125
10
188.204896
20
196.744788
10
188.003271
20
197.186285
10
187.760592
20
197.606618
10
187.479057
20
198.001979
10
187.161215
20
198.368788
10
186.809944
20
198.703723
10
186.428427
20
199.003752
10
186.020118
20
199.266156
10
185.588715
20
199.488560
10
185.138124
20
199.668949
10
184.672426
20
199.805691
10
184.195839
20
199.897545
10
183.712679
20
199.943681
10
183.227321
20
199.943681
10
182.744161
20
199.897545
10
182.267574
20
199.805691
10
181.801876
20
199.668949
10
181.351285
20
199.488560
10
180.919882
20
199.266156
10
180.511573
20
199.003752
10
180.130056
20
198.703723
10
179.778785
20
198.368788
10
179.460943
20
198.001979
10
179.179408
20
197.606618
10
178.936729
20
197.186285
10
178.735104
20
196.744788
10
178.576359
20
196.286125
10
178.461932
20
195.814448
10
178.392858
20
195.334030
10
178.369764
20
194.849222
0
LWPOLYLINE
100
AcDbEntity
8
VISIBLE
6
CONTINUOUS
370
35
100
AcDbPolyline
90
35
70
0
10
189.020236
20
194.849222
10
188.996560
20
195.361333
10
188.925733
20
195.869075
10
188.808360
20
196.368116
10
188.645441
20
196.854199
10
188.438368
20
197.323175
10
188.188906
20
197.771045
10
187.899184
20
198.193987
10
187.571674
20
198.588392
10
187.209170
20
198.950896
10
186.814765
20
199.278406
10
186.391823
20
199.568128
10
185.943953
20
199.817590
10
185.474977
20
200.024663
10
184.988894
20
200.187582
10
184.489853
20
200.304955
10
183.982111
20
200.375782
10
183.470000
20
200.399458
10
182.957889
20
200.375782
10
182.450147
20
200.304955
10
181.951106
20
200.187582
10
181.465023
20
200.024663
10
180.996047
20
199.817590
10
180.548177
20
199.568128
10
180.125235
20
199.278406
10
179.730830
20
198.950896
10
179.368326
20
198.588392
10
179.040816
20
198.193987
10
178.751094
20
197.771045
10
178.501632
20
197.323175
10
178.294559
20
196.854199
10
178.131640
20
196.368116
10
178.014267
20
195.869075
10
177.943440
20
195.361333
10
177.919764
20
194.849222
0
LWPOLYLINE
100
AcDbEntity
8
VISIBLE
6
CONTINUOUS
370
35
100
AcDbPolyline
90
34
70
0
10
178.470000
20
194.849222
10
178.492640
20
194.373942
10
178.560357
20
193.902966
10
178.672535
20
193.440559
10
178.828160
20
192.990910
10
179.025823
20
192.558089
10
179.263732
20
192.146018
10
179.539735
20
191.758427
10
179.851330
20
191.398827
10
180.195696
20
191.070474
10
180.569715
20
190.776342
10
180.970000
20
190.519095
10
181.392925
20
190.301062
10
181.834660
20
190.124218
10
182.291205
20
189.990164
10
182.758426
20
189.900115
10
183.232090
20
189.854885
10
183.707910
20
189.854885
10
184.181574
20
189.900115
10
184.648795
20
189.990164
10
185.105340
20
190.124218
10
185.547075
20
190.301062
10
185.970000
20
190.519095
10
186.370285
20
190.776342
10
186.744304
20
191.070474
10
187.088670
20
191.398827
10
187.400265
20
191.758427
10
187.676268
20
192.146018
10
187.914177
20
192.558089
10
188.111840
20
192.990910
10
188.267465
20
193.440559
10
188.379643
20
193.902966
10
188.447360
20
194.373942
10
188.470000
20
194.849222
0
LWPOLYLINE
100
AcDbEntity
8
VISIBLE
6
CONTINUOUS
370
35
100
AcDbPolyline
90
34
70
0
10
188.470000
20
194.849222
10
188.447360
20
195.324502
10
188.379643
20
195.795478
10
188.267465
20
196.257885
10
188.111840
20
196.707534
10
187.914177
20
197.140355
10
187.676268
20
197.552426
10
187.400265
20
197.940017
10
187.088670
20
198.299617
10
186.744304
20
198.627970
10
186.370285
20
198.922102
10
185.970000
20
199.179349
10
185.547075
20
199.397382
10
185.105340
20
199.574226
10
184.648795
20
199.708280
10
184.181574
20
199.798329
10
183.707910
20
199.843559
10
183.232090
20
199.843559
10
182.758426
20
199.798329
10
182.291205
20
199.708280
10
181.834660
20
199.574226
10
181.392925
20
199.397382
10
180.970000
20
199.179349
10
180.569715
20
198.922102
10
180.195696
20
198.627970
10
179.851330
20
198.299617
10
179.539735
20
197.940017
10
179.263732
20
197.552426
10
179.025823
20
197.140355
10
178.828160
20
196.707534
10
178.672535
20
196.257885
10
178.560357
20
195.795478
10
178.492640
20
195.324502
10
178.470000
20
194.849222
0
LWPOLYLINE
100
AcDbEntity
8
VISIBLE
6
CONTINUOUS
370
35
100
AcDbPolyline
90
34
70
0
10
178.369764
20
194.849222
10
178.392858
20
194.364414
10
178.461932
20
193.883996
10
178.576359
20
193.412319
10
178.735104
20
192.953656
10
178.936729
20
192.512158
10
179.179408
20
192.091826
10
179.460943
20
191.696465
10
179.778785
20
191.329656
10
180.130056
20
190.994721
10
180.511573
20
190.694692
10
180.919882
20
190.432288
10
181.351285
20
190.209884
10
181.801876
20
190.029494
10
182.267574
20
189.892753
10
182.744161
20
189.800899
10
183.227321
20
189.754762
10
183.712679
20
189.754762
10
184.195839
20
189.800899
10
184.672426
20
189.892753
10
185.138124
20
190.029494
10
185.588715
20
190.209884
10
186.020118
20
190.432288
10
186.428427
20
190.694692
10
186.809944
20
190.994721
10
187.161215
20
191.329656
10
187.479057
20
191.696465
10
187.760592
20
192.091826
10
188.003271
20
192.512158
10
188.204896
20
192.953656
10
188.363641
20
193.412319
10
188.478068
20
193.883996
10
188.547142
20
194.364414
10
188.570236
20
194.849222
0
LWPOLYLINE
100
AcDbEntity
8
VISIBLE
6
CONTINUOUS
370
35
100
AcDbPolyline
90
39
70
0
10
176.670000
20
194.849222
10
176.693225
20
194.287682
10
176.762743
20
193.729979
10
176.878078
20
193.179921
10
177.038443
20
192.641266
10
177.242741
20
192.117693
10
177.489578
20
191.612780
10
177.777268
20
191.129974
10
178.103845
20
190.672576
10
178.467077
20
190.243707
10
178.864485
20
189.846299
10
179.293354
20
189.483066
10
179.750753
20
189.156490
10
180.233558
20
188.868800
10
180.738471
20
188.621963
10
181.262044
20
188.417665
10
181.800699
20
188.257300
10
182.350757
20
188.141965
10
182.908460
20
188.072447
10
183.470000
20
188.049222
10
184.031540
20
188.072447
10
184.589243
20
188.141965
10
185.139301
20
188.257300
10
185.677956
20
188.417665
10
186.201529
20
188.621963
10
186.706442
20
188.868800
10
187.189247
20
189.156490
10
187.646646
20
189.483066
10
188.075515
20
189.846299
10
188.472923
20
190.243707
10
188.836155
20
190.672576
10
189.162732
20
191.129974
10
189.450422
20
191.612780
10
189.697259
20
192.117693
10
189.901557
20
192.641266
10
190.061922
20
193.179921
10
190.177257
20
193.729979
10
190.246775
20
194.287682
10
190.270000
20
194.849222
0
LWPOLYLINE
100
AcDbEntity
8
VISIBLE
6
CONTINUOUS
370
35
100
AcDbPolyline
90
39
70
0
10
190.270000
20
194.849222
10
190.246775
20
195.410762
10
190.177257
20
195.968465
10
190.061922
20
196.518523
10
189.901557
20
197.057178
10
189.697259
20
197.580751
10
189.450422
20
198.085664
10
189.162732
20
198.568469
10
188.836155
20
199.025868
10
188.472923
20
199.454737
10
188.075515
20
199.852145
10
187.646646
20
200.215377
10
187.189247
20
200.541954
10
186.706442
20
200.829643
10
186.201529
20
201.076481
10
185.677956
20
201.280779
10
185.139301
20
201.441144
10
184.589243
20
201.556479
10
184.031540
20
201.625997
10
183.470000
20
201.649222
10
182.908460
20
201.625997
10
182.350757
20
201.556479
10
181.800699
20
201.441144
10
181.262044
20
201.280779
10
180.738471
20
201.076481
10
180.233558
20
200.829643
10
179.750753
20
200.541954
10
179.293354
20
200.215377
10
178.864485
20
199.852145
10
178.467077
20
199.454737
10
178.103845
20
199.025868
10
177.777268
20
198.568469
10
177.489578
20
198.085664
10
177.242741
20
197.580751
10
177.038443
20
197.057178
10
176.878078
20
196.518523
10
176.762743
20
195.968465
10
176.693225
20
195.410762
10
176.670000
20
194.849222
0
LWPOLYLINE
100
AcDbEntity
8
VISIBLE
6
CONTINUOUS
370
35
100
AcDbPolyline
90
41
70
0
10
175.970000
20
194.849222
10
175.993120
20
194.260779
10
176.062337
20
193.675963
10
176.177226
20
193.098382
10
176.337076
20
192.531594
10
176.540904
20
191.979096
10
176.787451
20
191.444293
10
177.075199
20
190.930483
10
177.402373
20
190.440833
10
177.766955
20
189.978362
10
178.166699
20
189.545921
10
178.599140
20
189.146177
10
179.061611
20
188.781594
10
179.551261
20
188.454421
10
180.065071
20
188.166673
10
180.599874
20
187.920125
10
181.152373
20
187.716298
10
181.719160
20
187.556448
10
182.296742
20
187.441559
10
182.881557
20
187.372342
10
183.470000
20
187.349222
10
184.058443
20
187.372342
10
184.643258
20
187.441559
10
185.220840
20
187.556448
10
185.787627
20
187.716298
10
186.340126
20
187.920125
10
186.874929
20
188.166673
10
187.388739
20
188.454421
10
187.878389
20
188.781594
10
188.340860
20
189.146177
10
188.773301
20
189.545921
10
189.173045
20
189.978362
10
189.537627
20
190.440833
10
189.864801
20
190.930483
10
190.152549
20
191.444293
10
190.399096
20
191.979096
10
190.602924
20
192.531594
10
190.762774
20
193.098382
10
190.877663
20
193.675963
10
190.946880
20
194.260779
10
190.970000
20
194.849222
0
LWPOLYLINE
100
AcDbEntity
8
VISIBLE
6
CONTINUOUS
370
35
100
AcDbPolyline
90
43
70
0
10
191.820000
20
194.849222
10
191.796652
20
195.473218
10
191.726737
20
196.093725
10
191.610648
20
196.707272
10
191.449033
20
197.310428
10
191.242796
20
197.899820
10
190.993090
20
198.472151
10
190.701312
20
199.024222
10
190.369094
20
199.552944
10
189.998293
20
200.055362
10
189.590983
20
200.528664
10
189.149442
20
200.970205
10
188.676140
20
201.377515
10
188.173722
20
201.748316
10
187.645000
20
202.080534
10
187.092929
20
202.372312
10
186.520598
20
202.622018
10
185.931206
20
202.828255
10
185.328050
20
202.989870
10
184.714503
20
203.105959
10
184.093996
20
203.175874
10
183.470000
20
203.199222
10
182.846004
20
203.175874
10
182.225497
20
203.105959
10
181.611950
20
202.989870
10
181.008794
20
202.828255
10
180.419402
20
202.622018
10
179.847071
20
202.372312
10
179.295000
20
202.080534
10
178.766278
20
201.748316
10
178.263860
20
201.377515
10
177.790558
20
200.970205
10
177.349017
20
200.528664
10
176.941707
20
200.055362
10
176.570906
20
199.552944
10
176.238688
20
199.024222
10
175.946910
20
198.472151
10
175.697204
20
197.899820
10
175.490967
20
197.310428
10
175.329352
20
196.707272
10
175.213263
20
196.093725
10
175.143348
20
195.473218
10
175.120000
20
194.849222
0
LWPOLYLINE
100
AcDbEntity
8
VISIBLE
6
CONTINUOUS
370
35
100
AcDbPolyline
90
41
70
0
10
190.970000
20
194.849222
10
190.946880
20
195.437665
10
190.877663
20
196.022480
10
190.762774
20
196.600062
10
190.602924
20
197.166849
10
190.399096
20
197.719348
10
190.152549
20
198.254151
10
189.864801
20
198.767961
10
189.537627
20
199.257611
10
189.173045
20
199.720082
10
188.773301
20
200.152523
10
188.340860
20
200.552267
10
187.878389
20
200.916849
10
187.388739
20
201.244023
10
186.874929
20
201.531771
10
186.340126
20
201.778318
10
185.787627
20
201.982146
10
185.220840
20
202.141996
10
184.643258
20
202.256885
10
184.058443
20
202.326102
10
183.470000
20
202.349222
10
182.881557
20
202.326102
10
182.296742
20
202.256885
10
181.719160
20
202.141996
10
181.152373
20
201.982146
10
180.599874
20
201.778318
10
180.065071
20
201.531771
10
179.551261
20
201.244023
10
179.061611
20
200.916849
10
178.599140
20
200.552267
10
178.166699
20
200.152523
10
177.766955
20
199.720082
10
177.402373
20
199.257611
10
177.075199
20
198.767961
10
176.787451
20
198.254151
10
176.540904
20
197.719348
10
176.337076
20
197.166849
10
176.177226
20
196.600062
10
176.062337
20
196.022480
10
175.993120
20
195.437665
10
175.970000
20
194.849222
0
LWPOLYLINE
100
AcDbEntity
8
VISIBLE
6
CONTINUOUS
370
35
100
AcDbPolyline
90
43
70
0
10
175.120000
20
194.849222
10
175.143348
20
194.225226
10
175.213263
20
193.604719
10
175.329352
20
192.991172
10
175.490967
20
192.388016
10
175.697204
20
191.798624
10
175.946910
20
191.226293
10
176.238688
20
190.674222
10
176.570906
20
190.145499
10
176.941707
20
189.643082
10
177.349017
20
189.169780
10
177.790558
20
188.728239
10
178.263860
20
188.320929
10
178.766278
20
187.950128
10
179.295000
20
187.617910
10
179.847071
20
187.326132
10
180.419402
20
187.076426
10
181.008794
20
186.870189
10
181.611950
20
186.708574
10
182.225497
20
186.592485
10
182.846004
20
186.522570
10
183.470000
20
186.499222
10
184.093996
20
186.522570
10
184.714503
20
186.592485
10
185.328050
20
186.708574
10
185.931206
20
186.870189
10
186.520598
20
187.076426
10
187.092929
20
187.326132
10
187.645000
20
187.617910
10
188.173722
20
187.950128
10
188.676140
20
188.320929
10
189.149442
20
188.728239
10
189.590983
20
189.169780
10
189.998293
20
189.643082
10
190.369094
20
190.145499
10
190.701312
20
190.674222
10
190.993090
20
191.226293
10
191.242796
20
191.798624
10
191.449033
20
192.388016
10
191.610648
20
192.991172
10
191.726737
20
193.604719
10
191.796652
20
194.225226
10
191.820000
20
194.849222
0
LWPOLYLINE
100
AcDbEntity
8
VISIBLE
6
CONTINUOUS
370
35
100
AcDbPolyline
90
14
70
0
10
173.070000
20
193.443551
10
172.857780
20
193.257104
10
172.620321
20
193.104089
10
172.362845
20
192.987873
10
172.091015
20
192.911009
10
171.810806
20
192.875189
10
171.528381
20
192.881200
10
171.249950
20
192.928911
10
170.981635
20
193.017270
10
170.729338
20
193.144337
10
170.498605
20
193.307317
10
170.294510
20
193.502625
10
170.121541
20
193.725968
10
169.983502
20
193.972433
0
LWPOLYLINE
100
AcDbEntity
8
VISIBLE
6
CONTINUOUS
370
35
100
AcDbPolyline
90
4
70
0
10
181.671783
20
205.804116
10
181.780149
20
205.603910
10
181.911624
20
205.418061
10
182.064329
20
205.249222
0
LWPOLYLINE
100
AcDbEntity
8
VISIBLE
6
CONTINUOUS
370
35
100
AcDbPolyline
90
9
70
0
10
184.732269
20
205.249222
10
184.925005
20
205.469820
10
185.081641
20
205.717359
10
185.198473
20
205.985987
10
185.272739
20
206.269351
10
185.302683
20
206.560750
10
185.287596
20
206.853296
10
185.227836
20
207.140070
10
185.124816
20
207.414291
0
LWPOLYLINE
100
AcDbEntity
8
VISIBLE
6
CONTINUOUS
370
35
100
AcDbPolyline
90
19
70
0
10
196.956498
20
195.726010
10
197.060447
20
195.448580
10
197.120123
20
195.158388
10
197.134084
20
194.862452
10
197.101991
20
194.567931
10
197.024622
20
194.281947
10
196.903847
20
194.011417
10
196.742587
20
193.762885
10
196.544742
20
193.542362
10
196.315098
20
193.355181
10
196.059210
20
193.205870
10
195.783265
20
193.098040
10
195.493938
20
193.034298
10
195.198227
20
193.016187
10
194.903285
20
193.044145
10
194.616243
20
193.117495
10
194.344046
20
193.234464
10
194.093277
20
193.392221
10
193.870000
20
193.586953
0
LWPOLYLINE
100
AcDbEntity
8
VISIBLE
6
CONTINUOUS
370
35
100
AcDbPolyline
90
21
70
0
10
181.815184
20
182.284153
10
181.962384
20
182.023978
10
182.148472
20
181.790034
10
182.368866
20
181.588080
10
182.618138
20
181.423090
10
182.890152
20
181.299126
10
183.178210
20
181.219241
10
183.475217
20
181.185401
10
183.773862
20
181.198440
10
184.066790
20
181.258037
10
184.346788
20
181.362724
10
184.606963
20
181.509924
10
184.840908
20
181.696012
10
185.042861
20
181.916405
10
185.207851
20
182.165678
10
185.331815
20
182.437692
10
185.411700
20
182.725749
10
185.445540
20
183.022757
10
185.432501
20
183.321402
10
185.372904
20
183.614330
10
185.268217
20
183.894328
0
LWPOLYLINE
100
AcDbEntity
8
VISIBLE
6
CONTINUOUS
370
35
100
AcDbPolyline
90
16
70
0
10
190.582611
20
186.592424
10
190.606478
20
186.819505
10
190.677036
20
187.036661
10
190.791202
20
187.234403
10
190.943986
20
187.404086
10
191.128711
20
187.538296
10
191.337302
20
187.631167
10
191.560645
20
187.678640
10
191.788977
20
187.678640
10
192.012319
20
187.631167
10
192.220911
20
187.538296
10
192.405635
20
187.404086
10
192.558419
20
187.234403
10
192.672585
20
187.036661
10
192.743144
20
186.819505
10
192.767011
20
186.592424
0
LWPOLYLINE
100
AcDbEntity
8
VISIBLE
6
CONTINUOUS
370
35
100
AcDbPolyline
90
16
70
0
10
174.310470
20
186.644411
10
174.334337
20
186.871492
10
174.404895
20
187.088649
10
174.519061
20
187.286390
10
174.671845
20
187.456074
10
174.856570
20
187.590284
10
175.065161
20
187.683155
10
175.288504
20
187.730628
10
175.516836
20
187.730628
10
175.740178
20
187.683155
10
175.948770
20
187.590284
10
176.133494
20
187.456074
10
176.286278
20
187.286390
10
176.400444
20
187.088649
10
176.471003
20
186.871492
10
176.494870
20
186.644411
0
LWPOLYLINE
100
AcDbEntity
8
VISIBLE
6
CONTINUOUS
370
35
100
AcDbPolyline
90
16
70
0
10
174.362457
20
202.916552
10
174.386325
20
203.143633
10
174.456883
20
203.360790
10
174.571049
20
203.558531
10
174.723833
20
203.728215
10
174.908557
20
203.862425
10
175.117149
20
203.955296
10
175.340491
20
204.002769
10
175.568823
20
204.002769
10
175.792166
20
203.955296
10
176.000757
20
203.862425
10
176.185482
20
203.728215
10
176.338266
20
203.558531
10
176.452432
20
203.360790
10
176.522990
20
203.143633
10
176.546857
20
202.916552
0
LWPOLYLINE
100
AcDbEntity
8
VISIBLE
6
CONTINUOUS
370
35
100
AcDbPolyline
90
16
70
0
10
190.634598
20
202.864565
10
190.658466
20
203.091646
10
190.729024
20
203.308802
10
190.843190
20
203.506544
10
190.995974
20
203.676227
10
191.180698
20
203.810438
10
191.389290
20
203.903308
10
191.612632
20
203.950781
10
191.840964
20
203.950781
10
192.064307
20
203.903308
10
192.272898
20
203.810438
10
192.457623
20
203.676227
10
192.610407
20
203.506544
10
192.724573
20
203.308802
10
192.795131
20
203.091646
10
192.818998
20
202.864565
0
LWPOLYLINE
100
AcDbEntity
8
VISIBLE
6
CONTINUOUS
370
35
100
AcDbPolyline
90
19
70
0
10
169.983502
20
193.972433
10
169.879553
20
194.249864
10
169.819877
20
194.540056
10
169.805916
20
194.835992
10
169.838009
20
195.130513
10
169.915378
20
195.416497
10
170.036153
20
195.687027
10
170.197413
20
195.935559
10
170.395258
20
196.156082
10
170.624902
20
196.343263
10
170.880790
20
196.492574
10
171.156735
20
196.600404
10
171.446062
20
196.664146
10
171.741773
20
196.682257
10
172.036715
20
196.654299
10
172.323757
20
196.580949
10
172.595954
20
196.463980
10
172.846723
20
196.306223
10
173.070000
20
196.111491
0
LWPOLYLINE
100
AcDbEntity
8
VISIBLE
6
CONTINUOUS
370
35
100
AcDbPolyline
90
14
70
0
10
193.870000
20
196.254892
10
194.082220
20
196.441340
10
194.319679
20
196.594355
10
194.577155
20
196.710571
10
194.848985
20
196.787435
10
195.129194
20
196.823255
10
195.411619
20
196.817243
10
195.690050
20
196.769533
10
195.958365
20
196.681173
10
196.210662
20
196.554107
10
196.441395
20
196.391127
10
196.645490
20
196.195819
10
196.818459
20
195.972476
10
196.956498
20
195.726010
0
LWPOLYLINE
100
AcDbEntity
8
VISIBLE
6
CONTINUOUS
370
35
100
AcDbPolyline
90
4
70
0
10
185.268217
20
183.894328
10
185.159851
20
184.094534
10
185.028376
20
184.280383
10
184.875671
20
184.449222
0
LWPOLYLINE
100
AcDbEntity
8
VISIBLE
6
CONTINUOUS
370
35
100
AcDbPolyline
90
9
70
0
10
182.207731
20
184.449222
10
182.014995
20
184.228624
10
181.858359
20
183.981085
10
181.741527
20
183.712457
10
181.667261
20
183.429093
10
181.637317
20
183.137693
10
181.652404
20
182.845148
10
181.712164
20
182.558374
10
181.815184
20
182.284153
0
LWPOLYLINE
100
AcDbEntity
8
VISIBLE
6
CONTINUOUS
370
35
100
AcDbPolyline
90
21
70
0
10
185.124816
20
207.414291
10
184.977616
20
207.674466
10
184.791528
20
207.908410
10
184.571134
20
208.110364
10
184.321862
20
208.275354
10
184.049848
20
208.399318
10
183.761790
20
208.479203
10
183.464783
20
208.513043
10
183.166138
20
208.500004
10
182.873210
20
208.440407
10
182.593212
20
208.335720
10
182.333037
20
208.188520
10
182.099092
20
208.002432
10
181.897139
20
207.782038
10
181.732149
20
207.532766
10
181.608185
20
207.260752
10
181.528300
20
206.972695
10
181.494460
20
206.675687
10
181.507499
20
206.377042
10
181.567096
20
206.084114
10
181.671783
20
205.804116
0
LWPOLYLINE
100
AcDbEntity
8
VISIBLE
6
CONTINUOUS
370
35
100
AcDbPolyline
90
59
70
0
10
167.390000
20
194.849222
10
167.413583
20
193.978668
10
167.484262
20
193.110668
10
167.601830
20
192.247767
10
167.765941
20
191.392497
10
167.976116
20
190.547366
10
168.231737
20
189.714853
10
168.532054
20
188.897400
10
168.876187
20
188.097405
10
169.263126
20
187.317214
10
169.691737
20
186.559116
10
170.160761
20
185.825334
10
170.668824
20
185.118021
10
171.214434
20
184.439250
10
171.795992
20
183.791015
10
172.411793
20
183.175214
10
173.060029
20
182.593656
10
173.738799
20
182.048045
10
174.446112
20
181.539983
10
175.179894
20
181.070959
10
175.937992
20
180.642348
10
176.718183
20
180.255409
10
177.518178
20
179.911276
10
178.335631
20
179.610959
10
179.168144
20
179.355338
10
180.013275
20
179.145163
10
180.868545
20
178.981051
10
181.731446
20
178.863484
10
182.599446
20
178.792805
10
183.470000
20
178.769222
10
184.340554
20
178.792805
10
185.208554
20
178.863484
10
186.071455
20
178.981051
10
186.926725
20
179.145163
10
187.771856
20
179.355338
10
188.604369
20
179.610959
10
189.421822
20
179.911276
10
190.221817
20
180.255409
10
191.002008
20
180.642348
10
191.760106
20
181.070959
10
192.493888
20
181.539983
10
193.201201
20
182.048045
10
193.879971
20
182.593656
10
194.528207
20
183.175214
10
195.144008
20
183.791015
10
195.725566
20
184.439250
10
196.271176
20
185.118021
10
196.779239
20
185.825334
10
197.248263
20
186.559116
10
197.676874
20
187.317214
10
198.063813
20
188.097405
10
198.407946
20
188.897400
10
198.708263
20
189.714853
10
198.963884
20
190.547366
10
199.174059
20
191.392497
10
199.338170
20
192.247767
10
199.455738
20
193.110668
10
199.526417
20
193.978668
10
199.550000
20
194.849222
0
LWPOLYLINE
100
AcDbEntity
8
VISIBLE
6
CONTINUOUS
370
35
100
AcDbPolyline
90
35
70
0
10
177.919764
20
194.849222
10
177.943440
20
194.337111
10
178.014267
20
193.829369
10
178.131640
20
193.330328
10
178.294559
20
192.844245
10
178.501632
20
192.375269
10
178.751094
20
191.927399
10
179.040816
20
191.504457
10
179.368326
20
191.110052
10
179.730830
20
190.747548
10
180.125235
20
190.420038
10
180.548177
20
190.130316
10
180.996047
20
189.880854
10
181.465023
20
189.673781
10
181.951106
20
189.510862
10
182.450147
20
189.393489
10
182.957889
20
189.322662
10
183.470000
20
189.298986
10
183.982111
20
189.322662
10
184.489853
20
189.393489
10
184.988894
20
189.510862
10
185.474977
20
189.673781
10
185.943953
20
189.880854
10
186.391823
20
190.130316
10
186.814765
20
190.420038
10
187.209170
20
190.747548
10
187.571674
20
191.110052
10
187.899184
20
191.504457
10
188.188906
20
191.927399
10
188.438368
20
192.375269
10
188.645441
20
192.844245
10
188.808360
20
193.330328
10
188.925733
20
193.829369
10
188.996560
20
194.337111
10
189.020236
20
194.849222
0
LWPOLYLINE
100
AcDbEntity
8
VISIBLE
6
CONTINUOUS
370
35
100
AcDbPolyline
90
60
70
0
10
200.000000
20
194.849222
10
199.976572
20
193.969459
10
199.906354
20
193.092191
10
199.789546
20
192.219902
10
199.626478
20
191.355067
10
199.417613
20
190.500137
10
199.163542
20
189.657534
10
198.864987
20
188.829648
10
198.522793
20
188.018825
10
198.137930
20
187.227363
10
197.711489
20
186.457506
10
197.244679
20
185.711437
10
196.738823
20
184.991270
10
196.195356
20
184.299046
10
195.615817
20
183.636727
10
195.001849
20
183.006192
10
194.355193
20
182.409227
10
193.677682
20
181.847525
10
192.971236
20
181.322677
10
192.237858
20
180.836172
10
191.479626
20
180.389388
10
190.698690
20
179.983592
10
189.897264
20
179.619935
10
189.077618
20
179.299447
10
188.242078
20
179.023036
10
187.393010
20
178.791486
10
186.532823
20
178.605453
10
185.663953
20
178.465466
10
184.788864
20
178.371919
10
183.910037
20
178.325080
10
183.029963
20
178.325080
10
182.151136
20
178.371919
10
181.276047
20
178.465466
10
180.407177
20
178.605453
10
179.546990
20
178.791486
10
178.697922
20
179.023036
10
177.862382
20
179.299447
10
177.042736
20
179.619935
10
176.241310
20
179.983592
10
175.460374
20
180.389388
10
174.702142
20
180.836172
10
173.968764
20
181.322677
10
173.262318
20
181.847525
10
172.584807
20
182.409227
10
171.938151
20
183.006192
10
171.324183
20
183.636727
10
170.744644
20
184.299046
10
170.201177
20
184.991270
10
169.695321
20
185.711437
10
169.228511
20
186.457506
10
168.802070
20
187.227363
10
168.417207
20
188.018825
10
168.075013
20
188.829648
10
167.776458
20
189.657534
10
167.522387
20
190.500137
10
167.313522
20
191.355067
10
167.150454
20
192.219902
10
167.033646
20
193.092191
10
166.963428
20
193.969459
10
166.940000
20
194.849222
0
LWPOLYLINE
100
AcDbEntity
8
SECTION_CUT
6
CONTINUOUS
370
70
100
AcDbPolyline
90
2
70
0
10
156.357542
20
102.150778
10
210.582458
20
102.150778
0
LWPOLYLINE
100
AcDbEntity
8
SECTION_CUT
6
CONTINUOUS
370
70
100
AcDbPolyline
90
2
70
0
10
156.357542
20
106.117978
10
156.357542
20
102.150778
0
LWPOLYLINE
100
AcDbEntity
8
SECTION_CUT
6
CONTINUOUS
370
70
100
AcDbPolyline
90
3
70
0
10
157.121228
20
103.539298
10
156.357542
20
102.150778
10
155.593856
20
103.539298
0
LWPOLYLINE
100
AcDbEntity
8
SECTION_CUT
6
CONTINUOUS
370
70
100
AcDbPolyline
90
2
70
0
10
210.582458
20
106.117978
10
210.582458
20
102.150778
0
LWPOLYLINE
100
AcDbEntity
8
SECTION_CUT
6
CONTINUOUS
370
70
100
AcDbPolyline
90
3
70
0
10
211.346144
20
103.539298
10
210.582458
20
102.150778
10
209.818772
20
103.539298
0
LWPOLYLINE
100
AcDbEntity
8
CENTER
6
CENTER
370
18
100
AcDbPolyline
90
2
70
0
10
166.805019
20
102.222479
10
176.615019
20
102.222479
0
LWPOLYLINE
100
AcDbEntity
8
CENTER
6
CENTER
370
18
100
AcDbPolyline
90
2
70
0
10
171.710019
20
97.317479
10
171.710019
20
107.127479
0
LWPOLYLINE
100
AcDbEntity
8
CENTER
6
CENTER
370
18
100
AcDbPolyline
90
2
70
0
10
171.310470
20
110.355589
10
179.494870
20
110.355589
0
LWPOLYLINE
100
AcDbEntity
8
CENTER
6
CENTER
370
18
100
AcDbPolyline
90
2
70
0
10
175.402670
20
106.263389
10
175.402670
20
114.447789
0
LWPOLYLINE
100
AcDbEntity
8
CENTER
6
CENTER
370
18
100
AcDbPolyline
90
2
70
0
10
171.362457
20
94.083448
10
179.546857
20
94.083448
0
LWPOLYLINE
100
AcDbEntity
8
CENTER
6
CENTER
370
18
100
AcDbPolyline
90
2
70
0
10
175.454657
20
89.991248
10
175.454657
20
98.175648
0
LWPOLYLINE
100
AcDbEntity
8
CENTER
6
CENTER
370
18
100
AcDbPolyline
90
2
70
0
10
178.493299
20
90.390797
10
188.303299
20
90.390797
0
LWPOLYLINE
100
AcDbEntity
8
CENTER
6
CENTER
370
18
100
AcDbPolyline
90
2
70
0
10
183.398299
20
85.485797
10
183.398299
20
95.295797
0
LWPOLYLINE
100
AcDbEntity
8
CENTER
6
CENTER
370
18
100
AcDbPolyline
90
2
70
0
10
163.940000
20
102.150778
10
203.000000
20
102.150778
0
LWPOLYLINE
100
AcDbEntity
8
CENTER
6
CENTER
370
18
100
AcDbPolyline
90
2
70
0
10
183.470000
20
82.620778
10
183.470000
20
121.680778
0
LWPOLYLINE
100
AcDbEntity
8
CENTER
6
CENTER
370
18
100
AcDbPolyline
90
2
70
0
10
178.636701
20
113.910759
10
188.446701
20
113.910759
0
LWPOLYLINE
100
AcDbEntity
8
CENTER
6
CENTER
370
18
100
AcDbPolyline
90
2
70
0
10
183.541701
20
109.005759
10
183.541701
20
118.815759
0
LWPOLYLINE
100
AcDbEntity
8
CENTER
6
CENTER
370
18
100
AcDbPolyline
90
2
70
0
10
187.582611
20
110.407576
10
195.767011
20
110.407576
0
LWPOLYLINE
100
AcDbEntity
8
CENTER
6
CENTER
370
18
100
AcDbPolyline
90
2
70
0
10
191.674811
20
106.315376
10
191.674811
20
114.499776
0
LWPOLYLINE
100
AcDbEntity
8
CENTER
6
CENTER
370
18
100
AcDbPolyline
90
2
70
0
10
187.634598
20
94.135435
10
195.818998
20
94.135435
0
LWPOLYLINE
100
AcDbEntity
8
CENTER
6
CENTER
370
18
100
AcDbPolyline
90
2
70
0
10
191.726798
20
90.043235
10
191.726798
20
98.227635
0
LWPOLYLINE
100
AcDbEntity
8
CENTER
6
CENTER
370
18
100
AcDbPolyline
90
2
70
0
10
190.324981
20
102.079077
10
200.134981
20
102.079077
0
LWPOLYLINE
100
AcDbEntity
8
CENTER
6
CENTER
370
18
100
AcDbPolyline
90
2
70
0
10
195.229981
20
97.174077
10
195.229981
20
106.984077
0
LWPOLYLINE
100
AcDbEntity
8
VISIBLE
6
CONTINUOUS
370
35
100
AcDbPolyline
90
45
70
0
10
174.249000
20
102.150778
10
174.272494
20
101.492959
10
174.342856
20
100.838493
10
174.459729
20
100.190714
10
174.622515
20
99.552922
10
174.830387
20
98.928369
10
175.082283
20
98.320236
10
175.376922
20
97.731623
10
175.712801
20
97.165529
10
176.088209
20
96.624839
10
176.501233
20
96.112307
10
176.949768
20
95.630546
10
177.431529
20
95.182011
10
177.944061
20
94.768987
10
178.484751
20
94.393579
10
179.050845
20
94.057700
10
179.639458
20
93.763061
10
180.247591
20
93.511165
10
180.872144
20
93.303293
10
181.509935
20
93.140507
10
182.157715
20
93.023635
10
182.812181
20
92.953272
10
183.470000
20
92.929778
10
184.127819
20
92.953272
10
184.782285
20
93.023635
10
185.430065
20
93.140507
10
186.067856
20
93.303293
10
186.692409
20
93.511165
10
187.300542
20
93.763061
10
187.889155
20
94.057700
10
188.455249
20
94.393579
10
188.995939
20
94.768987
10
189.508471
20
95.182011
10
189.990232
20
95.630546
10
190.438767
20
96.112307
10
190.851791
20
96.624839
10
191.227199
20
97.165529
10
191.563078
20
97.731623
10
191.857717
20
98.320236
10
192.109613
20
98.928369
10
192.317485
20
99.552922
10
192.480271
20
100.190714
10
192.597144
20
100.838493
10
192.667506
20
101.492959
10
192.691000
20
102.150778
0
LWPOLYLINE
100
AcDbEntity
8
VISIBLE
6
CONTINUOUS
370
35
100
AcDbPolyline
90
34
70
0
10
178.470000
20
102.150778
10
178.492640
20
101.675498
10
178.560357
20
101.204522
10
178.672535
20
100.742115
10
178.828160
20
100.292466
10
179.025823
20
99.859645
10
179.263732
20
99.447574
10
179.539735
20
99.059983
10
179.851330
20
98.700383
10
180.195696
20
98.372030
10
180.569715
20
98.077898
10
180.970000
20
97.820651
10
181.392925
20
97.602618
10
181.834660
20
97.425774
10
182.291205
20
97.291720
10
182.758426
20
97.201671
10
183.232090
20
97.156441
10
183.707910
20
97.156441
10
184.181574
20
97.201671
10
184.648795
20
97.291720
10
185.105340
20
97.425774
10
185.547075
20
97.602618
10
185.970000
20
97.820651
10
186.370285
20
98.077898
10
186.744304
20
98.372030
10
187.088670
20
98.700383
10
187.400265
20
99.059983
10
187.676268
20
99.447574
10
187.914177
20
99.859645
10
188.111840
20
100.292466
10
188.267465
20
100.742115
10
188.379643
20
101.204522
10
188.447360
20
101.675498
10
188.470000
20
102.150778
0
LWPOLYLINE
100
AcDbEntity
8
VISIBLE
6
CONTINUOUS
370
35
100
AcDbPolyline
90
34
70
0
10
188.470000
20
102.150778
10
188.447360
20
102.626058
10
188.379643
20
103.097034
10
188.267465
20
103.559441
10
188.111840
20
104.009090
10
187.914177
20
104.441911
10
187.676268
20
104.853982
10
187.400265
20
105.241573
10
187.088670
20
105.601173
10
186.744304
20
105.929526
10
186.370285
20
106.223658
10
185.970000
20
106.480905
10
185.547075
20
106.698938
10
185.105340
20
106.875782
10
184.648795
20
107.009836
10
184.181574
20
107.099885
10
183.707910
20
107.145115
10
183.232090
20
107.145115
10
182.758426
20
107.099885
10
182.291205
20
107.009836
10
181.834660
20
106.875782
10
181.392925
20
106.698938
10
180.970000
20
106.480905
10
180.569715
20
106.223658
10
180.195696
20
105.929526
10
179.851330
20
105.601173
10
179.539735
20
105.241573
10
179.263732
20
104.853982
10
179.025823
20
104.441911
10
178.828160
20
104.009090
10
178.672535
20
103.559441
10
178.560357
20
103.097034
10
178.492640
20
102.626058
10
178.470000
20
102.150778
0
LWPOLYLINE
100
AcDbEntity
8
VISIBLE
6
CONTINUOUS
370
35
100
AcDbPolyline
90
45
70
0
10
192.691000
20
102.150778
10
192.667506
20
102.808597
10
192.597144
20
103.463063
10
192.480271
20
104.110843
10
192.317485
20
104.748634
10
192.109613
20
105.373187
10
191.857717
20
105.981320
10
191.563078
20
106.569933
10
191.227199
20
107.136027
10
190.851791
20
107.676717
10
190.438767
20
108.189249
10
189.990232
20
108.671010
10
189.508471
20
109.119545
10
188.995939
20
109.532569
10
188.455249
20
109.907977
10
187.889155
20
110.243856
10
187.300542
20
110.538495
10
186.692409
20
110.790391
10
186.067856
20
110.998263
10
185.430065
20
111.161049
10
184.782285
20
111.277922
10
184.127819
20
111.348284
10
183.470000
20
111.371778
10
182.812181
20
111.348284
10
182.157715
20
111.277922
10
181.509935
20
111.161049
10
180.872144
20
110.998263
10
180.247591
20
110.790391
10
179.639458
20
110.538495
10
179.050845
20
110.243856
10
178.484751
20
109.907977
10
177.944061
20
109.532569
10
177.431529
20
109.119545
10
176.949768
20
108.671010
10
176.501233
20
108.189249
10
176.088209
20
107.676717
10
175.712801
20
107.136027
10
175.376922
20
106.569933
10
175.082283
20
105.981320
10
174.830387
20
105.373187
10
174.622515
20
104.748634
10
174.459729
20
104.110843
10
174.342856
20
103.463063
10
174.272494
20
102.808597
10
174.249000
20
102.150778
0
LWPOLYLINE
100
AcDbEntity
8
VISIBLE
6
CONTINUOUS
370
35
100
AcDbPolyline
90
2
70
0
10
182.207731
20
112.550778
10
184.875671
20
112.550778
0
LWPOLYLINE
100
AcDbEntity
8
VISIBLE
6
CONTINUOUS
370
35
100
AcDbPolyline
90
2
70
0
10
173.070000
20
100.888509
10
173.070000
20
103.556449
0
LWPOLYLINE
100
AcDbEntity
8
VISIBLE
6
CONTINUOUS
370
35
100
AcDbPolyline
90
2
70
0
10
193.870000
20
103.413047
10
193.870000
20
100.745108
0
LWPOLYLINE
100
AcDbEntity
8
VISIBLE
6
CONTINUOUS
370
35
100
AcDbPolyline
90
2
70
0
10
184.732269
20
91.750778
10
182.064329
20
91.750778
0
LWPOLYLINE
100
AcDbEntity
8
VISIBLE
6
CONTINUOUS
370
35
100
AcDbPolyline
90
59
70
0
10
167.390000
20
102.150778
10
167.413583
20
101.280224
10
167.484262
20
100.412224
10
167.601830
20
99.549324
10
167.765941
20
98.694053
10
167.976116
20
97.848922
10
168.231737
20
97.016409
10
168.532054
20
96.198957
10
168.876187
20
95.398961
10
169.263126
20
94.618770
10
169.691737
20
93.860672
10
170.160761
20
93.126890
10
170.668824
20
92.419577
10
171.214434
20
91.740807
10
171.795992
20
91.092571
10
172.411793
20
90.476771
10
173.060029
20
89.895212
10
173.738799
20
89.349602
10
174.446112
20
88.841539
10
175.179894
20
88.372515
10
175.937992
20
87.943904
10
176.718183
20
87.556965
10
177.518178
20
87.212832
10
178.335631
20
86.912515
10
179.168144
20
86.656894
10
180.013275
20
86.446720
10
180.868545
20
86.282608
10
181.731446
20
86.165040
10
182.599446
20
86.094361
10
183.470000
20
86.070778
10
184.340554
20
86.094361
10
185.208554
20
86.165040
10
186.071455
20
86.282608
10
186.926725
20
86.446720
10
187.771856
20
86.656894
10
188.604369
20
86.912515
10
189.421822
20
87.212832
10
190.221817
20
87.556965
10
191.002008
20
87.943904
10
191.760106
20
88.372515
10
192.493888
20
88.841539
10
193.201201
20
89.349602
10
193.879971
20
89.895212
10
194.528207
20
90.476771
10
195.144008
20
91.092571
10
195.725566
20
91.740807
10
196.271176
20
92.419577
10
196.779239
20
93.126890
10
197.248263
20
93.860672
10
197.676874
20
94.618770
10
198.063813
20
95.398961
10
198.407946
20
96.198957
10
198.708263
20
97.016409
10
198.963884
20
97.848922
10
199.174059
20
98.694053
10
199.338170
20
99.549324
10
199.455738
20
100.412224
10
199.526417
20
101.280224
10
199.550000
20
102.150778
0
LWPOLYLINE
100
AcDbEntity
8
VISIBLE
6
CONTINUOUS
370
35
100
AcDbPolyline
90
60
70
0
10
200.000000
20
102.150778
10
199.976572
20
101.271015
10
199.906354
20
100.393747
10
199.789546
20
99.521458
10
199.626478
20
98.656623
10
199.417613
20
97.801693
10
199.163542
20
96.959090
10
198.864987
20
96.131204
10
198.522793
20
95.320381
10
198.137930
20
94.528919
10
197.711489
20
93.759062
10
197.244679
20
93.012993
10
196.738823
20
92.292826
10
196.195356
20
91.600602
10
195.615817
20
90.938283
10
195.001849
20
90.307748
10
194.355193
20
89.710783
10
193.677682
20
89.149081
10
192.971236
20
88.624233
10
192.237858
20
88.137728
10
191.479626
20
87.690944
10
190.698690
20
87.285149
10
189.897264
20
86.921491
10
189.077618
20
86.601003
10
188.242078
20
86.324592
10
187.393010
20
86.093042
10
186.532823
20
85.907009
10
185.663953
20
85.767022
10
184.788864
20
85.673476
10
183.910037
20
85.626636
10
183.029963
20
85.626636
10
182.151136
20
85.673476
10
181.276047
20
85.767022
10
180.407177
20
85.907009
10
179.546990
20
86.093042
10
178.697922
20
86.324592
10
177.862382
20
86.601003
10
177.042736
20
86.921491
10
176.241310
20
87.285149
10
175.460374
20
87.690944
10
174.702142
20
88.137728
10
173.968764
20
88.624233
10
173.262318
20
89.149081
10
172.584807
20
89.710783
10
171.938151
20
90.307748
10
171.324183
20
90.938283
10
170.744644
20
91.600602
10
170.201177
20
92.292826
10
169.695321
20
93.012993
10
169.228511
20
93.759062
10
168.802070
20
94.528919
10
168.417207
20
95.320381
10
168.075013
20
96.131204
10
167.776458
20
96.959090
10
167.522387
20
97.801693
10
167.313522
20
98.656623
10
167.150454
20
99.521458
10
167.033646
20
100.393747
10
166.963428
20
101.271015
10
166.940000
20
102.150778
0
LWPOLYLINE
100
AcDbEntity
8
VISIBLE
6
CONTINUOUS
370
35
100
AcDbPolyline
90
21
70
0
10
173.436535
20
101.417391
10
173.541222
20
101.697390
10
173.600819
20
101.990318
10
173.613858
20
102.288962
10
173.580018
20
102.585970
10
173.500133
20
102.874027
10
173.376169
20
103.146041
10
173.211179
20
103.395314
10
173.009225
20
103.615708
10
172.775281
20
103.801795
10
172.515106
20
103.948995
10
172.235108
20
104.053682
10
171.942180
20
104.113279
10
171.643535
20
104.126318
10
171.346527
20
104.092479
10
171.058470
20
104.012593
10
170.786456
20
103.888629
10
170.537183
20
103.723639
10
170.316790
20
103.521686
10
170.130702
20
103.287741
10
169.983502
20
103.027567
0
LWPOLYLINE
100
AcDbEntity
8
VISIBLE
6
CONTINUOUS
370
35
100
AcDbPolyline
90
21
70
0
10
181.671783
20
91.195884
10
181.818983
20
91.456059
10
182.005070
20
91.690004
10
182.225464
20
91.891957
10
182.474737
20
92.056947
10
182.746751
20
92.180911
10
183.034808
20
92.260796
10
183.331816
20
92.294636
10
183.630460
20
92.281597
10
183.923388
20
92.222000
10
184.203387
20
92.117313
10
184.463562
20
91.970113
10
184.697506
20
91.784025
10
184.899460
20
91.563632
10
185.064450
20
91.314359
10
185.188414
20
91.042345
10
185.268299
20
90.754288
10
185.302139
20
90.457280
10
185.289100
20
90.158636
10
185.229503
20
89.865707
10
185.124816
20
89.585709
0
LWPOLYLINE
100
AcDbEntity
8
VISIBLE
6
CONTINUOUS
370
35
100
AcDbPolyline
90
21
70
0
10
196.956498
20
101.273990
10
197.061185
20
101.553988
10
197.120782
20
101.846916
10
197.133821
20
102.145561
10
197.099981
20
102.442568
10
197.020096
20
102.730626
10
196.896132
20
103.002640
10
196.731142
20
103.251912
10
196.529188
20
103.472306
10
196.295244
20
103.658394
10
196.035069
20
103.805594
10
195.755071
20
103.910281
10
195.462143
20
103.969878
10
195.163498
20
103.982917
10
194.866490
20
103.949077
10
194.578433
20
103.869192
10
194.306419
20
103.745228
10
194.057146
20
103.580238
10
193.836753
20
103.378284
10
193.650665
20
103.144340
10
193.503465
20
102.884165
0
LWPOLYLINE
100
AcDbEntity
8
VISIBLE
6
CONTINUOUS
370
35
100
AcDbPolyline
90
21
70
0
10
181.815184
20
114.715847
10
181.962384
20
114.976022
10
182.148472
20
115.209966
10
182.368866
20
115.411920
10
182.618138
20
115.576910
10
182.890152
20
115.700874
10
183.178210
20
115.780759
10
183.475217
20
115.814599
10
183.773862
20
115.801560
10
184.066790
20
115.741963
10
184.346788
20
115.637276
10
184.606963
20
115.490076
10
184.840908
20
115.303988
10
185.042861
20
115.083595
10
185.207851
20
114.834322
10
185.331815
20
114.562308
10
185.411700
20
114.274251
10
185.445540
20
113.977243
10
185.432501
20
113.678598
10
185.372904
20
113.385670
10
185.268217
20
113.105672
0
LWPOLYLINE
100
AcDbEntity
8
VISIBLE
6
CONTINUOUS
370
35
100
AcDbPolyline
90
21
70
0
10
185.124816
20
89.585709
10
184.977616
20
89.325534
10
184.791528
20
89.091590
10
184.571134
20
88.889636
10
184.321862
20
88.724646
10
184.049848
20
88.600682
10
183.761790
20
88.520797
10
183.464783
20
88.486957
10
183.166138
20
88.499996
10
182.873210
20
88.559593
10
182.593212
20
88.664280
10
182.333037
20
88.811480
10
182.099092
20
88.997568
10
181.897139
20
89.217962
10
181.732149
20
89.467234
10
181.608185
20
89.739248
10
181.528300
20
90.027305
10
181.494460
20
90.324313
10
181.507499
20
90.622958
10
181.567096
20
90.915886
10
181.671783
20
91.195884
0
LWPOLYLINE
100
AcDbEntity
8
VISIBLE
6
CONTINUOUS
370
35
100
AcDbPolyline
90
21
70
0
10
185.268217
20
113.105672
10
185.121017
20
112.845497
10
184.934930
20
112.611553
10
184.714536
20
112.409599
10
184.465263
20
112.244609
10
184.193249
20
112.120645
10
183.905192
20
112.040760
10
183.608184
20
112.006920
10
183.309540
20
112.019959
10
183.016612
20
112.079556
10
182.736613
20
112.184243
10
182.476438
20
112.331443
10
182.242494
20
112.517531
10
182.040540
20
112.737924
10
181.875550
20
112.987197
10
181.751586
20
113.259211
10
181.671701
20
113.547268
10
181.637861
20
113.844276
10
181.650900
20
114.142921
10
181.710497
20
114.435849
10
181.815184
20
114.715847
0
LWPOLYLINE
100
AcDbEntity
8
VISIBLE
6
CONTINUOUS
370
35
100
AcDbPolyline
90
21
70
0
10
193.503465
20
102.884165
10
193.398778
20
102.604167
10
193.339181
20
102.311238
10
193.326142
20
102.012594
10
193.359982
20
101.715586
10
193.439867
20
101.427529
10
193.563831
20
101.155515
10
193.728821
20
100.906242
10
193.930775
20
100.685849
10
194.164719
20
100.499761
10
194.424894
20
100.352561
10
194.704892
20
100.247874
10
194.997820
20
100.188277
10
195.296465
20
100.175238
10
195.593473
20
100.209078
10
195.881530
20
100.288963
10
196.153544
20
100.412927
10
196.402817
20
100.577917
10
196.623210
20
100.779870
10
196.809298
20
101.013815
10
196.956498
20
101.273990
0
LWPOLYLINE
100
AcDbEntity
8
VISIBLE
6
CONTINUOUS
370
35
100
AcDbPolyline
90
21
70
0
10
169.983502
20
103.027567
10
169.878815
20
102.747568
10
169.819218
20
102.454640
10
169.806179
20
102.155995
10
169.840019
20
101.858988
10
169.919904
20
101.570930
10
170.043868
20
101.298916
10
170.208858
20
101.049644
10
170.410812
20
100.829250
10
170.644756
20
100.643162
10
170.904931
20
100.495962
10
171.184929
20
100.391275
10
171.477857
20
100.331678
10
171.776502
20
100.318639
10
172.073510
20
100.352479
10
172.361567
20
100.432364
10
172.633581
20
100.556328
10
172.882854
20
100.721318
10
173.103247
20
100.923272
10
173.289335
20
101.157216
10
173.436535
20
101.417391
0
LWPOLYLINE
100
AcDbEntity
8
VISIBLE
6
CONTINUOUS
370
35
100
AcDbPolyline
90
59
70
0
10
199.550000
20
102.150778
10
199.526417
20
103.021332
10
199.455738
20
103.889332
10
199.338170
20
104.752233
10
199.174059
20
105.607503
10
198.963884
20
106.452634
10
198.708263
20
107.285147
10
198.407946
20
108.102600
10
198.063813
20
108.902595
10
197.676874
20
109.682786
10
197.248263
20
110.440884
10
196.779239
20
111.174666
10
196.271176
20
111.881979
10
195.725566
20
112.560750
10
195.144008
20
113.208985
10
194.528207
20
113.824786
10
193.879971
20
114.406344
10
193.201201
20
114.951955
10
192.493888
20
115.460017
10
191.760106
20
115.929041
10
191.002008
20
116.357652
10
190.221817
20
116.744591
10
189.421822
20
117.088724
10
188.604369
20
117.389041
10
187.771856
20
117.644662
10
186.926725
20
117.854837
10
186.071455
20
118.018949
10
185.208554
20
118.136516
10
184.340554
20
118.207195
10
183.470000
20
118.230778
10
182.599446
20
118.207195
10
181.731446
20
118.136516
10
180.868545
20
118.018949
10
180.013275
20
117.854837
10
179.168144
20
117.644662
10
178.335631
20
117.389041
10
177.518178
20
117.088724
10
176.718183
20
116.744591
10
175.937992
20
116.357652
10
175.179894
20
115.929041
10
174.446112
20
115.460017
10
173.738799
20
114.951955
10
173.060029
20
114.406344
10
172.411793
20
113.824786
10
171.795992
20
113.208985
10
171.214434
20
112.560750
10
170.668824
20
111.881979
10
170.160761
20
111.174666
10
169.691737
20
110.440884
10
169.263126
20
109.682786
10
168.876187
20
108.902595
10
168.532054
20
108.102600
10
168.231737
20
107.285147
10
167.976116
20
106.452634
10
167.765941
20
105.607503
10
167.601830
20
104.752233
10
167.484262
20
103.889332
10
167.413583
20
103.021332
10
167.390000
20
102.150778
0
LWPOLYLINE
100
AcDbEntity
8
VISIBLE
6
CONTINUOUS
370
35
100
AcDbPolyline
90
60
70
0
10
166.940000
20
102.150778
10
166.963428
20
103.030541
10
167.033646
20
103.907809
10
167.150454
20
104.780098
10
167.313522
20
105.644933
10
167.522387
20
106.499863
10
167.776458
20
107.342466
10
168.075013
20
108.170352
10
168.417207
20
108.981175
10
168.802070
20
109.772637
10
169.228511
20
110.542494
10
169.695321
20
111.288563
10
170.201177
20
112.008730
10
170.744644
20
112.700954
10
171.324183
20
113.363273
10
171.938151
20
113.993808
10
172.584807
20
114.590773
10
173.262318
20
115.152475
10
173.968764
20
115.677323
10
174.702142
20
116.163828
10
175.460374
20
116.610612
10
176.241310
20
117.016408
10
177.042736
20
117.380065
10
177.862382
20
117.700553
10
178.697922
20
117.976964
10
179.546990
20
118.208514
10
180.407177
20
118.394547
10
181.276047
20
118.534534
10
182.151136
20
118.628081
10
183.029963
20
118.674920
10
183.910037
20
118.674920
10
184.788864
20
118.628081
10
185.663953
20
118.534534
10
186.532823
20
118.394547
10
187.393010
20
118.208514
10
188.242078
20
117.976964
10
189.077618
20
117.700553
10
189.897264
20
117.380065
10
190.698690
20
117.016408
10
191.479626
20
116.610612
10
192.237858
20
116.163828
10
192.971236
20
115.677323
10
193.677682
20
115.152475
10
194.355193
20
114.590773
10
195.001849
20
113.993808
10
195.615817
20
113.363273
10
196.195356
20
112.700954
10
196.738823
20
112.008730
10
197.244679
20
111.288563
10
197.711489
20
110.542494
10
198.137930
20
109.772637
10
198.522793
20
108.981175
10
198.864987
20
108.170352
10
199.163542
20
107.342466
10
199.417613
20
106.499863
10
199.626478
20
105.644933
10
199.789546
20
104.780098
10
199.906354
20
103.907809
10
199.976572
20
103.030541
10
200.000000
20
102.150778
0
TEXT
100
AcDbEntity
8
LABEL
6
CONTINUOUS
370
18
100
AcDbText
10
156.357542
20
107.506498
40
4.000000
1
A
72
1
11
156.357542
21
107.506498
0
TEXT
100
AcDbEntity
8
LABEL
6
CONTINUOUS
370
18
100
AcDbText
10
210.582458
20
107.506498
40
4.000000
1
A
72
1
11
210.582458
21
107.506498
0
TEXT
100
AcDbEntity
8
LABEL
6
CONTINUOUS
370
18
100
AcDbText
10
130.410000
20
132.674920
40
4.000000
1
RIGHT
72
1
11
130.410000
21
132.674920
0
TEXT
100
AcDbEntity
8
LABEL
6
CONTINUOUS
370
18
100
AcDbText
10
183.470000
20
132.674920
40
4.000000
1
FRONT
72
1
11
183.470000
21
132.674920
0
TEXT
100
AcDbEntity
8
LABEL
6
CONTINUOUS
370
18
100
AcDbText
10
236.530000
20
132.674920
40
4.000000
1
LEFT
72
1
11
236.530000
21
132.674920
0
TEXT
100
AcDbEntity
8
LABEL
6
CONTINUOUS
370
18
100
AcDbText
10
289.590000
20
132.674920
40
4.000000
1
REAR
72
1
11
289.590000
21
132.674920
0
TEXT
100
AcDbEntity
8
LABEL
6
CONTINUOUS
370
18
100
AcDbText
10
183.470000
20
172.325080
40
4.000000
1
BOTTOM
72
1
11
183.470000
21
172.325080
0
TEXT
100
AcDbEntity
8
LABEL
6
CONTINUOUS
370
18
100
AcDbText
10
183.470000
20
79.626636
40
4.000000
1
TOP
72
1
11
183.470000
21
79.626636
0
ENDSEC
0
EOF
