0
SECTION
2
HEADER
9
$ACADVER
1
AC1015
9
$INSUNITS
70
4
9
$LTSCALE
40
1.000000
9
$CELTSCALE
40
1.000000
0
ENDSEC
0
SECTION
2
TABLES
0
TABLE
100
AcDbSymbolTable
2
LTYPE
70
5
0
LTYPE
100
AcDbSymbolTableRecord
100
AcDbLinetypeTableRecord
2
BYBLOCK
70
0
3
ByBlock
72
65
73
0
40
0.000000
0
LTYPE
100
AcDbSymbolTableRecord
100
AcDbLinetypeTableRecord
2
BYLAYER
70
0
3
ByLayer
72
65
73
0
40
0.000000
0
LTYPE
100
AcDbSymbolTableRecord
100
AcDbLinetypeTableRecord
2
CONTINUOUS
70
0
3
Solid line
72
65
73
0
40
0.000000
0
LTYPE
100
AcDbSymbolTableRecord
100
AcDbLinetypeTableRecord
2
CENTER
70
0
3
OrthoVideo CENTER
72
65
73
4
40
13.500000
49
8.000000
74
0
49
-2.000000
74
0
49
1.500000
74
0
49
-2.000000
74
0
0
LTYPE
100
AcDbSymbolTableRecord
100
AcDbLinetypeTableRecord
2
DASHED
70
0
3
OrthoVideo DASHED
72
65
73
2
40
5.500000
49
3.500000
74
0
49
-2.000000
74
0
0
ENDTAB
0
TABLE
100
AcDbSymbolTable
2
LAYER
70
9
0
LAYER
100
AcDbSymbolTableRecord
100
AcDbLayerTableRecord
2
VISIBLE
70
0
62
7
6
CONTINUOUS
370
35
0
LAYER
100
AcDbSymbolTableRecord
100
AcDbLayerTableRecord
2
HIDDEN
70
0
62
8
6
DASHED
370
18
0
LAYER
100
AcDbSymbolTableRecord
100
AcDbLayerTableRecord
2
CENTER
70
0
62
4
6
CENTER
370
18
0
LAYER
100
AcDbSymbolTableRecord
100
AcDbLayerTableRecord
2
SYMMETRY
70
0
62
4
6
CENTER
370
18
0
LAYER
100
AcDbSymbolTableRecord
100
AcDbLayerTableRecord
2
PITCH
70
0
62
4
6
CENTER
370
18
0
LAYER
100
AcDbSymbolTableRecord
100
AcDbLayerTableRecord
2
SECTION_CUT
70
0
62
1
6
CONTINUOUS
370
70
0
LAYER
100
AcDbSymbolTableRecord
100
AcDbLayerTableRecord
2
HATCH
70
0
62
8
6
CONTINUOUS
370
18
0
LAYER
100
AcDbSymbolTableRecord
100
AcDbLayerTableRecord
2
TANGENT
70
0
62
8
6
CONTINUOUS
370
18
0
LAYER
100
AcDbSymbolTableRecord
100
AcDbLayerTableRecord
2
LABEL
70
0
62
8
6
CONTINUOUS
370
18
0
ENDTAB
0
ENDSEC
0
SECTION
2
ENTITIES
0
LWPOLYLINE
100
AcDbEntity
8
SECTION_CUT
6
CONTINUOUS
370
70
100
AcDbPolyline
90
2
70
0
10
302.210000
20
249.750800
10
302.210000
20
246.350800
0
LWPOLYLINE
100
AcDbEntity
8
SECTION_CUT
6
CONTINUOUS
370
70
100
AcDbPolyline
90
2
70
0
10
302.210000
20
246.350800
10
308.563312
20
246.350800
0
LWPOLYLINE
100
AcDbEntity
8
SECTION_CUT
6
CONTINUOUS
370
70
100
AcDbPolyline
90
2
70
0
10
308.563312
20
203.350800
10
308.563312
20
246.350800
0
LWPOLYLINE
100
AcDbEntity
8
SECTION_CUT
6
CONTINUOUS
370
70
100
AcDbPolyline
90
2
70
0
10
293.170000
20
203.350800
10
308.563312
20
203.350800
0
LWPOLYLINE
100
AcDbEntity
8
SECTION_CUT
6
CONTINUOUS
370
70
100
AcDbPolyline
90
8
70
0
10
281.170000
20
191.350800
10
281.470865
20
194.021051
10
282.358374
20
196.557405
10
283.788022
20
198.832678
10
285.688122
20
200.732778
10
287.963395
20
202.162426
10
290.499749
20
203.049935
10
293.170000
20
203.350800
0
LWPOLYLINE
100
AcDbEntity
8
SECTION_CUT
6
CONTINUOUS
370
70
100
AcDbPolyline
90
2
70
0
10
281.170000
20
191.350800
10
281.170000
20
100.350800
0
LWPOLYLINE
100
AcDbEntity
8
SECTION_CUT
6
CONTINUOUS
370
70
100
AcDbPolyline
90
5
70
0
10
285.170000
20
96.350800
10
283.639266
20
96.655282
10
282.341573
20
97.522373
10
281.474482
20
98.820066
10
281.170000
20
100.350800
0
LWPOLYLINE
100
AcDbEntity
8
SECTION_CUT
6
CONTINUOUS
370
70
100
AcDbPolyline
90
2
70
0
10
310.000000
20
96.350800
10
285.170000
20
96.350800
0
LWPOLYLINE
100
AcDbEntity
8
SECTION_CUT
6
CONTINUOUS
370
70
100
AcDbPolyline
90
5
70
0
10
314.000000
20
92.350800
10
313.695518
20
93.881534
10
312.828427
20
95.179227
10
311.530734
20
96.046318
10
310.000000
20
96.350800
0
LWPOLYLINE
100
AcDbEntity
8
SECTION_CUT
6
CONTINUOUS
370
70
100
AcDbPolyline
90
2
70
0
10
314.000000
20
70.050800
10
314.000000
20
92.350800
0
LWPOLYLINE
100
AcDbEntity
8
SECTION_CUT
6
CONTINUOUS
370
70
100
AcDbPolyline
90
5
70
0
10
314.000000
20
70.050800
10
313.695518
20
68.520066
10
312.828427
20
67.222373
10
311.530734
20
66.355282
10
310.000000
20
66.050800
0
LWPOLYLINE
100
AcDbEntity
8
SECTION_CUT
6
CONTINUOUS
370
70
100
AcDbPolyline
90
2
70
0
10
310.000000
20
66.050800
10
293.500000
20
66.050800
0
LWPOLYLINE
100
AcDbEntity
8
SECTION_CUT
6
CONTINUOUS
370
70
100
AcDbPolyline
90
2
70
0
10
293.500000
20
53.249200
10
293.500000
20
66.050800
0
LWPOLYLINE
100
AcDbEntity
8
SECTION_CUT
6
CONTINUOUS
370
70
100
AcDbPolyline
90
2
70
0
10
293.500000
20
53.249200
10
285.000000
20
53.249200
0
LWPOLYLINE
100
AcDbEntity
8
SECTION_CUT
6
CONTINUOUS
370
70
100
AcDbPolyline
90
2
70
0
10
285.000000
20
53.249200
10
285.000000
20
65.692400
0
LWPOLYLINE
100
AcDbEntity
8
SECTION_CUT
6
CONTINUOUS
370
70
100
AcDbPolyline
90
5
70
0
10
282.000000
20
68.692400
10
283.148050
20
68.464039
10
284.121320
20
67.813720
10
284.771639
20
66.840450
10
285.000000
20
65.692400
0
LWPOLYLINE
100
AcDbEntity
8
SECTION_CUT
6
CONTINUOUS
370
70
100
AcDbPolyline
90
2
70
0
10
282.000000
20
68.692400
10
278.000000
20
68.692400
0
LWPOLYLINE
100
AcDbEntity
8
SECTION_CUT
6
CONTINUOUS
370
70
100
AcDbPolyline
90
2
70
0
10
278.000000
20
84.897600
10
278.000000
20
68.692400
0
LWPOLYLINE
100
AcDbEntity
8
SECTION_CUT
6
CONTINUOUS
370
70
100
AcDbPolyline
90
2
70
0
10
278.000000
20
84.897600
10
265.502363
20
84.897600
0
LWPOLYLINE
100
AcDbEntity
8
SECTION_CUT
6
CONTINUOUS
370
70
100
AcDbPolyline
90
2
70
0
10
261.002363
20
80.397600
10
265.502363
20
84.897600
0
LWPOLYLINE
100
AcDbEntity
8
SECTION_CUT
6
CONTINUOUS
370
70
100
AcDbPolyline
90
2
70
0
10
261.002363
20
80.397600
10
260.000000
20
80.397600
0
LWPOLYLINE
100
AcDbEntity
8
SECTION_CUT
6
CONTINUOUS
370
70
100
AcDbPolyline
90
2
70
0
10
260.000000
20
249.750800
10
260.000000
20
80.397600
0
LWPOLYLINE
100
AcDbEntity
8
SECTION_CUT
6
CONTINUOUS
370
70
100
AcDbPolyline
90
2
70
0
10
260.000000
20
249.750800
10
302.210000
20
249.750800
0
LWPOLYLINE
100
AcDbEntity
8
SECTION_CUT
6
CONTINUOUS
370
70
100
AcDbPolyline
90
2
70
0
10
117.790000
20
249.750800
10
160.000000
20
249.750800
0
LWPOLYLINE
100
AcDbEntity
8
SECTION_CUT
6
CONTINUOUS
370
70
100
AcDbPolyline
90
2
70
0
10
160.000000
20
249.750800
10
160.000000
20
80.397600
0
LWPOLYLINE
100
AcDbEntity
8
SECTION_CUT
6
CONTINUOUS
370
70
100
AcDbPolyline
90
2
70
0
10
160.000000
20
80.397600
10
158.997637
20
80.397600
0
LWPOLYLINE
100
AcDbEntity
8
SECTION_CUT
6
CONTINUOUS
370
70
100
AcDbPolyline
90
2
70
0
10
158.997637
20
80.397600
10
154.497637
20
84.897600
0
LWPOLYLINE
100
AcDbEntity
8
SECTION_CUT
6
CONTINUOUS
370
70
100
AcDbPolyline
90
2
70
0
10
154.497637
20
84.897600
10
142.000000
20
84.897600
0
LWPOLYLINE
100
AcDbEntity
8
SECTION_CUT
6
CONTINUOUS
370
70
100
AcDbPolyline
90
2
70
0
10
142.000000
20
84.897600
10
142.000000
20
68.692400
0
LWPOLYLINE
100
AcDbEntity
8
SECTION_CUT
6
CONTINUOUS
370
70
100
AcDbPolyline
90
2
70
0
10
142.000000
20
68.692400
10
138.000000
20
68.692400
0
LWPOLYLINE
100
AcDbEntity
8
SECTION_CUT
6
CONTINUOUS
370
70
100
AcDbPolyline
90
5
70
0
10
138.000000
20
68.692400
10
136.851950
20
68.464039
10
135.878680
20
67.813720
10
135.228361
20
66.840450
10
135.000000
20
65.692400
0
LWPOLYLINE
100
AcDbEntity
8
SECTION_CUT
6
CONTINUOUS
370
70
100
AcDbPolyline
90
2
70
0
10
135.000000
20
53.249200
10
135.000000
20
65.692400
0
LWPOLYLINE
100
AcDbEntity
8
SECTION_CUT
6
CONTINUOUS
370
70
100
AcDbPolyline
90
2
70
0
10
135.000000
20
53.249200
10
126.500000
20
53.249200
0
LWPOLYLINE
100
AcDbEntity
8
SECTION_CUT
6
CONTINUOUS
370
70
100
AcDbPolyline
90
2
70
0
10
126.500000
20
53.249200
10
126.500000
20
66.050800
0
LWPOLYLINE
100
AcDbEntity
8
SECTION_CUT
6
CONTINUOUS
370
70
100
AcDbPolyline
90
2
70
0
10
126.500000
20
66.050800
10
110.000000
20
66.050800
0
LWPOLYLINE
100
AcDbEntity
8
SECTION_CUT
6
CONTINUOUS
370
70
100
AcDbPolyline
90
5
70
0
10
106.000000
20
70.050800
10
106.304482
20
68.520066
10
107.171573
20
67.222373
10
108.469266
20
66.355282
10
110.000000
20
66.050800
0
LWPOLYLINE
100
AcDbEntity
8
SECTION_CUT
6
CONTINUOUS
370
70
100
AcDbPolyline
90
2
70
0
10
106.000000
20
92.350800
10
106.000000
20
70.050800
0
LWPOLYLINE
100
AcDbEntity
8
SECTION_CUT
6
CONTINUOUS
370
70
100
AcDbPolyline
90
5
70
0
10
106.000000
20
92.350800
10
106.304482
20
93.881534
10
107.171573
20
95.179227
10
108.469266
20
96.046318
10
110.000000
20
96.350800
0
LWPOLYLINE
100
AcDbEntity
8
SECTION_CUT
6
CONTINUOUS
370
70
100
AcDbPolyline
90
2
70
0
10
134.830000
20
96.350800
10
110.000000
20
96.350800
0
LWPOLYLINE
100
AcDbEntity
8
SECTION_CUT
6
CONTINUOUS
370
70
100
AcDbPolyline
90
5
70
0
10
134.830000
20
96.350800
10
136.360734
20
96.655282
10
137.658427
20
97.522373
10
138.525518
20
98.820066
10
138.830000
20
100.350800
0
LWPOLYLINE
100
AcDbEntity
8
SECTION_CUT
6
CONTINUOUS
370
70
100
AcDbPolyline
90
2
70
0
10
138.830000
20
100.350800
10
138.830000
20
191.350800
0
LWPOLYLINE
100
AcDbEntity
8
SECTION_CUT
6
CONTINUOUS
370
70
100
AcDbPolyline
90
8
70
0
10
138.830000
20
191.350800
10
138.529135
20
194.021051
10
137.641626
20
196.557405
10
136.211978
20
198.832678
10
134.311878
20
200.732778
10
132.036605
20
202.162426
10
129.500251
20
203.049935
10
126.830000
20
203.350800
0
LWPOLYLINE
100
AcDbEntity
8
SECTION_CUT
6
CONTINUOUS
370
70
100
AcDbPolyline
90
2
70
0
10
111.436688
20
203.350800
10
126.830000
20
203.350800
0
LWPOLYLINE
100
AcDbEntity
8
SECTION_CUT
6
CONTINUOUS
370
70
100
AcDbPolyline
90
2
70
0
10
111.436688
20
203.350800
10
111.436688
20
246.350800
0
LWPOLYLINE
100
AcDbEntity
8
SECTION_CUT
6
CONTINUOUS
370
70
100
AcDbPolyline
90
2
70
0
10
111.436688
20
246.350800
10
117.790000
20
246.350800
0
LWPOLYLINE
100
AcDbEntity
8
SECTION_CUT
6
CONTINUOUS
370
70
100
AcDbPolyline
90
2
70
0
10
117.790000
20
249.750800
10
117.790000
20
246.350800
0
LWPOLYLINE
100
AcDbEntity
8
SECTION_CUT
6
CONTINUOUS
370
70
100
AcDbPolyline
90
2
70
0
10
49.200000
20
203.350800
10
44.700000
20
207.850800
0
LWPOLYLINE
100
AcDbEntity
8
SECTION_CUT
6
CONTINUOUS
370
70
100
AcDbPolyline
90
2
70
0
10
44.700000
20
241.850800
10
44.700000
20
207.850800
0
LWPOLYLINE
100
AcDbEntity
8
SECTION_CUT
6
CONTINUOUS
370
70
100
AcDbPolyline
90
2
70
0
10
49.200000
20
246.350800
10
44.700000
20
241.850800
0
LWPOLYLINE
100
AcDbEntity
8
SECTION_CUT
6
CONTINUOUS
370
70
100
AcDbPolyline
90
2
70
0
10
49.200000
20
246.350800
10
73.363684
20
246.350800
0
LWPOLYLINE
100
AcDbEntity
8
SECTION_CUT
6
CONTINUOUS
370
70
100
AcDbPolyline
90
2
70
0
10
73.363684
20
203.350800
10
73.363684
20
246.350800
0
LWPOLYLINE
100
AcDbEntity
8
SECTION_CUT
6
CONTINUOUS
370
70
100
AcDbPolyline
90
2
70
0
10
49.200000
20
203.350800
10
73.363684
20
203.350800
0
LWPOLYLINE
100
AcDbEntity
8
SECTION_CUT
6
CONTINUOUS
370
70
100
AcDbPolyline
90
2
70
0
10
346.636316
20
203.350800
10
370.800000
20
203.350800
0
LWPOLYLINE
100
AcDbEntity
8
SECTION_CUT
6
CONTINUOUS
370
70
100
AcDbPolyline
90
2
70
0
10
346.636316
20
203.350800
10
346.636316
20
246.350800
0
LWPOLYLINE
100
AcDbEntity
8
SECTION_CUT
6
CONTINUOUS
370
70
100
AcDbPolyline
90
2
70
0
10
346.636316
20
246.350800
10
370.800000
20
246.350800
0
LWPOLYLINE
100
AcDbEntity
8
SECTION_CUT
6
CONTINUOUS
370
70
100
AcDbPolyline
90
2
70
0
10
370.800000
20
246.350800
10
375.300000
20
241.850800
0
LWPOLYLINE
100
AcDbEntity
8
SECTION_CUT
6
CONTINUOUS
370
70
100
AcDbPolyline
90
2
70
0
10
375.300000
20
241.850800
10
375.300000
20
207.850800
0
LWPOLYLINE
100
AcDbEntity
8
SECTION_CUT
6
CONTINUOUS
370
70
100
AcDbPolyline
90
2
70
0
10
370.800000
20
203.350800
10
375.300000
20
207.850800
0
LWPOLYLINE
100
AcDbEntity
8
HATCH
6
CONTINUOUS
370
18
100
AcDbPolyline
90
2
70
0
10
310.059623
20
66.062660
10
313.988140
20
69.991177
0
LWPOLYLINE
100
AcDbEntity
8
HATCH
6
CONTINUOUS
370
18
100
AcDbPolyline
90
2
70
0
10
285.000000
20
55.145173
10
293.500000
20
63.645173
0
LWPOLYLINE
100
AcDbEntity
8
HATCH
6
CONTINUOUS
370
18
100
AcDbPolyline
90
2
70
0
10
295.905627
20
66.050800
10
314.000000
20
84.145173
0
LWPOLYLINE
100
AcDbEntity
8
HATCH
6
CONTINUOUS
370
18
100
AcDbPolyline
90
2
70
0
10
283.764699
20
68.052007
10
311.667575
20
95.954883
0
LWPOLYLINE
100
AcDbEntity
8
HATCH
6
CONTINUOUS
370
18
100
AcDbPolyline
90
2
70
0
10
278.000000
20
76.429444
10
297.921356
20
96.350800
0
LWPOLYLINE
100
AcDbEntity
8
HATCH
6
CONTINUOUS
370
18
100
AcDbPolyline
90
2
70
0
10
272.326021
20
84.897600
10
284.009966
20
96.581545
0
LWPOLYLINE
100
AcDbEntity
8
HATCH
6
CONTINUOUS
370
18
100
AcDbPolyline
90
2
70
0
10
260.000000
20
86.713715
10
281.170000
20
107.883715
0
LWPOLYLINE
100
AcDbEntity
8
HATCH
6
CONTINUOUS
370
18
100
AcDbPolyline
90
2
70
0
10
260.000000
20
100.855851
10
281.170000
20
122.025851
0
LWPOLYLINE
100
AcDbEntity
8
HATCH
6
CONTINUOUS
370
18
100
AcDbPolyline
90
2
70
0
10
362.494949
20
203.350800
10
375.300000
20
216.155851
0
LWPOLYLINE
100
AcDbEntity
8
HATCH
6
CONTINUOUS
370
18
100
AcDbPolyline
90
2
70
0
10
260.000000
20
114.997986
10
281.170000
20
136.167986
0
LWPOLYLINE
100
AcDbEntity
8
HATCH
6
CONTINUOUS
370
18
100
AcDbPolyline
90
2
70
0
10
348.352814
20
203.350800
10
375.300000
20
230.297986
0
LWPOLYLINE
100
AcDbEntity
8
HATCH
6
CONTINUOUS
370
18
100
AcDbPolyline
90
2
70
0
10
260.000000
20
129.140122
10
281.170000
20
150.310122
0
LWPOLYLINE
100
AcDbEntity
8
HATCH
6
CONTINUOUS
370
18
100
AcDbPolyline
90
2
70
0
10
346.636316
20
215.776438
10
374.005339
20
243.145461
0
LWPOLYLINE
100
AcDbEntity
8
HATCH
6
CONTINUOUS
370
18
100
AcDbPolyline
90
2
70
0
10
260.000000
20
143.282258
10
281.170000
20
164.452258
0
LWPOLYLINE
100
AcDbEntity
8
HATCH
6
CONTINUOUS
370
18
100
AcDbPolyline
90
2
70
0
10
346.636316
20
229.918574
10
363.068542
20
246.350800
0
LWPOLYLINE
100
AcDbEntity
8
HATCH
6
CONTINUOUS
370
18
100
AcDbPolyline
90
2
70
0
10
260.000000
20
157.424393
10
281.170000
20
178.594393
0
LWPOLYLINE
100
AcDbEntity
8
HATCH
6
CONTINUOUS
370
18
100
AcDbPolyline
90
2
70
0
10
305.926407
20
203.350800
10
308.563312
20
205.987706
0
LWPOLYLINE
100
AcDbEntity
8
HATCH
6
CONTINUOUS
370
18
100
AcDbPolyline
90
2
70
0
10
346.636316
20
244.060709
10
348.926407
20
246.350800
0
LWPOLYLINE
100
AcDbEntity
8
HATCH
6
CONTINUOUS
370
18
100
AcDbPolyline
90
2
70
0
10
260.000000
20
171.566529
10
281.345960
20
192.912489
0
LWPOLYLINE
100
AcDbEntity
8
HATCH
6
CONTINUOUS
370
18
100
AcDbPolyline
90
2
70
0
10
291.608311
20
203.174840
10
308.563312
20
220.129841
0
LWPOLYLINE
100
AcDbEntity
8
HATCH
6
CONTINUOUS
370
18
100
AcDbPolyline
90
2
70
0
10
127.540536
20
53.249200
10
135.000000
20
60.708664
0
LWPOLYLINE
100
AcDbEntity
8
HATCH
6
CONTINUOUS
370
18
100
AcDbPolyline
90
2
70
0
10
156.843286
20
82.551951
10
160.000000
20
85.708664
0
LWPOLYLINE
100
AcDbEntity
8
HATCH
6
CONTINUOUS
370
18
100
AcDbPolyline
90
2
70
0
10
260.000000
20
185.708664
10
308.563312
20
234.271977
0
LWPOLYLINE
100
AcDbEntity
8
HATCH
6
CONTINUOUS
370
18
100
AcDbPolyline
90
2
70
0
10
126.200000
20
66.050800
10
142.000000
20
81.850800
0
LWPOLYLINE
100
AcDbEntity
8
HATCH
6
CONTINUOUS
370
18
100
AcDbPolyline
90
2
70
0
10
145.046800
20
84.897600
10
160.000000
20
99.850800
0
LWPOLYLINE
100
AcDbEntity
8
HATCH
6
CONTINUOUS
370
18
100
AcDbPolyline
90
2
70
0
10
260.000000
20
199.850800
10
306.500000
20
246.350800
0
LWPOLYLINE
100
AcDbEntity
8
HATCH
6
CONTINUOUS
370
18
100
AcDbPolyline
90
2
70
0
10
112.057864
20
66.050800
10
160.000000
20
113.992936
0
LWPOLYLINE
100
AcDbEntity
8
HATCH
6
CONTINUOUS
370
18
100
AcDbPolyline
90
2
70
0
10
260.000000
20
213.992936
10
295.757864
20
249.750800
0
LWPOLYLINE
100
AcDbEntity
8
HATCH
6
CONTINUOUS
370
18
100
AcDbPolyline
90
2
70
0
10
106.000000
20
74.135071
10
128.215729
20
96.350800
0
LWPOLYLINE
100
AcDbEntity
8
HATCH
6
CONTINUOUS
370
18
100
AcDbPolyline
90
2
70
0
10
138.830000
20
106.965071
10
160.000000
20
128.135071
0
LWPOLYLINE
100
AcDbEntity
8
HATCH
6
CONTINUOUS
370
18
100
AcDbPolyline
90
2
70
0
10
260.000000
20
228.135071
10
281.615729
20
249.750800
0
LWPOLYLINE
100
AcDbEntity
8
HATCH
6
CONTINUOUS
370
18
100
AcDbPolyline
90
2
70
0
10
106.000000
20
88.277207
10
114.073593
20
96.350800
0
LWPOLYLINE
100
AcDbEntity
8
HATCH
6
CONTINUOUS
370
18
100
AcDbPolyline
90
2
70
0
10
138.830000
20
121.107207
10
160.000000
20
142.277207
0
LWPOLYLINE
100
AcDbEntity
8
HATCH
6
CONTINUOUS
370
18
100
AcDbPolyline
90
2
70
0
10
260.000000
20
242.277207
10
267.473593
20
249.750800
0
LWPOLYLINE
100
AcDbEntity
8
HATCH
6
CONTINUOUS
370
18
100
AcDbPolyline
90
2
70
0
10
138.830000
20
135.249342
10
160.000000
20
156.419342
0
LWPOLYLINE
100
AcDbEntity
8
HATCH
6
CONTINUOUS
370
18
100
AcDbPolyline
90
2
70
0
10
138.830000
20
149.391478
10
160.000000
20
170.561478
0
LWPOLYLINE
100
AcDbEntity
8
HATCH
6
CONTINUOUS
370
18
100
AcDbPolyline
90
2
70
0
10
138.830000
20
163.533614
10
160.000000
20
184.703614
0
LWPOLYLINE
100
AcDbEntity
8
HATCH
6
CONTINUOUS
370
18
100
AcDbPolyline
90
2
70
0
10
138.830000
20
177.675749
10
160.000000
20
198.845749
0
LWPOLYLINE
100
AcDbEntity
8
HATCH
6
CONTINUOUS
370
18
100
AcDbPolyline
90
2
70
0
10
138.782701
20
191.770586
10
160.000000
20
212.987885
0
LWPOLYLINE
100
AcDbEntity
8
HATCH
6
CONTINUOUS
370
18
100
AcDbPolyline
90
2
70
0
10
133.876391
20
201.006412
10
160.000000
20
227.130021
0
LWPOLYLINE
100
AcDbEntity
8
HATCH
6
CONTINUOUS
370
18
100
AcDbPolyline
90
2
70
0
10
122.078644
20
203.350800
10
160.000000
20
241.272156
0
LWPOLYLINE
100
AcDbEntity
8
HATCH
6
CONTINUOUS
370
18
100
AcDbPolyline
90
2
70
0
10
111.436688
20
206.850979
10
154.336508
20
249.750800
0
LWPOLYLINE
100
AcDbEntity
8
HATCH
6
CONTINUOUS
370
18
100
AcDbPolyline
90
2
70
0
10
111.436688
20
220.993115
10
140.194373
20
249.750800
0
LWPOLYLINE
100
AcDbEntity
8
HATCH
6
CONTINUOUS
370
18
100
AcDbPolyline
90
2
70
0
10
111.436688
20
235.135251
10
126.052237
20
249.750800
0
LWPOLYLINE
100
AcDbEntity
8
HATCH
6
CONTINUOUS
370
18
100
AcDbPolyline
90
2
70
0
10
65.510101
20
203.350800
10
73.363684
20
211.204383
0
LWPOLYLINE
100
AcDbEntity
8
HATCH
6
CONTINUOUS
370
18
100
AcDbPolyline
90
2
70
0
10
51.367966
20
203.350800
10
73.363684
20
225.346518
0
LWPOLYLINE
100
AcDbEntity
8
HATCH
6
CONTINUOUS
370
18
100
AcDbPolyline
90
2
70
0
10
44.700000
20
210.824970
10
73.363684
20
239.488654
0
LWPOLYLINE
100
AcDbEntity
8
HATCH
6
CONTINUOUS
370
18
100
AcDbPolyline
90
2
70
0
10
44.700000
20
224.967106
10
66.083694
20
246.350800
0
LWPOLYLINE
100
AcDbEntity
8
HATCH
6
CONTINUOUS
370
18
100
AcDbPolyline
90
2
70
0
10
44.700000
20
239.109241
10
51.941559
20
246.350800
0
LWPOLYLINE
100
AcDbEntity
8
CENTER
6
CENTER
370
18
100
AcDbPolyline
90
2
70
0
10
92.400186
20
173.350800
10
92.400186
20
276.350800
0
LWPOLYLINE
100
AcDbEntity
8
CENTER
6
CENTER
370
18
100
AcDbPolyline
90
2
70
0
10
129.326697
20
36.050800
10
129.326697
20
126.350800
0
LWPOLYLINE
100
AcDbEntity
8
CENTER
6
CENTER
370
18
100
AcDbPolyline
90
2
70
0
10
129.846574
20
36.050800
10
129.846574
20
126.350800
0
LWPOLYLINE
100
AcDbEntity
8
CENTER
6
CENTER
370
18
100
AcDbPolyline
90
2
70
0
10
209.282993
20
173.350800
10
209.282993
20
276.350800
0
LWPOLYLINE
100
AcDbEntity
8
CENTER
6
CENTER
370
18
100
AcDbPolyline
90
2
70
0
10
210.000000
20
23.249200
10
210.000000
20
279.750800
0
LWPOLYLINE
100
AcDbEntity
8
CENTER
6
CENTER
370
18
100
AcDbPolyline
90
2
70
0
10
210.717007
20
173.350800
10
210.717007
20
276.350800
0
LWPOLYLINE
100
AcDbEntity
8
CENTER
6
CENTER
370
18
100
AcDbPolyline
90
2
70
0
10
292.048108
20
36.050800
10
292.048108
20
126.350800
0
LWPOLYLINE
100
AcDbEntity
8
CENTER
6
CENTER
370
18
100
AcDbPolyline
90
2
70
0
10
292.567984
20
36.050800
10
292.567984
20
126.350800
0
LWPOLYLINE
100
AcDbEntity
8
CENTER
6
CENTER
370
18
100
AcDbPolyline
90
2
70
0
10
327.599814
20
173.350800
10
327.599814
20
276.350800
0
LWPOLYLINE
100
AcDbEntity
8
VISIBLE
6
CONTINUOUS
370
35
100
AcDbPolyline
90
2
70
0
10
117.790000
20
249.750800
10
160.000000
20
249.750800
0
LWPOLYLINE
100
AcDbEntity
8
VISIBLE
6
CONTINUOUS
370
35
100
AcDbPolyline
90
2
70
0
10
260.000000
20
249.750800
10
302.210000
20
249.750800
0
LWPOLYLINE
100
AcDbEntity
8
VISIBLE
6
CONTINUOUS
370
35
100
AcDbPolyline
90
15
70
0
10
260.000000
20
249.750800
10
258.746396
20
249.750800
10
255.048443
20
249.750800
10
249.091574
20
249.750800
10
241.174490
20
249.750800
10
231.694187
20
249.750800
10
221.126047
20
249.750800
10
210.000000
20
249.750800
10
198.873953
20
249.750800
10
188.305813
20
249.750800
10
178.825510
20
249.750800
10
170.908426
20
249.750800
10
164.951557
20
249.750800
10
161.253604
20
249.750800
10
160.000000
20
249.750800
0
LWPOLYLINE
100
AcDbEntity
8
VISIBLE
6
CONTINUOUS
370
35
100
AcDbPolyline
90
2
70
0
10
160.000000
20
249.750800
10
160.000000
20
80.397600
0
LWPOLYLINE
100
AcDbEntity
8
VISIBLE
6
CONTINUOUS
370
35
100
AcDbPolyline
90
2
70
0
10
160.000000
20
80.397600
10
158.997637
20
80.397600
0
LWPOLYLINE
100
AcDbEntity
8
VISIBLE
6
CONTINUOUS
370
35
100
AcDbPolyline
90
2
70
0
10
158.997637
20
80.397600
10
154.497637
20
84.897600
0
LWPOLYLINE
100
AcDbEntity
8
VISIBLE
6
CONTINUOUS
370
35
100
AcDbPolyline
90
2
70
0
10
154.497637
20
84.897600
10
142.000000
20
84.897600
0
LWPOLYLINE
100
AcDbEntity
8
VISIBLE
6
CONTINUOUS
370
35
100
AcDbPolyline
90
2
70
0
10
142.000000
20
84.897600
10
142.000000
20
68.692400
0
LWPOLYLINE
100
AcDbEntity
8
VISIBLE
6
CONTINUOUS
370
35
100
AcDbPolyline
90
2
70
0
10
142.000000
20
68.692400
10
138.000000
20
68.692400
0
LWPOLYLINE
100
AcDbEntity
8
VISIBLE
6
CONTINUOUS
370
35
100
AcDbPolyline
90
5
70
0
10
138.000000
20
68.692400
10
136.851950
20
68.464039
10
135.878680
20
67.813720
10
135.228361
20
66.840450
10
135.000000
20
65.692400
0
LWPOLYLINE
100
AcDbEntity
8
VISIBLE
6
CONTINUOUS
370
35
100
AcDbPolyline
90
2
70
0
10
135.000000
20
53.249200
10
135.000000
20
65.692400
0
LWPOLYLINE
100
AcDbEntity
8
VISIBLE
6
CONTINUOUS
370
35
100
AcDbPolyline
90
2
70
0
10
135.000000
20
53.249200
10
126.500000
20
53.249200
0
LWPOLYLINE
100
AcDbEntity
8
VISIBLE
6
CONTINUOUS
370
35
100
AcDbPolyline
90
2
70
0
10
126.500000
20
53.249200
10
126.500000
20
66.050800
0
LWPOLYLINE
100
AcDbEntity
8
VISIBLE
6
CONTINUOUS
370
35
100
AcDbPolyline
90
2
70
0
10
126.500000
20
66.050800
10
110.000000
20
66.050800
0
LWPOLYLINE
100
AcDbEntity
8
VISIBLE
6
CONTINUOUS
370
35
100
AcDbPolyline
90
6
70
0
10
106.000000
20
70.050800
10
106.195774
20
68.814732
10
106.763932
20
67.699659
10
107.648859
20
66.814732
10
108.763932
20
66.246574
10
110.000000
20
66.050800
0
LWPOLYLINE
100
AcDbEntity
8
VISIBLE
6
CONTINUOUS
370
35
100
AcDbPolyline
90
2
70
0
10
106.000000
20
92.350800
10
106.000000
20
70.050800
0
LWPOLYLINE
100
AcDbEntity
8
VISIBLE
6
CONTINUOUS
370
35
100
AcDbPolyline
90
6
70
0
10
106.000000
20
92.350800
10
106.195774
20
93.586868
10
106.763932
20
94.701941
10
107.648859
20
95.586868
10
108.763932
20
96.155026
10
110.000000
20
96.350800
0
LWPOLYLINE
100
AcDbEntity
8
VISIBLE
6
CONTINUOUS
370
35
100
AcDbPolyline
90
2
70
0
10
134.830000
20
96.350800
10
110.000000
20
96.350800
0
LWPOLYLINE
100
AcDbEntity
8
VISIBLE
6
CONTINUOUS
370
35
100
AcDbPolyline
90
6
70
0
10
134.830000
20
96.350800
10
136.066068
20
96.546574
10
137.181141
20
97.114732
10
138.066068
20
97.999659
10
138.634226
20
99.114732
10
138.830000
20
100.350800
0
LWPOLYLINE
100
AcDbEntity
8
VISIBLE
6
CONTINUOUS
370
35
100
AcDbPolyline
90
2
70
0
10
138.830000
20
100.350800
10
138.830000
20
191.350800
0
LWPOLYLINE
100
AcDbEntity
8
VISIBLE
6
CONTINUOUS
370
35
100
AcDbPolyline
90
9
70
0
10
138.830000
20
191.350800
10
138.599423
20
193.691884
10
137.916554
20
195.943001
10
136.807635
20
198.017643
10
135.315281
20
199.836081
10
133.496843
20
201.328435
10
131.422201
20
202.437354
10
129.171084
20
203.120223
10
126.830000
20
203.350800
0
LWPOLYLINE
100
AcDbEntity
8
VISIBLE
6
CONTINUOUS
370
35
100
AcDbPolyline
90
2
70
0
10
111.436688
20
203.350800
10
126.830000
20
203.350800
0
LWPOLYLINE
100
AcDbEntity
8
VISIBLE
6
CONTINUOUS
370
35
100
AcDbPolyline
90
2
70
0
10
111.436688
20
203.350800
10
111.436688
20
246.350800
0
LWPOLYLINE
100
AcDbEntity
8
VISIBLE
6
CONTINUOUS
370
35
100
AcDbPolyline
90
2
70
0
10
111.436688
20
246.350800
10
117.790000
20
246.350800
0
LWPOLYLINE
100
AcDbEntity
8
VISIBLE
6
CONTINUOUS
370
35
100
AcDbPolyline
90
2
70
0
10
117.790000
20
249.750800
10
117.790000
20
246.350800
0
LWPOLYLINE
100
AcDbEntity
8
VISIBLE
6
CONTINUOUS
370
35
100
AcDbPolyline
90
2
70
0
10
302.210000
20
249.750800
10
302.210000
20
246.350800
0
LWPOLYLINE
100
AcDbEntity
8
VISIBLE
6
CONTINUOUS
370
35
100
AcDbPolyline
90
2
70
0
10
302.210000
20
246.350800
10
308.563312
20
246.350800
0
LWPOLYLINE
100
AcDbEntity
8
VISIBLE
6
CONTINUOUS
370
35
100
AcDbPolyline
90
2
70
0
10
308.563312
20
203.350800
10
308.563312
20
246.350800
0
LWPOLYLINE
100
AcDbEntity
8
VISIBLE
6
CONTINUOUS
370
35
100
AcDbPolyline
90
2
70
0
10
293.170000
20
203.350800
10
308.563312
20
203.350800
0
LWPOLYLINE
100
AcDbEntity
8
VISIBLE
6
CONTINUOUS
370
35
100
AcDbPolyline
90
9
70
0
10
281.170000
20
191.350800
10
281.400577
20
193.691884
10
282.083446
20
195.943001
10
283.192365
20
198.017643
10
284.684719
20
199.836081
10
286.503157
20
201.328435
10
288.577799
20
202.437354
10
290.828916
20
203.120223
10
293.170000
20
203.350800
0
LWPOLYLINE
100
AcDbEntity
8
VISIBLE
6
CONTINUOUS
370
35
100
AcDbPolyline
90
2
70
0
10
281.170000
20
191.350800
10
281.170000
20
100.350800
0
LWPOLYLINE
100
AcDbEntity
8
VISIBLE
6
CONTINUOUS
370
35
100
AcDbPolyline
90
6
70
0
10
285.170000
20
96.350800
10
283.933932
20
96.546574
10
282.818859
20
97.114732
10
281.933932
20
97.999659
10
281.365774
20
99.114732
10
281.170000
20
100.350800
0
LWPOLYLINE
100
AcDbEntity
8
VISIBLE
6
CONTINUOUS
370
35
100
AcDbPolyline
90
2
70
0
10
310.000000
20
96.350800
10
285.170000
20
96.350800
0
LWPOLYLINE
100
AcDbEntity
8
VISIBLE
6
CONTINUOUS
370
35
100
AcDbPolyline
90
6
70
0
10
314.000000
20
92.350800
10
313.804226
20
93.586868
10
313.236068
20
94.701941
10
312.351141
20
95.586868
10
311.236068
20
96.155026
10
310.000000
20
96.350800
0
LWPOLYLINE
100
AcDbEntity
8
VISIBLE
6
CONTINUOUS
370
35
100
AcDbPolyline
90
2
70
0
10
314.000000
20
70.050800
10
314.000000
20
92.350800
0
LWPOLYLINE
100
AcDbEntity
8
VISIBLE
6
CONTINUOUS
370
35
100
AcDbPolyline
90
6
70
0
10
314.000000
20
70.050800
10
313.804226
20
68.814732
10
313.236068
20
67.699659
10
312.351141
20
66.814732
10
311.236068
20
66.246574
10
310.000000
20
66.050800
0
LWPOLYLINE
100
AcDbEntity
8
VISIBLE
6
CONTINUOUS
370
35
100
AcDbPolyline
90
2
70
0
10
310.000000
20
66.050800
10
293.500000
20
66.050800
0
LWPOLYLINE
100
AcDbEntity
8
VISIBLE
6
CONTINUOUS
370
35
100
AcDbPolyline
90
2
70
0
10
293.500000
20
53.249200
10
293.500000
20
66.050800
0
LWPOLYLINE
100
AcDbEntity
8
VISIBLE
6
CONTINUOUS
370
35
100
AcDbPolyline
90
2
70
0
10
293.500000
20
53.249200
10
285.000000
20
53.249200
0
LWPOLYLINE
100
AcDbEntity
8
VISIBLE
6
CONTINUOUS
370
35
100
AcDbPolyline
90
2
70
0
10
285.000000
20
53.249200
10
285.000000
20
65.692400
0
LWPOLYLINE
100
AcDbEntity
8
VISIBLE
6
CONTINUOUS
370
35
100
AcDbPolyline
90
5
70
0
10
282.000000
20
68.692400
10
283.148050
20
68.464039
10
284.121320
20
67.813720
10
284.771639
20
66.840450
10
285.000000
20
65.692400
0
LWPOLYLINE
100
AcDbEntity
8
VISIBLE
6
CONTINUOUS
370
35
100
AcDbPolyline
90
2
70
0
10
282.000000
20
68.692400
10
278.000000
20
68.692400
0
LWPOLYLINE
100
AcDbEntity
8
VISIBLE
6
CONTINUOUS
370
35
100
AcDbPolyline
90
2
70
0
10
278.000000
20
84.897600
10
278.000000
20
68.692400
0
LWPOLYLINE
100
AcDbEntity
8
VISIBLE
6
CONTINUOUS
370
35
100
AcDbPolyline
90
2
70
0
10
278.000000
20
84.897600
10
265.502363
20
84.897600
0
LWPOLYLINE
100
AcDbEntity
8
VISIBLE
6
CONTINUOUS
370
35
100
AcDbPolyline
90
2
70
0
10
261.002363
20
80.397600
10
265.502363
20
84.897600
0
LWPOLYLINE
100
AcDbEntity
8
VISIBLE
6
CONTINUOUS
370
35
100
AcDbPolyline
90
2
70
0
10
261.002363
20
80.397600
10
260.000000
20
80.397600
0
LWPOLYLINE
100
AcDbEntity
8
VISIBLE
6
CONTINUOUS
370
35
100
AcDbPolyline
90
2
70
0
10
260.000000
20
249.750800
10
260.000000
20
80.397600
0
LWPOLYLINE
100
AcDbEntity
8
VISIBLE
6
CONTINUOUS
370
35
100
AcDbPolyline
90
15
70
0
10
160.000000
20
80.397600
10
161.253604
20
80.397600
10
164.951557
20
80.397600
10
170.908426
20
80.397600
10
178.825510
20
80.397600
10
188.305813
20
80.397600
10
198.873953
20
80.397600
10
210.000000
20
80.397600
10
221.126047
20
80.397600
10
231.694187
20
80.397600
10
241.174490
20
80.397600
10
249.091574
20
80.397600
10
255.048443
20
80.397600
10
258.746396
20
80.397600
10
260.000000
20
80.397600
0
LWPOLYLINE
100
AcDbEntity
8
VISIBLE
6
CONTINUOUS
370
35
100
AcDbPolyline
90
15
70
0
10
142.000000
20
84.897600
10
142.065808
20
84.897600
10
142.263104
20
84.897600
10
142.591506
20
84.897600
10
143.050379
20
84.897600
10
143.638835
20
84.897600
10
144.355734
20
84.897600
10
145.199689
20
84.897600
10
146.169066
20
84.897600
10
147.261990
20
84.897600
10
148.476345
20
84.897600
10
149.809780
20
84.897600
10
151.259715
20
84.897600
10
152.823342
20
84.897600
10
154.497637
20
84.897600
0
LWPOLYLINE
100
AcDbEntity
8
VISIBLE
6
CONTINUOUS
370
35
100
AcDbPolyline
90
15
70
0
10
265.502363
20
84.897600
10
267.176658
20
84.897600
10
268.740285
20
84.897600
10
270.190220
20
84.897600
10
271.523655
20
84.897600
10
272.738010
20
84.897600
10
273.830934
20
84.897600
10
274.800311
20
84.897600
10
275.644266
20
84.897600
10
276.361165
20
84.897600
10
276.949621
20
84.897600
10
277.408494
20
84.897600
10
277.736896
20
84.897600
10
277.934192
20
84.897600
10
278.000000
20
84.897600
0
LWPOLYLINE
100
AcDbEntity
8
VISIBLE
6
CONTINUOUS
370
35
100
AcDbPolyline
90
15
70
0
10
142.000000
20
68.692400
10
143.704902
20
68.692400
10
148.734117
20
68.692400
10
156.835459
20
68.692400
10
167.602693
20
68.692400
10
180.495906
20
68.692400
10
194.868576
20
68.692400
10
210.000000
20
68.692400
10
225.131424
20
68.692400
10
239.504094
20
68.692400
10
252.397307
20
68.692400
10
263.164541
20
68.692400
10
271.265883
20
68.692400
10
276.295098
20
68.692400
10
278.000000
20
68.692400
0
LWPOLYLINE
100
AcDbEntity
8
VISIBLE
6
CONTINUOUS
370
35
100
AcDbPolyline
90
15
70
0
10
135.000000
20
53.249200
10
136.880407
20
53.249200
10
142.427335
20
53.249200
10
151.362639
20
53.249200
10
163.238265
20
53.249200
10
177.458720
20
53.249200
10
193.310930
20
53.249200
10
210.000000
20
53.249200
10
226.689070
20
53.249200
10
242.541280
20
53.249200
10
256.761735
20
53.249200
10
268.637361
20
53.249200
10
277.572665
20
53.249200
10
283.119593
20
53.249200
10
285.000000
20
53.249200
0
LWPOLYLINE
100
AcDbEntity
8
VISIBLE
6
CONTINUOUS
370
35
100
AcDbPolyline
90
15
70
0
10
302.970108
20
66.050800
10
303.875288
20
66.050800
10
304.731031
20
66.050800
10
305.533448
20
66.050800
10
306.278890
20
66.050800
10
306.963969
20
66.050800
10
307.585570
20
66.050800
10
308.140869
20
66.050800
10
308.627340
20
66.050800
10
309.042773
20
66.050800
10
309.385278
20
66.050800
10
309.653300
20
66.050800
10
309.845619
20
66.050800
10
309.961361
20
66.050800
10
310.000000
20
66.050800
0
LWPOLYLINE
100
AcDbEntity
8
VISIBLE
6
CONTINUOUS
370
35
100
AcDbPolyline
90
15
70
0
10
110.000000
20
66.050800
10
110.046949
20
66.050800
10
110.187536
20
66.050800
10
110.420984
20
66.050800
10
110.746005
20
66.050800
10
111.160803
20
66.050800
10
111.663087
20
66.050800
10
112.250082
20
66.050800
10
112.918547
20
66.050800
10
113.664789
20
66.050800
10
114.484687
20
66.050800
10
115.373711
20
66.050800
10
116.326952
20
66.050800
10
117.339144
20
66.050800
10
118.404697
20
66.050800
0
LWPOLYLINE
100
AcDbEntity
8
VISIBLE
6
CONTINUOUS
370
35
100
AcDbPolyline
90
15
70
0
10
302.970108
20
66.050800
10
302.912586
20
66.050800
10
302.740627
20
66.050800
10
302.456042
20
66.050800
10
302.061828
20
66.050800
10
301.562138
20
66.050800
10
300.962235
20
66.050800
10
300.268438
20
66.050800
10
299.488054
20
66.050800
10
298.629305
20
66.050800
10
297.701235
20
66.050800
10
296.713619
20
66.050800
10
295.676861
20
66.050800
10
294.601880
20
66.050800
10
293.500000
20
66.050800
0
LWPOLYLINE
100
AcDbEntity
8
VISIBLE
6
CONTINUOUS
370
35
100
AcDbPolyline
90
15
70
0
10
126.500000
20
66.050800
10
125.527364
20
66.050800
10
124.587918
20
66.050800
10
123.689871
20
66.050800
10
122.841067
20
66.050800
10
122.048922
20
66.050800
10
121.320355
20
66.050800
10
120.661731
20
66.050800
10
120.078805
20
66.050800
10
119.576668
20
66.050800
10
119.159708
20
66.050800
10
118.831566
20
66.050800
10
118.595110
20
66.050800
10
118.452404
20
66.050800
10
118.404697
20
66.050800
0
LWPOLYLINE
100
AcDbEntity
8
VISIBLE
6
CONTINUOUS
370
35
100
AcDbPolyline
90
15
70
0
10
302.970108
20
96.350800
10
302.829105
20
96.350800
10
302.409739
20
96.350800
10
301.722838
20
96.350800
10
300.786136
20
96.350800
10
299.623820
20
96.350800
10
298.265899
20
96.350800
10
296.747437
20
96.350800
10
295.107638
20
96.350800
10
293.388843
20
96.350800
10
291.635430
20
96.350800
10
289.892673
20
96.350800
10
288.205568
20
96.350800
10
286.617678
20
96.350800
10
285.170000
20
96.350800
0
LWPOLYLINE
100
AcDbEntity
8
VISIBLE
6
CONTINUOUS
370
35
100
AcDbPolyline
90
15
70
0
10
118.404697
20
96.350800
10
118.527208
20
96.350800
10
118.891993
20
96.350800
10
119.490867
20
96.350800
10
120.310397
20
96.350800
10
121.332196
20
96.350800
10
122.533343
20
96.350800
10
123.886890
20
96.350800
10
125.362472
20
96.350800
10
126.926988
20
96.350800
10
128.545338
20
96.350800
10
130.181216
20
96.350800
10
131.797925
20
96.350800
10
133.359195
20
96.350800
10
134.830000
20
96.350800
0
LWPOLYLINE
100
AcDbEntity
8
VISIBLE
6
CONTINUOUS
370
35
100
AcDbPolyline
90
9
70
0
10
127.909422
20
203.302153
10
129.884541
20
202.955531
10
131.887985
20
202.232748
10
133.768417
20
201.141529
10
135.470856
20
199.677601
10
136.894112
20
197.886368
10
137.942382
20
195.880145
10
138.601453
20
193.678139
10
138.830000
20
191.350800
0
LWPOLYLINE
100
AcDbEntity
8
VISIBLE
6
CONTINUOUS
370
35
100
AcDbPolyline
90
15
70
0
10
111.436688
20
203.350800
10
110.956357
20
203.350800
10
109.804345
20
203.350800
10
108.022351
20
203.350800
10
105.674877
20
203.350800
10
102.846897
20
203.350800
10
99.640774
20
203.350800
10
96.172562
20
203.350800
10
92.567801
20
203.350800
10
88.956973
20
203.350800
10
85.470779
20
203.350800
10
82.235411
20
203.350800
10
79.367979
20
203.350800
10
76.972277
20
203.350800
10
75.135022
20
203.350800
0
LWPOLYLINE
100
AcDbEntity
8
VISIBLE
6
CONTINUOUS
370
35
100
AcDbPolyline
90
15
70
0
10
75.135022
20
203.350800
10
74.912785
20
203.350800
10
74.704728
20
203.350800
10
74.511020
20
203.350800
10
74.331819
20
203.350800
10
74.167270
20
203.350800
10
74.017507
20
203.350800
10
73.882650
20
203.350800
10
73.762809
20
203.350800
10
73.658082
20
203.350800
10
73.568552
20
203.350800
10
73.494294
20
203.350800
10
73.435367
20
203.350800
10
73.391818
20
203.350800
10
73.363684
20
203.350800
0
LWPOLYLINE
100
AcDbEntity
8
VISIBLE
6
CONTINUOUS
370
35
100
AcDbPolyline
90
2
70
0
10
49.200000
20
203.350800
10
73.363684
20
203.350800
0
LWPOLYLINE
100
AcDbEntity
8
VISIBLE
6
CONTINUOUS
370
35
100
AcDbPolyline
90
2
70
0
10
346.636316
20
203.350800
10
370.800000
20
203.350800
0
LWPOLYLINE
100
AcDbEntity
8
VISIBLE
6
CONTINUOUS
370
35
100
AcDbPolyline
90
15
70
0
10
346.636316
20
203.350800
10
346.155986
20
203.350800
10
345.003973
20
203.350800
10
343.221979
20
203.350800
10
340.874505
20
203.350800
10
338.046525
20
203.350800
10
334.840403
20
203.350800
10
331.372191
20
203.350800
10
327.767430
20
203.350800
10
324.156601
20
203.350800
10
320.670407
20
203.350800
10
317.435039
20
203.350800
10
314.567607
20
203.350800
10
312.171905
20
203.350800
10
310.334651
20
203.350800
0
LWPOLYLINE
100
AcDbEntity
8
VISIBLE
6
CONTINUOUS
370
35
100
AcDbPolyline
90
15
70
0
10
310.334651
20
203.350800
10
310.112413
20
203.350800
10
309.904356
20
203.350800
10
309.710649
20
203.350800
10
309.531448
20
203.350800
10
309.366899
20
203.350800
10
309.217135
20
203.350800
10
309.082278
20
203.350800
10
308.962437
20
203.350800
10
308.857710
20
203.350800
10
308.768181
20
203.350800
10
308.693922
20
203.350800
10
308.634995
20
203.350800
10
308.591447
20
203.350800
10
308.563312
20
203.350800
0
LWPOLYLINE
100
AcDbEntity
8
VISIBLE
6
CONTINUOUS
370
35
100
AcDbPolyline
90
15
70
0
10
111.436688
20
246.350800
10
110.956357
20
246.350800
10
109.804345
20
246.350800
10
108.022351
20
246.350800
10
105.674877
20
246.350800
10
102.846897
20
246.350800
10
99.640774
20
246.350800
10
96.172562
20
246.350800
10
92.567801
20
246.350800
10
88.956973
20
246.350800
10
85.470779
20
246.350800
10
82.235411
20
246.350800
10
79.367979
20
246.350800
10
76.972277
20
246.350800
10
75.135022
20
246.350800
0
LWPOLYLINE
100
AcDbEntity
8
VISIBLE
6
CONTINUOUS
370
35
100
AcDbPolyline
90
15
70
0
10
75.135022
20
246.350800
10
74.912785
20
246.350800
10
74.704728
20
246.350800
10
74.511020
20
246.350800
10
74.331819
20
246.350800
10
74.167270
20
246.350800
10
74.017507
20
246.350800
10
73.882650
20
246.350800
10
73.762809
20
246.350800
10
73.658082
20
246.350800
10
73.568552
20
246.350800
10
73.494294
20
246.350800
10
73.435367
20
246.350800
10
73.391818
20
246.350800
10
73.363684
20
246.350800
0
LWPOLYLINE
100
AcDbEntity
8
VISIBLE
6
CONTINUOUS
370
35
100
AcDbPolyline
90
2
70
0
10
49.200000
20
246.350800
10
73.363684
20
246.350800
0
LWPOLYLINE
100
AcDbEntity
8
VISIBLE
6
CONTINUOUS
370
35
100
AcDbPolyline
90
2
70
0
10
346.636316
20
246.350800
10
370.800000
20
246.350800
0
LWPOLYLINE
100
AcDbEntity
8
VISIBLE
6
CONTINUOUS
370
35
100
AcDbPolyline
90
15
70
0
10
346.636316
20
246.350800
10
346.155986
20
246.350800
10
345.003973
20
246.350800
10
343.221979
20
246.350800
10
340.874505
20
246.350800
10
338.046525
20
246.350800
10
334.840403
20
246.350800
10
331.372191
20
246.350800
10
327.767430
20
246.350800
10
324.156601
20
246.350800
10
320.670407
20
246.350800
10
317.435039
20
246.350800
10
314.567607
20
246.350800
10
312.171905
20
246.350800
10
310.334651
20
246.350800
0
LWPOLYLINE
100
AcDbEntity
8
VISIBLE
6
CONTINUOUS
370
35
100
AcDbPolyline
90
15
70
0
10
310.334651
20
246.350800
10
310.112413
20
246.350800
10
309.904356
20
246.350800
10
309.710649
20
246.350800
10
309.531448
20
246.350800
10
309.366899
20
246.350800
10
309.217135
20
246.350800
10
309.082278
20
246.350800
10
308.962437
20
246.350800
10
308.857710
20
246.350800
10
308.768181
20
246.350800
10
308.693922
20
246.350800
10
308.634995
20
246.350800
10
308.591447
20
246.350800
10
308.563312
20
246.350800
0
LWPOLYLINE
100
AcDbEntity
8
VISIBLE
6
CONTINUOUS
370
35
100
AcDbPolyline
90
9
70
0
10
281.170000
20
191.350800
10
281.297646
20
193.096251
10
281.671258
20
194.782845
10
282.271762
20
196.373538
10
283.086460
20
197.856353
10
284.111405
20
199.221022
10
285.312816
20
200.420740
10
286.637707
20
201.417036
10
288.051372
20
202.204355
0
LWPOLYLINE
100
AcDbEntity
8
VISIBLE
6
CONTINUOUS
370
35
100
AcDbPolyline
90
3
70
0
10
288.112014
20
202.232747
10
290.115458
20
202.955531
10
292.090578
20
203.302153
0
LWPOLYLINE
100
AcDbEntity
8
VISIBLE
6
CONTINUOUS
370
35
100
AcDbPolyline
90
2
70
0
10
73.363684
20
203.350800
10
73.363684
20
246.350800
0
LWPOLYLINE
100
AcDbEntity
8
VISIBLE
6
CONTINUOUS
370
35
100
AcDbPolyline
90
2
70
0
10
49.200000
20
203.350800
10
44.700000
20
207.850800
0
LWPOLYLINE
100
AcDbEntity
8
VISIBLE
6
CONTINUOUS
370
35
100
AcDbPolyline
90
2
70
0
10
44.700000
20
241.850800
10
44.700000
20
207.850800
0
LWPOLYLINE
100
AcDbEntity
8
VISIBLE
6
CONTINUOUS
370
35
100
AcDbPolyline
90
2
70
0
10
49.200000
20
246.350800
10
44.700000
20
241.850800
0
LWPOLYLINE
100
AcDbEntity
8
VISIBLE
6
CONTINUOUS
370
35
100
AcDbPolyline
90
2
70
0
10
370.800000
20
203.350800
10
375.300000
20
207.850800
0
LWPOLYLINE
100
AcDbEntity
8
VISIBLE
6
CONTINUOUS
370
35
100
AcDbPolyline
90
2
70
0
10
346.636316
20
203.350800
10
346.636316
20
246.350800
0
LWPOLYLINE
100
AcDbEntity
8
VISIBLE
6
CONTINUOUS
370
35
100
AcDbPolyline
90
2
70
0
10
370.800000
20
246.350800
10
375.300000
20
241.850800
0
LWPOLYLINE
100
AcDbEntity
8
VISIBLE
6
CONTINUOUS
370
35
100
AcDbPolyline
90
2
70
0
10
375.300000
20
241.850800
10
375.300000
20
207.850800
0
LWPOLYLINE
100
AcDbEntity
8
VISIBLE
6
CONTINUOUS
370
35
100
AcDbPolyline
90
2
70
0
10
126.830000
20
203.350800
10
127.909422
20
203.302153
0
LWPOLYLINE
100
AcDbEntity
8
VISIBLE
6
CONTINUOUS
370
35
100
AcDbPolyline
90
2
70
0
10
126.830000
20
203.350800
10
126.832238
20
203.350800
0
LWPOLYLINE
100
AcDbEntity
8
VISIBLE
6
CONTINUOUS
370
35
100
AcDbPolyline
90
2
70
0
10
292.090578
20
203.302153
10
293.170000
20
203.350800
0
TEXT
100
AcDbEntity
8
LABEL
6
CONTINUOUS
370
18
100
AcDbText
10
210.000000
20
44.249200
40
4.000000
1
SEZIONE A-A   SCALA 2:1
72
1
11
210.000000
21
44.249200
0
ENDSEC
0
EOF
