0
SECTION
2
HEADER
9
$ACADVER
1
AC1015
9
$INSUNITS
70
4
0
ENDSEC
0
SECTION
2
TABLES
0
TABLE
2
LAYER
70
4
0
LAYER
2
VISIBLE
70
0
62
7
6
CONTINUOUS
0
LAYER
2
HIDDEN
70
0
62
8
6
DASHED
0
LAYER
2
CENTER
70
0
62
4
6
CENTER
0
LAYER
2
LABEL
70
0
62
8
6
CONTINUOUS
0
ENDTAB
0
ENDSEC
0
SECTION
2
ENTITIES
0
LWPOLYLINE
8
VISIBLE
90
2
70
0
10
20.000000
20
123.500000
10
20.000000
20
173.500000
0
LWPOLYLINE
8
VISIBLE
90
2
70
0
10
20.000000
20
173.500000
10
80.000000
20
173.500000
0
LWPOLYLINE
8
VISIBLE
90
2
70
0
10
20.000000
20
123.500000
10
80.000000
20
123.500000
0
LWPOLYLINE
8
VISIBLE
90
2
70
0
10
80.000000
20
123.500000
10
80.000000
20
173.500000
0
LWPOLYLINE
8
VISIBLE
90
2
70
0
10
100.000000
20
123.500000
10
100.000000
20
173.500000
0
LWPOLYLINE
8
VISIBLE
90
2
70
0
10
100.000000
20
123.500000
10
200.000000
20
123.500000
0
LWPOLYLINE
8
VISIBLE
90
2
70
0
10
100.000000
20
173.500000
10
200.000000
20
173.500000
0
LWPOLYLINE
8
VISIBLE
90
2
70
0
10
200.000000
20
123.500000
10
200.000000
20
173.500000
0
LWPOLYLINE
8
VISIBLE
90
2
70
0
10
280.000000
20
173.500000
10
220.000000
20
173.500000
0
LWPOLYLINE
8
VISIBLE
90
2
70
0
10
280.000000
20
123.500000
10
280.000000
20
173.500000
0
LWPOLYLINE
8
VISIBLE
90
2
70
0
10
220.000000
20
123.500000
10
220.000000
20
173.500000
0
LWPOLYLINE
8
VISIBLE
90
2
70
0
10
280.000000
20
123.500000
10
220.000000
20
123.500000
0
LWPOLYLINE
8
VISIBLE
90
2
70
0
10
400.000000
20
123.500000
10
400.000000
20
173.500000
0
LWPOLYLINE
8
VISIBLE
90
2
70
0
10
400.000000
20
173.500000
10
300.000000
20
173.500000
0
LWPOLYLINE
8
VISIBLE
90
2
70
0
10
400.000000
20
123.500000
10
300.000000
20
123.500000
0
LWPOLYLINE
8
VISIBLE
90
2
70
0
10
300.000000
20
123.500000
10
300.000000
20
173.500000
0
LWPOLYLINE
8
VISIBLE
90
2
70
0
10
100.000000
20
253.500000
10
200.000000
20
253.500000
0
LWPOLYLINE
8
VISIBLE
90
2
70
0
10
100.000000
20
253.500000
10
100.000000
20
193.500000
0
LWPOLYLINE
8
VISIBLE
90
2
70
0
10
200.000000
20
253.500000
10
200.000000
20
193.500000
0
LWPOLYLINE
8
VISIBLE
90
2
70
0
10
100.000000
20
193.500000
10
200.000000
20
193.500000
0
LWPOLYLINE
8
VISIBLE
90
2
70
0
10
100.000000
20
43.500000
10
100.000000
20
103.500000
0
LWPOLYLINE
8
VISIBLE
90
2
70
0
10
100.000000
20
103.500000
10
200.000000
20
103.500000
0
LWPOLYLINE
8
VISIBLE
90
2
70
0
10
100.000000
20
43.500000
10
200.000000
20
43.500000
0
LWPOLYLINE
8
VISIBLE
90
2
70
0
10
200.000000
20
43.500000
10
200.000000
20
103.500000
0
TEXT
8
LABEL
10
50.000000
20
117.500000
40
4.000000
1
RIGHT
72
1
11
50.000000
21
117.500000
0
TEXT
8
LABEL
10
150.000000
20
117.500000
40
4.000000
1
FRONT
72
1
11
150.000000
21
117.500000
0
TEXT
8
LABEL
10
250.000000
20
117.500000
40
4.000000
1
LEFT
72
1
11
250.000000
21
117.500000
0
TEXT
8
LABEL
10
350.000000
20
117.500000
40
4.000000
1
REAR
72
1
11
350.000000
21
117.500000
0
TEXT
8
LABEL
10
150.000000
20
187.500000
40
4.000000
1
BOTTOM
72
1
11
150.000000
21
187.500000
0
TEXT
8
LABEL
10
150.000000
20
37.500000
40
4.000000
1
TOP
72
1
11
150.000000
21
37.500000
0
ENDSEC
0
EOF
