0
SECTION
2
HEADER
9
$ACADVER
1
AC1015
9
$INSUNITS
70
4
0
ENDSEC
0
SECTION
2
TABLES
0
TABLE
2
LAYER
70
4
0
LAYER
2
VISIBLE
70
0
62
7
6
CONTINUOUS
0
LAYER
2
HIDDEN
70
0
62
8
6
DASHED
0
LAYER
2
CENTER
70
0
62
4
6
CENTER
0
LAYER
2
LABEL
70
0
62
8
6
CONTINUOUS
0
ENDTAB
0
ENDSEC
0
SECTION
2
ENTITIES
0
LWPOLYLINE
8
CENTER
90
2
70
0
10
17.000000
20
151.500000
10
83.000000
20
151.500000
0
LWPOLYLINE
8
HIDDEN
90
2
70
0
10
20.000000
20
123.500000
10
20.000000
20
173.500000
0
LWPOLYLINE
8
HIDDEN
90
2
70
0
10
20.000000
20
123.500000
10
80.000000
20
123.500000
0
LWPOLYLINE
8
HIDDEN
90
2
70
0
10
80.000000
20
123.500000
10
80.000000
20
173.500000
0
LWPOLYLINE
8
HIDDEN
90
2
70
0
10
20.000000
20
173.500000
10
80.000000
20
173.500000
0
LWPOLYLINE
8
HIDDEN
90
15
70
0
10
20.000000
20
161.500000
10
20.000000
20
161.249279
10
20.000000
20
160.509689
10
20.000000
20
159.318315
10
20.000000
20
157.734898
10
20.000000
20
155.838837
10
20.000000
20
153.725209
10
20.000000
20
151.500000
10
20.000000
20
149.274791
10
20.000000
20
147.161163
10
20.000000
20
145.265102
10
20.000000
20
143.681685
10
20.000000
20
142.490311
10
20.000000
20
141.750721
10
20.000000
20
141.500000
0
LWPOLYLINE
8
HIDDEN
90
15
70
0
10
20.000000
20
141.500000
10
20.000000
20
141.750721
10
20.000000
20
142.490311
10
20.000000
20
143.681685
10
20.000000
20
145.265102
10
20.000000
20
147.161163
10
20.000000
20
149.274791
10
20.000000
20
151.500000
10
20.000000
20
153.725209
10
20.000000
20
155.838837
10
20.000000
20
157.734898
10
20.000000
20
159.318315
10
20.000000
20
160.509689
10
20.000000
20
161.249279
10
20.000000
20
161.500000
0
LWPOLYLINE
8
HIDDEN
90
15
70
0
10
80.000000
20
161.500000
10
80.000000
20
161.249279
10
80.000000
20
160.509689
10
80.000000
20
159.318315
10
80.000000
20
157.734898
10
80.000000
20
155.838837
10
80.000000
20
153.725209
10
80.000000
20
151.500000
10
80.000000
20
149.274791
10
80.000000
20
147.161163
10
80.000000
20
145.265102
10
80.000000
20
143.681685
10
80.000000
20
142.490311
10
80.000000
20
141.750721
10
80.000000
20
141.500000
0
LWPOLYLINE
8
HIDDEN
90
15
70
0
10
80.000000
20
141.500000
10
80.000000
20
141.750721
10
80.000000
20
142.490311
10
80.000000
20
143.681685
10
80.000000
20
145.265102
10
80.000000
20
147.161163
10
80.000000
20
149.274791
10
80.000000
20
151.500000
10
80.000000
20
153.725209
10
80.000000
20
155.838837
10
80.000000
20
157.734898
10
80.000000
20
159.318315
10
80.000000
20
160.509689
10
80.000000
20
161.249279
10
80.000000
20
161.500000
0
LWPOLYLINE
8
HIDDEN
90
2
70
0
10
20.000000
20
161.500000
10
80.000000
20
161.500000
0
LWPOLYLINE
8
HIDDEN
90
2
70
0
10
20.000000
20
141.500000
10
80.000000
20
141.500000
0
LWPOLYLINE
8
VISIBLE
90
2
70
0
10
20.000000
20
123.500000
10
20.000000
20
173.500000
0
LWPOLYLINE
8
VISIBLE
90
2
70
0
10
20.000000
20
173.500000
10
80.000000
20
173.500000
0
LWPOLYLINE
8
VISIBLE
90
2
70
0
10
80.000000
20
123.500000
10
80.000000
20
173.500000
0
LWPOLYLINE
8
VISIBLE
90
2
70
0
10
20.000000
20
123.500000
10
80.000000
20
123.500000
0
LWPOLYLINE
8
CENTER
90
2
70
0
10
117.000000
20
151.500000
10
143.000000
20
151.500000
0
LWPOLYLINE
8
CENTER
90
2
70
0
10
130.000000
20
138.500000
10
130.000000
20
164.500000
0
LWPOLYLINE
8
HIDDEN
90
2
70
0
10
100.000000
20
123.500000
10
100.000000
20
173.500000
0
LWPOLYLINE
8
HIDDEN
90
2
70
0
10
100.000000
20
173.500000
10
200.000000
20
173.500000
0
LWPOLYLINE
8
HIDDEN
90
2
70
0
10
100.000000
20
123.500000
10
200.000000
20
123.500000
0
LWPOLYLINE
8
HIDDEN
90
2
70
0
10
200.000000
20
123.500000
10
200.000000
20
173.500000
0
LWPOLYLINE
8
HIDDEN
90
42
70
0
10
130.000000
20
161.500000
10
131.526493
20
161.382804
10
133.017206
20
161.033964
10
134.437198
20
160.461656
10
135.753187
20
159.679294
10
136.934325
20
158.705216
10
137.952929
20
157.562254
10
138.785123
20
156.277198
10
139.411400
20
154.880169
10
139.817083
20
153.403911
10
139.992662
20
151.883027
10
139.934021
20
150.353166
10
139.642535
20
148.850185
10
139.125036
20
147.409314
10
138.393654
20
146.064324
10
137.465532
20
144.846743
10
136.362424
20
143.785108
10
135.110187
20
142.904304
10
133.738171
20
142.224975
10
132.278535
20
141.763046
10
130.765493
20
141.529342
10
129.234507
20
141.529342
10
127.721465
20
141.763046
10
126.261829
20
142.224975
10
124.889813
20
142.904304
10
123.637576
20
143.785108
10
122.534468
20
144.846743
10
121.606346
20
146.064324
10
120.874964
20
147.409314
10
120.357465
20
148.850185
10
120.065979
20
150.353166
10
120.007338
20
151.883027
10
120.182917
20
153.403911
10
120.588600
20
154.880169
10
121.214877
20
156.277198
10
122.047071
20
157.562254
10
123.065675
20
158.705216
10
124.246813
20
159.679294
10
125.562802
20
160.461656
10
126.982794
20
161.033964
10
128.473507
20
161.382804
10
130.000000
20
161.500000
0
LWPOLYLINE
8
VISIBLE
90
2
70
0
10
100.000000
20
123.500000
10
100.000000
20
173.500000
0
LWPOLYLINE
8
VISIBLE
90
2
70
0
10
100.000000
20
123.500000
10
200.000000
20
123.500000
0
LWPOLYLINE
8
VISIBLE
90
2
70
0
10
100.000000
20
173.500000
10
200.000000
20
173.500000
0
LWPOLYLINE
8
VISIBLE
90
2
70
0
10
200.000000
20
123.500000
10
200.000000
20
173.500000
0
LWPOLYLINE
8
VISIBLE
90
42
70
0
10
130.000000
20
161.500000
10
131.526493
20
161.382804
10
133.017206
20
161.033964
10
134.437198
20
160.461656
10
135.753187
20
159.679294
10
136.934325
20
158.705216
10
137.952929
20
157.562254
10
138.785123
20
156.277198
10
139.411400
20
154.880169
10
139.817083
20
153.403911
10
139.992662
20
151.883027
10
139.934021
20
150.353166
10
139.642535
20
148.850185
10
139.125036
20
147.409314
10
138.393654
20
146.064324
10
137.465532
20
144.846743
10
136.362424
20
143.785108
10
135.110187
20
142.904304
10
133.738171
20
142.224975
10
132.278535
20
141.763046
10
130.765493
20
141.529342
10
129.234507
20
141.529342
10
127.721465
20
141.763046
10
126.261829
20
142.224975
10
124.889813
20
142.904304
10
123.637576
20
143.785108
10
122.534468
20
144.846743
10
121.606346
20
146.064324
10
120.874964
20
147.409314
10
120.357465
20
148.850185
10
120.065979
20
150.353166
10
120.007338
20
151.883027
10
120.182917
20
153.403911
10
120.588600
20
154.880169
10
121.214877
20
156.277198
10
122.047071
20
157.562254
10
123.065675
20
158.705216
10
124.246813
20
159.679294
10
125.562802
20
160.461656
10
126.982794
20
161.033964
10
128.473507
20
161.382804
10
130.000000
20
161.500000
0
LWPOLYLINE
8
CENTER
90
2
70
0
10
283.000000
20
151.500000
10
217.000000
20
151.500000
0
LWPOLYLINE
8
HIDDEN
90
2
70
0
10
280.000000
20
123.500000
10
280.000000
20
173.500000
0
LWPOLYLINE
8
HIDDEN
90
15
70
0
10
280.000000
20
161.500000
10
280.000000
20
161.249279
10
280.000000
20
160.509689
10
280.000000
20
159.318315
10
280.000000
20
157.734898
10
280.000000
20
155.838837
10
280.000000
20
153.725209
10
280.000000
20
151.500000
10
280.000000
20
149.274791
10
280.000000
20
147.161163
10
280.000000
20
145.265102
10
280.000000
20
143.681685
10
280.000000
20
142.490311
10
280.000000
20
141.750721
10
280.000000
20
141.500000
0
LWPOLYLINE
8
HIDDEN
90
15
70
0
10
280.000000
20
141.500000
10
280.000000
20
141.750721
10
280.000000
20
142.490311
10
280.000000
20
143.681685
10
280.000000
20
145.265102
10
280.000000
20
147.161163
10
280.000000
20
149.274791
10
280.000000
20
151.500000
10
280.000000
20
153.725209
10
280.000000
20
155.838837
10
280.000000
20
157.734898
10
280.000000
20
159.318315
10
280.000000
20
160.509689
10
280.000000
20
161.249279
10
280.000000
20
161.500000
0
LWPOLYLINE
8
HIDDEN
90
2
70
0
10
280.000000
20
173.500000
10
220.000000
20
173.500000
0
LWPOLYLINE
8
HIDDEN
90
2
70
0
10
220.000000
20
123.500000
10
220.000000
20
173.500000
0
LWPOLYLINE
8
HIDDEN
90
15
70
0
10
220.000000
20
161.500000
10
220.000000
20
161.249279
10
220.000000
20
160.509689
10
220.000000
20
159.318315
10
220.000000
20
157.734898
10
220.000000
20
155.838837
10
220.000000
20
153.725209
10
220.000000
20
151.500000
10
220.000000
20
149.274791
10
220.000000
20
147.161163
10
220.000000
20
145.265102
10
220.000000
20
143.681685
10
220.000000
20
142.490311
10
220.000000
20
141.750721
10
220.000000
20
141.500000
0
LWPOLYLINE
8
HIDDEN
90
15
70
0
10
220.000000
20
141.500000
10
220.000000
20
141.750721
10
220.000000
20
142.490311
10
220.000000
20
143.681685
10
220.000000
20
145.265102
10
220.000000
20
147.161163
10
220.000000
20
149.274791
10
220.000000
20
151.500000
10
220.000000
20
153.725209
10
220.000000
20
155.838837
10
220.000000
20
157.734898
10
220.000000
20
159.318315
10
220.000000
20
160.509689
10
220.000000
20
161.249279
10
220.000000
20
161.500000
0
LWPOLYLINE
8
HIDDEN
90
2
70
0
10
280.000000
20
123.500000
10
220.000000
20
123.500000
0
LWPOLYLINE
8
HIDDEN
90
2
70
0
10
280.000000
20
161.500000
10
220.000000
20
161.500000
0
LWPOLYLINE
8
HIDDEN
90
2
70
0
10
280.000000
20
141.500000
10
220.000000
20
141.500000
0
LWPOLYLINE
8
VISIBLE
90
2
70
0
10
280.000000
20
123.500000
10
280.000000
20
173.500000
0
LWPOLYLINE
8
VISIBLE
90
2
70
0
10
280.000000
20
123.500000
10
220.000000
20
123.500000
0
LWPOLYLINE
8
VISIBLE
90
2
70
0
10
220.000000
20
123.500000
10
220.000000
20
173.500000
0
LWPOLYLINE
8
VISIBLE
90
2
70
0
10
280.000000
20
173.500000
10
220.000000
20
173.500000
0
LWPOLYLINE
8
CENTER
90
2
70
0
10
357.000000
20
151.500000
10
383.000000
20
151.500000
0
LWPOLYLINE
8
CENTER
90
2
70
0
10
370.000000
20
138.500000
10
370.000000
20
164.500000
0
LWPOLYLINE
8
HIDDEN
90
2
70
0
10
400.000000
20
123.500000
10
400.000000
20
173.500000
0
LWPOLYLINE
8
HIDDEN
90
2
70
0
10
400.000000
20
123.500000
10
300.000000
20
123.500000
0
LWPOLYLINE
8
HIDDEN
90
2
70
0
10
400.000000
20
173.500000
10
300.000000
20
173.500000
0
LWPOLYLINE
8
HIDDEN
90
2
70
0
10
300.000000
20
123.500000
10
300.000000
20
173.500000
0
LWPOLYLINE
8
HIDDEN
90
42
70
0
10
370.000000
20
161.500000
10
368.473507
20
161.382804
10
366.982794
20
161.033964
10
365.562802
20
160.461656
10
364.246813
20
159.679294
10
363.065675
20
158.705216
10
362.047071
20
157.562254
10
361.214877
20
156.277198
10
360.588600
20
154.880169
10
360.182917
20
153.403911
10
360.007338
20
151.883027
10
360.065979
20
150.353166
10
360.357465
20
148.850185
10
360.874964
20
147.409314
10
361.606346
20
146.064324
10
362.534468
20
144.846743
10
363.637576
20
143.785108
10
364.889813
20
142.904304
10
366.261829
20
142.224975
10
367.721465
20
141.763046
10
369.234507
20
141.529342
10
370.765493
20
141.529342
10
372.278535
20
141.763046
10
373.738171
20
142.224975
10
375.110187
20
142.904304
10
376.362424
20
143.785108
10
377.465532
20
144.846743
10
378.393654
20
146.064324
10
379.125036
20
147.409314
10
379.642535
20
148.850185
10
379.934021
20
150.353166
10
379.992662
20
151.883027
10
379.817083
20
153.403911
10
379.411400
20
154.880169
10
378.785123
20
156.277198
10
377.952929
20
157.562254
10
376.934325
20
158.705216
10
375.753187
20
159.679294
10
374.437198
20
160.461656
10
373.017206
20
161.033964
10
371.526493
20
161.382804
10
370.000000
20
161.500000
0
LWPOLYLINE
8
VISIBLE
90
2
70
0
10
400.000000
20
123.500000
10
400.000000
20
173.500000
0
LWPOLYLINE
8
VISIBLE
90
2
70
0
10
400.000000
20
173.500000
10
300.000000
20
173.500000
0
LWPOLYLINE
8
VISIBLE
90
2
70
0
10
400.000000
20
123.500000
10
300.000000
20
123.500000
0
LWPOLYLINE
8
VISIBLE
90
2
70
0
10
300.000000
20
123.500000
10
300.000000
20
173.500000
0
LWPOLYLINE
8
VISIBLE
90
42
70
0
10
370.000000
20
161.500000
10
368.473507
20
161.382804
10
366.982794
20
161.033964
10
365.562802
20
160.461656
10
364.246813
20
159.679294
10
363.065675
20
158.705216
10
362.047071
20
157.562254
10
361.214877
20
156.277198
10
360.588600
20
154.880169
10
360.182917
20
153.403911
10
360.007338
20
151.883027
10
360.065979
20
150.353166
10
360.357465
20
148.850185
10
360.874964
20
147.409314
10
361.606346
20
146.064324
10
362.534468
20
144.846743
10
363.637576
20
143.785108
10
364.889813
20
142.904304
10
366.261829
20
142.224975
10
367.721465
20
141.763046
10
369.234507
20
141.529342
10
370.765493
20
141.529342
10
372.278535
20
141.763046
10
373.738171
20
142.224975
10
375.110187
20
142.904304
10
376.362424
20
143.785108
10
377.465532
20
144.846743
10
378.393654
20
146.064324
10
379.125036
20
147.409314
10
379.642535
20
148.850185
10
379.934021
20
150.353166
10
379.992662
20
151.883027
10
379.817083
20
153.403911
10
379.411400
20
154.880169
10
378.785123
20
156.277198
10
377.952929
20
157.562254
10
376.934325
20
158.705216
10
375.753187
20
159.679294
10
374.437198
20
160.461656
10
373.017206
20
161.033964
10
371.526493
20
161.382804
10
370.000000
20
161.500000
0
LWPOLYLINE
8
CENTER
90
2
70
0
10
130.000000
20
256.500000
10
130.000000
20
190.500000
0
LWPOLYLINE
8
HIDDEN
90
2
70
0
10
100.000000
20
253.500000
10
100.000000
20
193.500000
0
LWPOLYLINE
8
HIDDEN
90
2
70
0
10
100.000000
20
253.500000
10
200.000000
20
253.500000
0
LWPOLYLINE
8
HIDDEN
90
15
70
0
10
130.000000
20
253.500000
10
131.119645
20
253.500000
10
132.225209
20
253.500000
10
133.302791
20
253.500000
10
134.338837
20
253.500000
10
135.320321
20
253.500000
10
136.234898
20
253.500000
10
137.071068
20
253.500000
10
137.818315
20
253.500000
10
138.467242
20
253.500000
10
139.009689
20
253.500000
10
139.438833
20
253.500000
10
139.749279
20
253.500000
10
139.937122
20
253.500000
10
140.000000
20
253.500000
0
LWPOLYLINE
8
HIDDEN
90
15
70
0
10
140.000000
20
253.500000
10
139.749279
20
253.500000
10
139.009689
20
253.500000
10
137.818315
20
253.500000
10
136.234898
20
253.500000
10
134.338837
20
253.500000
10
132.225209
20
253.500000
10
130.000000
20
253.500000
10
127.774791
20
253.500000
10
125.661163
20
253.500000
10
123.765102
20
253.500000
10
122.181685
20
253.500000
10
120.990311
20
253.500000
10
120.250721
20
253.500000
10
120.000000
20
253.500000
0
LWPOLYLINE
8
HIDDEN
90
15
70
0
10
120.000000
20
253.500000
10
120.062878
20
253.500000
10
120.250721
20
253.500000
10
120.561167
20
253.500000
10
120.990311
20
253.500000
10
121.532758
20
253.500000
10
122.181685
20
253.500000
10
122.928932
20
253.500000
10
123.765102
20
253.500000
10
124.679679
20
253.500000
10
125.661163
20
253.500000
10
126.697209
20
253.500000
10
127.774791
20
253.500000
10
128.880355
20
253.500000
10
130.000000
20
253.500000
0
LWPOLYLINE
8
HIDDEN
90
2
70
0
10
200.000000
20
253.500000
10
200.000000
20
193.500000
0
LWPOLYLINE
8
HIDDEN
90
2
70
0
10
100.000000
20
193.500000
10
200.000000
20
193.500000
0
LWPOLYLINE
8
HIDDEN
90
15
70
0
10
130.000000
20
193.500000
10
131.119645
20
193.500000
10
132.225209
20
193.500000
10
133.302791
20
193.500000
10
134.338837
20
193.500000
10
135.320321
20
193.500000
10
136.234898
20
193.500000
10
137.071068
20
193.500000
10
137.818315
20
193.500000
10
138.467242
20
193.500000
10
139.009689
20
193.500000
10
139.438833
20
193.500000
10
139.749279
20
193.500000
10
139.937122
20
193.500000
10
140.000000
20
193.500000
0
LWPOLYLINE
8
HIDDEN
90
15
70
0
10
140.000000
20
193.500000
10
139.749279
20
193.500000
10
139.009689
20
193.500000
10
137.818315
20
193.500000
10
136.234898
20
193.500000
10
134.338837
20
193.500000
10
132.225209
20
193.500000
10
130.000000
20
193.500000
10
127.774791
20
193.500000
10
125.661163
20
193.500000
10
123.765102
20
193.500000
10
122.181685
20
193.500000
10
120.990311
20
193.500000
10
120.250721
20
193.500000
10
120.000000
20
193.500000
0
LWPOLYLINE
8
HIDDEN
90
15
70
0
10
120.000000
20
193.500000
10
120.062878
20
193.500000
10
120.250721
20
193.500000
10
120.561167
20
193.500000
10
120.990311
20
193.500000
10
121.532758
20
193.500000
10
122.181685
20
193.500000
10
122.928932
20
193.500000
10
123.765102
20
193.500000
10
124.679679
20
193.500000
10
125.661163
20
193.500000
10
126.697209
20
193.500000
10
127.774791
20
193.500000
10
128.880355
20
193.500000
10
130.000000
20
193.500000
0
LWPOLYLINE
8
HIDDEN
90
2
70
0
10
120.000000
20
253.500000
10
120.000000
20
193.500000
0
LWPOLYLINE
8
HIDDEN
90
2
70
0
10
140.000000
20
253.500000
10
140.000000
20
193.500000
0
LWPOLYLINE
8
VISIBLE
90
2
70
0
10
100.000000
20
253.500000
10
100.000000
20
193.500000
0
LWPOLYLINE
8
VISIBLE
90
2
70
0
10
100.000000
20
253.500000
10
200.000000
20
253.500000
0
LWPOLYLINE
8
VISIBLE
90
2
70
0
10
100.000000
20
193.500000
10
200.000000
20
193.500000
0
LWPOLYLINE
8
VISIBLE
90
2
70
0
10
200.000000
20
253.500000
10
200.000000
20
193.500000
0
LWPOLYLINE
8
CENTER
90
2
70
0
10
130.000000
20
40.500000
10
130.000000
20
106.500000
0
LWPOLYLINE
8
HIDDEN
90
2
70
0
10
100.000000
20
43.500000
10
100.000000
20
103.500000
0
LWPOLYLINE
8
HIDDEN
90
2
70
0
10
100.000000
20
43.500000
10
200.000000
20
43.500000
0
LWPOLYLINE
8
HIDDEN
90
15
70
0
10
130.000000
20
43.500000
10
131.119645
20
43.500000
10
132.225209
20
43.500000
10
133.302791
20
43.500000
10
134.338837
20
43.500000
10
135.320321
20
43.500000
10
136.234898
20
43.500000
10
137.071068
20
43.500000
10
137.818315
20
43.500000
10
138.467242
20
43.500000
10
139.009689
20
43.500000
10
139.438833
20
43.500000
10
139.749279
20
43.500000
10
139.937122
20
43.500000
10
140.000000
20
43.500000
0
LWPOLYLINE
8
HIDDEN
90
15
70
0
10
140.000000
20
43.500000
10
139.749279
20
43.500000
10
139.009689
20
43.500000
10
137.818315
20
43.500000
10
136.234898
20
43.500000
10
134.338837
20
43.500000
10
132.225209
20
43.500000
10
130.000000
20
43.500000
10
127.774791
20
43.500000
10
125.661163
20
43.500000
10
123.765102
20
43.500000
10
122.181685
20
43.500000
10
120.990311
20
43.500000
10
120.250721
20
43.500000
10
120.000000
20
43.500000
0
LWPOLYLINE
8
HIDDEN
90
15
70
0
10
120.000000
20
43.500000
10
120.062878
20
43.500000
10
120.250721
20
43.500000
10
120.561167
20
43.500000
10
120.990311
20
43.500000
10
121.532758
20
43.500000
10
122.181685
20
43.500000
10
122.928932
20
43.500000
10
123.765102
20
43.500000
10
124.679679
20
43.500000
10
125.661163
20
43.500000
10
126.697209
20
43.500000
10
127.774791
20
43.500000
10
128.880355
20
43.500000
10
130.000000
20
43.500000
0
LWPOLYLINE
8
HIDDEN
90
2
70
0
10
100.000000
20
103.500000
10
200.000000
20
103.500000
0
LWPOLYLINE
8
HIDDEN
90
15
70
0
10
130.000000
20
103.500000
10
131.119645
20
103.500000
10
132.225209
20
103.500000
10
133.302791
20
103.500000
10
134.338837
20
103.500000
10
135.320321
20
103.500000
10
136.234898
20
103.500000
10
137.071068
20
103.500000
10
137.818315
20
103.500000
10
138.467242
20
103.500000
10
139.009689
20
103.500000
10
139.438833
20
103.500000
10
139.749279
20
103.500000
10
139.937122
20
103.500000
10
140.000000
20
103.500000
0
LWPOLYLINE
8
HIDDEN
90
15
70
0
10
140.000000
20
103.500000
10
139.749279
20
103.500000
10
139.009689
20
103.500000
10
137.818315
20
103.500000
10
136.234898
20
103.500000
10
134.338837
20
103.500000
10
132.225209
20
103.500000
10
130.000000
20
103.500000
10
127.774791
20
103.500000
10
125.661163
20
103.500000
10
123.765102
20
103.500000
10
122.181685
20
103.500000
10
120.990311
20
103.500000
10
120.250721
20
103.500000
10
120.000000
20
103.500000
0
LWPOLYLINE
8
HIDDEN
90
15
70
0
10
120.000000
20
103.500000
10
120.062878
20
103.500000
10
120.250721
20
103.500000
10
120.561167
20
103.500000
10
120.990311
20
103.500000
10
121.532758
20
103.500000
10
122.181685
20
103.500000
10
122.928932
20
103.500000
10
123.765102
20
103.500000
10
124.679679
20
103.500000
10
125.661163
20
103.500000
10
126.697209
20
103.500000
10
127.774791
20
103.500000
10
128.880355
20
103.500000
10
130.000000
20
103.500000
0
LWPOLYLINE
8
HIDDEN
90
2
70
0
10
200.000000
20
43.500000
10
200.000000
20
103.500000
0
LWPOLYLINE
8
HIDDEN
90
2
70
0
10
140.000000
20
43.500000
10
140.000000
20
103.500000
0
LWPOLYLINE
8
HIDDEN
90
2
70
0
10
120.000000
20
43.500000
10
120.000000
20
103.500000
0
LWPOLYLINE
8
VISIBLE
90
2
70
0
10
100.000000
20
43.500000
10
100.000000
20
103.500000
0
LWPOLYLINE
8
VISIBLE
90
2
70
0
10
100.000000
20
43.500000
10
200.000000
20
43.500000
0
LWPOLYLINE
8
VISIBLE
90
2
70
0
10
200.000000
20
43.500000
10
200.000000
20
103.500000
0
LWPOLYLINE
8
VISIBLE
90
2
70
0
10
100.000000
20
103.500000
10
200.000000
20
103.500000
0
TEXT
8
LABEL
10
50.000000
20
117.500000
40
4.000000
1
RIGHT
72
1
11
50.000000
21
117.500000
0
TEXT
8
LABEL
10
150.000000
20
117.500000
40
4.000000
1
FRONT
72
1
11
150.000000
21
117.500000
0
TEXT
8
LABEL
10
250.000000
20
117.500000
40
4.000000
1
LEFT
72
1
11
250.000000
21
117.500000
0
TEXT
8
LABEL
10
350.000000
20
117.500000
40
4.000000
1
REAR
72
1
11
350.000000
21
117.500000
0
TEXT
8
LABEL
10
150.000000
20
187.500000
40
4.000000
1
BOTTOM
72
1
11
150.000000
21
187.500000
0
TEXT
8
LABEL
10
150.000000
20
37.500000
40
4.000000
1
TOP
72
1
11
150.000000
21
37.500000
0
ENDSEC
0
EOF
